<mxfile host="65bd71144e" scale="1" border="0" disableSvgWarning="true">
    <diagram id="l3MaCqEytCjUr6KCBnOf" name="ToSave">
        <mxGraphModel dx="1481" dy="219" grid="1" gridSize="10" guides="1" tooltips="1" connect="1" arrows="1" fold="1" page="1" pageScale="1" pageWidth="850" pageHeight="1100" math="0" shadow="0">
            <root>
                <mxCell id="pUpyuqXbxQz7kzesneX1-0"/>
                <mxCell id="pUpyuqXbxQz7kzesneX1-1" parent="pUpyuqXbxQz7kzesneX1-0"/>
                <mxCell id="zFTrmHbgA2Ny44Zafnvt-0" value="" style="endArrow=block;html=1;fontSize=12;strokeWidth=1;fillColor=#f5f5f5;strokeColor=#666666;endFill=1;dashed=1;" edge="1" parent="pUpyuqXbxQz7kzesneX1-1">
                    <mxGeometry width="50" height="50" relative="1" as="geometry">
                        <mxPoint x="360" y="2100" as="sourcePoint"/>
                        <mxPoint x="800" y="2100" as="targetPoint"/>
                    </mxGeometry>
                </mxCell>
                <mxCell id="zFTrmHbgA2Ny44Zafnvt-1" value="" style="group" vertex="1" connectable="0" parent="pUpyuqXbxQz7kzesneX1-1">
                    <mxGeometry x="480" y="2080" width="80" height="20" as="geometry"/>
                </mxCell>
                <mxCell id="zFTrmHbgA2Ny44Zafnvt-2" value="" style="rounded=0;whiteSpace=wrap;html=1;fontSize=12;strokeWidth=1;fillColor=#f8cecc;strokeColor=#b85450;" vertex="1" parent="zFTrmHbgA2Ny44Zafnvt-1">
                    <mxGeometry width="80" height="20" as="geometry"/>
                </mxCell>
                <mxCell id="zFTrmHbgA2Ny44Zafnvt-3" value="&lt;p style=&quot;line-height: 1.2&quot;&gt;a-&lt;/p&gt;" style="text;html=1;strokeColor=none;fillColor=none;align=center;verticalAlign=middle;rounded=0;fontSize=11;labelPosition=center;verticalLabelPosition=middle;horizontal=1;" vertex="1" parent="zFTrmHbgA2Ny44Zafnvt-1">
                    <mxGeometry width="20" height="20" as="geometry"/>
                </mxCell>
                <mxCell id="zFTrmHbgA2Ny44Zafnvt-4" value="a+" style="text;html=1;strokeColor=none;fillColor=none;align=center;verticalAlign=middle;rounded=0;fontSize=11;spacing=2;" vertex="1" parent="zFTrmHbgA2Ny44Zafnvt-1">
                    <mxGeometry x="60" width="20" height="20" as="geometry"/>
                </mxCell>
                <mxCell id="zFTrmHbgA2Ny44Zafnvt-5" value="" style="endArrow=none;dashed=1;html=1;strokeWidth=1;fontSize=11;fillColor=#f8cecc;strokeColor=#b85450;" edge="1" parent="zFTrmHbgA2Ny44Zafnvt-1">
                    <mxGeometry width="50" height="50" relative="1" as="geometry">
                        <mxPoint x="60" y="20" as="sourcePoint"/>
                        <mxPoint x="60" as="targetPoint"/>
                    </mxGeometry>
                </mxCell>
                <mxCell id="zFTrmHbgA2Ny44Zafnvt-6" value="" style="endArrow=none;dashed=1;html=1;strokeWidth=1;fontSize=11;fillColor=#f8cecc;strokeColor=#b85450;" edge="1" parent="zFTrmHbgA2Ny44Zafnvt-1">
                    <mxGeometry width="50" height="50" relative="1" as="geometry">
                        <mxPoint x="20" y="20" as="sourcePoint"/>
                        <mxPoint x="20" as="targetPoint"/>
                    </mxGeometry>
                </mxCell>
                <mxCell id="zFTrmHbgA2Ny44Zafnvt-7" value="" style="group" vertex="1" connectable="0" parent="pUpyuqXbxQz7kzesneX1-1">
                    <mxGeometry x="400" y="2120" width="80" height="20" as="geometry"/>
                </mxCell>
                <mxCell id="zFTrmHbgA2Ny44Zafnvt-8" value="" style="rounded=0;whiteSpace=wrap;html=1;fontSize=12;strokeWidth=1;fillColor=#dae8fc;strokeColor=#6c8ebf;" vertex="1" parent="zFTrmHbgA2Ny44Zafnvt-7">
                    <mxGeometry width="80" height="20" as="geometry"/>
                </mxCell>
                <mxCell id="zFTrmHbgA2Ny44Zafnvt-9" value="b-" style="text;html=1;strokeColor=none;fillColor=none;align=center;verticalAlign=middle;rounded=0;fontSize=11;" vertex="1" parent="zFTrmHbgA2Ny44Zafnvt-7">
                    <mxGeometry width="20" height="20" as="geometry"/>
                </mxCell>
                <mxCell id="zFTrmHbgA2Ny44Zafnvt-10" value="b+" style="text;strokeColor=none;fillColor=none;align=center;verticalAlign=middle;rounded=0;fontSize=11;html=1;spacing=2;" vertex="1" parent="zFTrmHbgA2Ny44Zafnvt-7">
                    <mxGeometry x="60" width="20" height="20" as="geometry"/>
                </mxCell>
                <mxCell id="zFTrmHbgA2Ny44Zafnvt-11" value="" style="endArrow=none;dashed=1;html=1;strokeWidth=1;fontSize=11;fillColor=#dae8fc;strokeColor=#6c8ebf;" edge="1" parent="zFTrmHbgA2Ny44Zafnvt-7">
                    <mxGeometry width="50" height="50" relative="1" as="geometry">
                        <mxPoint x="60" y="20" as="sourcePoint"/>
                        <mxPoint x="60" as="targetPoint"/>
                    </mxGeometry>
                </mxCell>
                <mxCell id="zFTrmHbgA2Ny44Zafnvt-12" value="" style="endArrow=none;dashed=1;html=1;strokeWidth=1;fontSize=11;fillColor=#dae8fc;strokeColor=#6c8ebf;" edge="1" parent="zFTrmHbgA2Ny44Zafnvt-7">
                    <mxGeometry width="50" height="50" relative="1" as="geometry">
                        <mxPoint x="19.66999999999996" y="20" as="sourcePoint"/>
                        <mxPoint x="19.66999999999996" as="targetPoint"/>
                    </mxGeometry>
                </mxCell>
                <mxCell id="zFTrmHbgA2Ny44Zafnvt-13" value="" style="group" vertex="1" connectable="0" parent="pUpyuqXbxQz7kzesneX1-1">
                    <mxGeometry x="560" y="2100" width="80" height="20" as="geometry"/>
                </mxCell>
                <mxCell id="zFTrmHbgA2Ny44Zafnvt-14" value="" style="rounded=0;whiteSpace=wrap;html=1;fontSize=12;strokeWidth=1;fillColor=#dae8fc;strokeColor=#6c8ebf;" vertex="1" parent="zFTrmHbgA2Ny44Zafnvt-13">
                    <mxGeometry width="80" height="20" as="geometry"/>
                </mxCell>
                <mxCell id="zFTrmHbgA2Ny44Zafnvt-15" value="b-" style="text;html=1;strokeColor=none;fillColor=none;align=center;verticalAlign=middle;rounded=0;fontSize=11;" vertex="1" parent="zFTrmHbgA2Ny44Zafnvt-13">
                    <mxGeometry width="20" height="20" as="geometry"/>
                </mxCell>
                <mxCell id="zFTrmHbgA2Ny44Zafnvt-16" value="b+" style="text;strokeColor=none;fillColor=none;align=center;verticalAlign=middle;rounded=0;fontSize=11;html=1;spacing=2;" vertex="1" parent="zFTrmHbgA2Ny44Zafnvt-13">
                    <mxGeometry x="60" width="20" height="20" as="geometry"/>
                </mxCell>
                <mxCell id="zFTrmHbgA2Ny44Zafnvt-17" value="" style="endArrow=none;dashed=1;html=1;strokeWidth=1;fontSize=11;fillColor=#dae8fc;strokeColor=#6c8ebf;" edge="1" parent="zFTrmHbgA2Ny44Zafnvt-13">
                    <mxGeometry width="50" height="50" relative="1" as="geometry">
                        <mxPoint x="60" y="20" as="sourcePoint"/>
                        <mxPoint x="60" as="targetPoint"/>
                    </mxGeometry>
                </mxCell>
                <mxCell id="zFTrmHbgA2Ny44Zafnvt-18" value="" style="endArrow=none;dashed=1;html=1;strokeWidth=1;fontSize=11;fillColor=#dae8fc;strokeColor=#6c8ebf;" edge="1" parent="zFTrmHbgA2Ny44Zafnvt-13">
                    <mxGeometry width="50" height="50" relative="1" as="geometry">
                        <mxPoint x="19.66999999999996" y="20" as="sourcePoint"/>
                        <mxPoint x="19.66999999999996" as="targetPoint"/>
                    </mxGeometry>
                </mxCell>
                <mxCell id="zFTrmHbgA2Ny44Zafnvt-19" value="" style="endArrow=none;dashed=1;html=1;strokeWidth=1;fontSize=11;fillColor=#f5f5f5;strokeColor=#666666;" edge="1" parent="zFTrmHbgA2Ny44Zafnvt-13">
                    <mxGeometry width="50" height="50" relative="1" as="geometry">
                        <mxPoint y="40" as="sourcePoint"/>
                        <mxPoint y="-40" as="targetPoint"/>
                    </mxGeometry>
                </mxCell>
                <mxCell id="zFTrmHbgA2Ny44Zafnvt-20" value="succ(a+)=b-" style="text;html=1;strokeColor=none;fillColor=none;align=left;verticalAlign=middle;whiteSpace=wrap;rounded=0;fontSize=11;fontColor=#666666;" vertex="1" parent="pUpyuqXbxQz7kzesneX1-1">
                    <mxGeometry x="680" y="2100" width="80" height="20" as="geometry"/>
                </mxCell>
                <mxCell id="zFTrmHbgA2Ny44Zafnvt-21" value="succ(b+)=a-" style="text;html=1;strokeColor=none;fillColor=none;align=left;verticalAlign=middle;whiteSpace=wrap;rounded=0;fontSize=11;fontColor=#666666;" vertex="1" parent="pUpyuqXbxQz7kzesneX1-1">
                    <mxGeometry x="680" y="2120" width="80" height="20" as="geometry"/>
                </mxCell>
                <mxCell id="zFTrmHbgA2Ny44Zafnvt-22" value="" style="endArrow=none;dashed=1;html=1;strokeWidth=1;fontSize=11;fillColor=#f5f5f5;strokeColor=#666666;" edge="1" parent="pUpyuqXbxQz7kzesneX1-1">
                    <mxGeometry width="50" height="50" relative="1" as="geometry">
                        <mxPoint x="480" y="2160" as="sourcePoint"/>
                        <mxPoint x="480" y="2060" as="targetPoint"/>
                    </mxGeometry>
                </mxCell>
            </root>
        </mxGraphModel>
    </diagram>
    <diagram id="N2bCS2bcF8iMgcSIjrnJ" name="Domain">
        <mxGraphModel dx="1037" dy="923" grid="1" gridSize="10" guides="1" tooltips="1" connect="1" arrows="1" fold="1" page="1" pageScale="1" pageWidth="850" pageHeight="1100" math="0" shadow="0">
            <root>
                <mxCell id="8R50ZV_OCoe2CLYyDB6P-0"/>
                <mxCell id="8R50ZV_OCoe2CLYyDB6P-1" parent="8R50ZV_OCoe2CLYyDB6P-0"/>
                <mxCell id="SDWWRyTTLBMlHLY2hig3-0" value="" style="rounded=0;whiteSpace=wrap;html=1;fillColor=none;dashed=1;fontColor=#333333;strokeColor=#666666;" parent="8R50ZV_OCoe2CLYyDB6P-1" vertex="1">
                    <mxGeometry x="40" y="40" width="520" height="360" as="geometry"/>
                </mxCell>
                <mxCell id="8R50ZV_OCoe2CLYyDB6P-2" value="" style="shape=manualInput;whiteSpace=wrap;html=1;size=250;strokeColor=none;fillColor=#f5f5f5;fontColor=#333333;" parent="8R50ZV_OCoe2CLYyDB6P-1" vertex="1">
                    <mxGeometry x="170" y="100" width="250" height="250" as="geometry"/>
                </mxCell>
                <mxCell id="8R50ZV_OCoe2CLYyDB6P-3" value="" style="endArrow=block;html=1;endFill=1;" parent="8R50ZV_OCoe2CLYyDB6P-1" edge="1">
                    <mxGeometry width="50" height="50" relative="1" as="geometry">
                        <mxPoint x="300" y="380" as="sourcePoint"/>
                        <mxPoint x="300" y="60" as="targetPoint"/>
                    </mxGeometry>
                </mxCell>
                <mxCell id="8R50ZV_OCoe2CLYyDB6P-4" value="" style="endArrow=block;html=1;endFill=1;" parent="8R50ZV_OCoe2CLYyDB6P-1" edge="1">
                    <mxGeometry width="50" height="50" relative="1" as="geometry">
                        <mxPoint x="140" y="220" as="sourcePoint"/>
                        <mxPoint x="460" y="220" as="targetPoint"/>
                    </mxGeometry>
                </mxCell>
                <mxCell id="8R50ZV_OCoe2CLYyDB6P-5" value="a+" style="text;html=1;strokeColor=none;fillColor=none;align=center;verticalAlign=middle;whiteSpace=wrap;rounded=0;" parent="8R50ZV_OCoe2CLYyDB6P-1" vertex="1">
                    <mxGeometry x="280" y="50" width="70" height="30" as="geometry"/>
                </mxCell>
                <mxCell id="8R50ZV_OCoe2CLYyDB6P-6" value="a-" style="text;html=1;strokeColor=none;fillColor=none;align=center;verticalAlign=middle;whiteSpace=wrap;rounded=0;" parent="8R50ZV_OCoe2CLYyDB6P-1" vertex="1">
                    <mxGeometry x="420" y="220" width="70" height="30" as="geometry"/>
                </mxCell>
                <mxCell id="8R50ZV_OCoe2CLYyDB6P-7" value="" style="endArrow=none;html=1;dashed=1;" parent="8R50ZV_OCoe2CLYyDB6P-1" edge="1">
                    <mxGeometry width="50" height="50" relative="1" as="geometry">
                        <mxPoint x="160" y="360" as="sourcePoint"/>
                        <mxPoint x="440" y="80" as="targetPoint"/>
                    </mxGeometry>
                </mxCell>
                <mxCell id="8R50ZV_OCoe2CLYyDB6P-8" value="a- = a+" style="text;html=1;strokeColor=none;fillColor=none;align=center;verticalAlign=middle;whiteSpace=wrap;rounded=0;" parent="8R50ZV_OCoe2CLYyDB6P-1" vertex="1">
                    <mxGeometry x="410" y="50" width="70" height="30" as="geometry"/>
                </mxCell>
                <mxCell id="8R50ZV_OCoe2CLYyDB6P-9" value="empty intervals&lt;br&gt;(a- &amp;gt; a+)" style="text;html=1;strokeColor=none;fillColor=none;align=center;verticalAlign=middle;whiteSpace=wrap;rounded=0;" parent="8R50ZV_OCoe2CLYyDB6P-1" vertex="1">
                    <mxGeometry x="340" y="280" width="60" height="50" as="geometry"/>
                </mxCell>
                <mxCell id="8R50ZV_OCoe2CLYyDB6P-10" value="non-empty intervals&lt;br&gt;(a- &amp;lt;= a+)" style="text;html=1;strokeColor=none;fillColor=none;align=center;verticalAlign=middle;whiteSpace=wrap;rounded=0;" parent="8R50ZV_OCoe2CLYyDB6P-1" vertex="1">
                    <mxGeometry x="190" y="120" width="60" height="40" as="geometry"/>
                </mxCell>
            </root>
        </mxGraphModel>
    </diagram>
    <diagram id="Kg16l-IW-ko9S0foNlR1" name="Relations-Table">
        <mxGraphModel dx="1220" dy="1086" grid="1" gridSize="10" guides="1" tooltips="1" connect="1" arrows="1" fold="1" page="1" pageScale="1" pageWidth="850" pageHeight="1100" math="0" shadow="0">
            <root>
                <mxCell id="0"/>
                <mxCell id="1" parent="0"/>
                <mxCell id="17" value="" style="shape=table;html=1;whiteSpace=wrap;startSize=0;container=1;collapsible=0;childLayout=tableLayout;strokeWidth=1;strokeColor=#36393d;fillColor=none;" parent="1" vertex="1">
                    <mxGeometry x="30" y="40" width="610" height="1040" as="geometry"/>
                </mxCell>
                <mxCell id="22" value="" style="shape=partialRectangle;html=1;whiteSpace=wrap;collapsible=0;dropTarget=0;pointerEvents=0;fillColor=none;top=0;left=0;bottom=0;right=0;points=[[0,0.5],[1,0.5]];portConstraint=eastwest;" parent="17" vertex="1">
                    <mxGeometry width="610" height="80" as="geometry"/>
                </mxCell>
                <mxCell id="23" value="Before" style="shape=partialRectangle;html=1;whiteSpace=wrap;connectable=0;fillColor=none;top=0;left=0;bottom=0;right=0;overflow=hidden;pointerEvents=1;" parent="22" vertex="1">
                    <mxGeometry width="90" height="80" as="geometry">
                        <mxRectangle width="90" height="80" as="alternateBounds"/>
                    </mxGeometry>
                </mxCell>
                <mxCell id="24" value="b" style="shape=partialRectangle;html=1;whiteSpace=wrap;connectable=0;fillColor=none;top=0;left=0;bottom=0;right=0;overflow=hidden;pointerEvents=1;" parent="22" vertex="1">
                    <mxGeometry x="90" width="40" height="80" as="geometry">
                        <mxRectangle width="40" height="80" as="alternateBounds"/>
                    </mxGeometry>
                </mxCell>
                <mxCell id="33" style="shape=partialRectangle;html=1;whiteSpace=wrap;connectable=0;fillColor=none;top=0;left=0;bottom=0;right=0;overflow=hidden;pointerEvents=1;" parent="22" vertex="1">
                    <mxGeometry x="130" width="120" height="80" as="geometry">
                        <mxRectangle width="120" height="80" as="alternateBounds"/>
                    </mxGeometry>
                </mxCell>
                <mxCell id="36" style="shape=partialRectangle;html=1;whiteSpace=wrap;connectable=0;fillColor=none;top=0;left=0;bottom=0;right=0;overflow=hidden;pointerEvents=1;" parent="22" vertex="1">
                    <mxGeometry x="250" width="120" height="80" as="geometry">
                        <mxRectangle width="120" height="80" as="alternateBounds"/>
                    </mxGeometry>
                </mxCell>
                <mxCell id="39" style="shape=partialRectangle;html=1;whiteSpace=wrap;connectable=0;fillColor=none;top=0;left=0;bottom=0;right=0;overflow=hidden;pointerEvents=1;" parent="22" vertex="1">
                    <mxGeometry x="370" width="120" height="80" as="geometry">
                        <mxRectangle width="120" height="80" as="alternateBounds"/>
                    </mxGeometry>
                </mxCell>
                <mxCell id="42" style="shape=partialRectangle;html=1;whiteSpace=wrap;connectable=0;fillColor=none;top=0;left=0;bottom=0;right=0;overflow=hidden;pointerEvents=1;" parent="22" vertex="1">
                    <mxGeometry x="490" width="120" height="80" as="geometry">
                        <mxRectangle width="120" height="80" as="alternateBounds"/>
                    </mxGeometry>
                </mxCell>
                <mxCell id="26" value="" style="shape=partialRectangle;html=1;whiteSpace=wrap;collapsible=0;dropTarget=0;pointerEvents=0;fillColor=none;top=0;left=0;bottom=0;right=0;points=[[0,0.5],[1,0.5]];portConstraint=eastwest;" parent="17" vertex="1">
                    <mxGeometry y="80" width="610" height="80" as="geometry"/>
                </mxCell>
                <mxCell id="27" value="After" style="shape=partialRectangle;html=1;whiteSpace=wrap;connectable=0;fillColor=none;top=0;left=0;bottom=0;right=0;overflow=hidden;pointerEvents=1;" parent="26" vertex="1">
                    <mxGeometry width="90" height="80" as="geometry">
                        <mxRectangle width="90" height="80" as="alternateBounds"/>
                    </mxGeometry>
                </mxCell>
                <mxCell id="28" value="B" style="shape=partialRectangle;html=1;whiteSpace=wrap;connectable=0;fillColor=none;top=0;left=0;bottom=0;right=0;overflow=hidden;pointerEvents=1;" parent="26" vertex="1">
                    <mxGeometry x="90" width="40" height="80" as="geometry">
                        <mxRectangle width="40" height="80" as="alternateBounds"/>
                    </mxGeometry>
                </mxCell>
                <mxCell id="34" style="shape=partialRectangle;html=1;whiteSpace=wrap;connectable=0;fillColor=none;top=0;left=0;bottom=0;right=0;overflow=hidden;pointerEvents=1;" parent="26" vertex="1">
                    <mxGeometry x="130" width="120" height="80" as="geometry">
                        <mxRectangle width="120" height="80" as="alternateBounds"/>
                    </mxGeometry>
                </mxCell>
                <mxCell id="37" style="shape=partialRectangle;html=1;whiteSpace=wrap;connectable=0;fillColor=none;top=0;left=0;bottom=0;right=0;overflow=hidden;pointerEvents=1;" parent="26" vertex="1">
                    <mxGeometry x="250" width="120" height="80" as="geometry">
                        <mxRectangle width="120" height="80" as="alternateBounds"/>
                    </mxGeometry>
                </mxCell>
                <mxCell id="40" style="shape=partialRectangle;html=1;whiteSpace=wrap;connectable=0;fillColor=none;top=0;left=0;bottom=0;right=0;overflow=hidden;pointerEvents=1;" parent="26" vertex="1">
                    <mxGeometry x="370" width="120" height="80" as="geometry">
                        <mxRectangle width="120" height="80" as="alternateBounds"/>
                    </mxGeometry>
                </mxCell>
                <mxCell id="43" style="shape=partialRectangle;html=1;whiteSpace=wrap;connectable=0;fillColor=none;top=0;left=0;bottom=0;right=0;overflow=hidden;pointerEvents=1;" parent="26" vertex="1">
                    <mxGeometry x="490" width="120" height="80" as="geometry">
                        <mxRectangle width="120" height="80" as="alternateBounds"/>
                    </mxGeometry>
                </mxCell>
                <mxCell id="156" style="shape=partialRectangle;html=1;whiteSpace=wrap;collapsible=0;dropTarget=0;pointerEvents=0;fillColor=none;top=0;left=0;bottom=0;right=0;points=[[0,0.5],[1,0.5]];portConstraint=eastwest;" parent="17" vertex="1">
                    <mxGeometry y="160" width="610" height="80" as="geometry"/>
                </mxCell>
                <mxCell id="157" value="Meets" style="shape=partialRectangle;html=1;whiteSpace=wrap;connectable=0;fillColor=none;top=0;left=0;bottom=0;right=0;overflow=hidden;pointerEvents=1;" parent="156" vertex="1">
                    <mxGeometry width="90" height="80" as="geometry">
                        <mxRectangle width="90" height="80" as="alternateBounds"/>
                    </mxGeometry>
                </mxCell>
                <mxCell id="158" value="m" style="shape=partialRectangle;html=1;whiteSpace=wrap;connectable=0;fillColor=none;top=0;left=0;bottom=0;right=0;overflow=hidden;pointerEvents=1;" parent="156" vertex="1">
                    <mxGeometry x="90" width="40" height="80" as="geometry">
                        <mxRectangle width="40" height="80" as="alternateBounds"/>
                    </mxGeometry>
                </mxCell>
                <mxCell id="159" style="shape=partialRectangle;html=1;whiteSpace=wrap;connectable=0;fillColor=none;top=0;left=0;bottom=0;right=0;overflow=hidden;pointerEvents=1;" parent="156" vertex="1">
                    <mxGeometry x="130" width="120" height="80" as="geometry">
                        <mxRectangle width="120" height="80" as="alternateBounds"/>
                    </mxGeometry>
                </mxCell>
                <mxCell id="160" style="shape=partialRectangle;html=1;whiteSpace=wrap;connectable=0;fillColor=none;top=0;left=0;bottom=0;right=0;overflow=hidden;pointerEvents=1;" parent="156" vertex="1">
                    <mxGeometry x="250" width="120" height="80" as="geometry">
                        <mxRectangle width="120" height="80" as="alternateBounds"/>
                    </mxGeometry>
                </mxCell>
                <mxCell id="161" style="shape=partialRectangle;html=1;whiteSpace=wrap;connectable=0;fillColor=none;top=0;left=0;bottom=0;right=0;overflow=hidden;pointerEvents=1;" parent="156" vertex="1">
                    <mxGeometry x="370" width="120" height="80" as="geometry">
                        <mxRectangle width="120" height="80" as="alternateBounds"/>
                    </mxGeometry>
                </mxCell>
                <mxCell id="162" style="shape=partialRectangle;html=1;whiteSpace=wrap;connectable=0;fillColor=none;top=0;left=0;bottom=0;right=0;overflow=hidden;pointerEvents=1;" parent="156" vertex="1">
                    <mxGeometry x="490" width="120" height="80" as="geometry">
                        <mxRectangle width="120" height="80" as="alternateBounds"/>
                    </mxGeometry>
                </mxCell>
                <mxCell id="164" style="shape=partialRectangle;html=1;whiteSpace=wrap;collapsible=0;dropTarget=0;pointerEvents=0;fillColor=none;top=0;left=0;bottom=0;right=0;points=[[0,0.5],[1,0.5]];portConstraint=eastwest;" parent="17" vertex="1">
                    <mxGeometry y="240" width="610" height="80" as="geometry"/>
                </mxCell>
                <mxCell id="165" value="IsMetBy" style="shape=partialRectangle;html=1;whiteSpace=wrap;connectable=0;fillColor=none;top=0;left=0;bottom=0;right=0;overflow=hidden;pointerEvents=1;" parent="164" vertex="1">
                    <mxGeometry width="90" height="80" as="geometry">
                        <mxRectangle width="90" height="80" as="alternateBounds"/>
                    </mxGeometry>
                </mxCell>
                <mxCell id="166" value="M" style="shape=partialRectangle;html=1;whiteSpace=wrap;connectable=0;fillColor=none;top=0;left=0;bottom=0;right=0;overflow=hidden;pointerEvents=1;" parent="164" vertex="1">
                    <mxGeometry x="90" width="40" height="80" as="geometry">
                        <mxRectangle width="40" height="80" as="alternateBounds"/>
                    </mxGeometry>
                </mxCell>
                <mxCell id="167" style="shape=partialRectangle;html=1;whiteSpace=wrap;connectable=0;fillColor=none;top=0;left=0;bottom=0;right=0;overflow=hidden;pointerEvents=1;" parent="164" vertex="1">
                    <mxGeometry x="130" width="120" height="80" as="geometry">
                        <mxRectangle width="120" height="80" as="alternateBounds"/>
                    </mxGeometry>
                </mxCell>
                <mxCell id="168" style="shape=partialRectangle;html=1;whiteSpace=wrap;connectable=0;fillColor=none;top=0;left=0;bottom=0;right=0;overflow=hidden;pointerEvents=1;" parent="164" vertex="1">
                    <mxGeometry x="250" width="120" height="80" as="geometry">
                        <mxRectangle width="120" height="80" as="alternateBounds"/>
                    </mxGeometry>
                </mxCell>
                <mxCell id="169" style="shape=partialRectangle;html=1;whiteSpace=wrap;connectable=0;fillColor=none;top=0;left=0;bottom=0;right=0;overflow=hidden;pointerEvents=1;" parent="164" vertex="1">
                    <mxGeometry x="370" width="120" height="80" as="geometry">
                        <mxRectangle width="120" height="80" as="alternateBounds"/>
                    </mxGeometry>
                </mxCell>
                <mxCell id="170" style="shape=partialRectangle;html=1;whiteSpace=wrap;connectable=0;fillColor=none;top=0;left=0;bottom=0;right=0;overflow=hidden;pointerEvents=1;" parent="164" vertex="1">
                    <mxGeometry x="490" width="120" height="80" as="geometry">
                        <mxRectangle width="120" height="80" as="alternateBounds"/>
                    </mxGeometry>
                </mxCell>
                <mxCell id="192" style="shape=partialRectangle;html=1;whiteSpace=wrap;collapsible=0;dropTarget=0;pointerEvents=0;fillColor=none;top=0;left=0;bottom=0;right=0;points=[[0,0.5],[1,0.5]];portConstraint=eastwest;" parent="17" vertex="1">
                    <mxGeometry y="320" width="610" height="80" as="geometry"/>
                </mxCell>
                <mxCell id="193" value="Overlaps" style="shape=partialRectangle;html=1;whiteSpace=wrap;connectable=0;fillColor=none;top=0;left=0;bottom=0;right=0;overflow=hidden;pointerEvents=1;" parent="192" vertex="1">
                    <mxGeometry width="90" height="80" as="geometry">
                        <mxRectangle width="90" height="80" as="alternateBounds"/>
                    </mxGeometry>
                </mxCell>
                <mxCell id="194" value="o" style="shape=partialRectangle;html=1;whiteSpace=wrap;connectable=0;fillColor=none;top=0;left=0;bottom=0;right=0;overflow=hidden;pointerEvents=1;" parent="192" vertex="1">
                    <mxGeometry x="90" width="40" height="80" as="geometry">
                        <mxRectangle width="40" height="80" as="alternateBounds"/>
                    </mxGeometry>
                </mxCell>
                <mxCell id="195" style="shape=partialRectangle;html=1;whiteSpace=wrap;connectable=0;fillColor=none;top=0;left=0;bottom=0;right=0;overflow=hidden;pointerEvents=1;" parent="192" vertex="1">
                    <mxGeometry x="130" width="120" height="80" as="geometry">
                        <mxRectangle width="120" height="80" as="alternateBounds"/>
                    </mxGeometry>
                </mxCell>
                <mxCell id="196" style="shape=partialRectangle;html=1;whiteSpace=wrap;connectable=0;fillColor=none;top=0;left=0;bottom=0;right=0;overflow=hidden;pointerEvents=1;" parent="192" vertex="1">
                    <mxGeometry x="250" width="120" height="80" as="geometry">
                        <mxRectangle width="120" height="80" as="alternateBounds"/>
                    </mxGeometry>
                </mxCell>
                <mxCell id="197" style="shape=partialRectangle;html=1;whiteSpace=wrap;connectable=0;fillColor=none;top=0;left=0;bottom=0;right=0;overflow=hidden;pointerEvents=1;" parent="192" vertex="1">
                    <mxGeometry x="370" width="120" height="80" as="geometry">
                        <mxRectangle width="120" height="80" as="alternateBounds"/>
                    </mxGeometry>
                </mxCell>
                <mxCell id="198" style="shape=partialRectangle;html=1;whiteSpace=wrap;connectable=0;fillColor=none;top=0;left=0;bottom=0;right=0;overflow=hidden;pointerEvents=1;" parent="192" vertex="1">
                    <mxGeometry x="490" width="120" height="80" as="geometry">
                        <mxRectangle width="120" height="80" as="alternateBounds"/>
                    </mxGeometry>
                </mxCell>
                <mxCell id="200" style="shape=partialRectangle;html=1;whiteSpace=wrap;collapsible=0;dropTarget=0;pointerEvents=0;fillColor=none;top=0;left=0;bottom=0;right=0;points=[[0,0.5],[1,0.5]];portConstraint=eastwest;" parent="17" vertex="1">
                    <mxGeometry y="400" width="610" height="80" as="geometry"/>
                </mxCell>
                <mxCell id="201" value="IsOverlappedBy" style="shape=partialRectangle;html=1;whiteSpace=wrap;connectable=0;fillColor=none;top=0;left=0;bottom=0;right=0;overflow=hidden;pointerEvents=1;fontSize=12;" parent="200" vertex="1">
                    <mxGeometry width="90" height="80" as="geometry">
                        <mxRectangle width="90" height="80" as="alternateBounds"/>
                    </mxGeometry>
                </mxCell>
                <mxCell id="202" value="O" style="shape=partialRectangle;html=1;whiteSpace=wrap;connectable=0;fillColor=none;top=0;left=0;bottom=0;right=0;overflow=hidden;pointerEvents=1;" parent="200" vertex="1">
                    <mxGeometry x="90" width="40" height="80" as="geometry">
                        <mxRectangle width="40" height="80" as="alternateBounds"/>
                    </mxGeometry>
                </mxCell>
                <mxCell id="203" style="shape=partialRectangle;html=1;whiteSpace=wrap;connectable=0;fillColor=none;top=0;left=0;bottom=0;right=0;overflow=hidden;pointerEvents=1;" parent="200" vertex="1">
                    <mxGeometry x="130" width="120" height="80" as="geometry">
                        <mxRectangle width="120" height="80" as="alternateBounds"/>
                    </mxGeometry>
                </mxCell>
                <mxCell id="204" style="shape=partialRectangle;html=1;whiteSpace=wrap;connectable=0;fillColor=none;top=0;left=0;bottom=0;right=0;overflow=hidden;pointerEvents=1;" parent="200" vertex="1">
                    <mxGeometry x="250" width="120" height="80" as="geometry">
                        <mxRectangle width="120" height="80" as="alternateBounds"/>
                    </mxGeometry>
                </mxCell>
                <mxCell id="205" style="shape=partialRectangle;html=1;whiteSpace=wrap;connectable=0;fillColor=none;top=0;left=0;bottom=0;right=0;overflow=hidden;pointerEvents=1;" parent="200" vertex="1">
                    <mxGeometry x="370" width="120" height="80" as="geometry">
                        <mxRectangle width="120" height="80" as="alternateBounds"/>
                    </mxGeometry>
                </mxCell>
                <mxCell id="206" style="shape=partialRectangle;html=1;whiteSpace=wrap;connectable=0;fillColor=none;top=0;left=0;bottom=0;right=0;overflow=hidden;pointerEvents=1;" parent="200" vertex="1">
                    <mxGeometry x="490" width="120" height="80" as="geometry">
                        <mxRectangle width="120" height="80" as="alternateBounds"/>
                    </mxGeometry>
                </mxCell>
                <mxCell id="304" style="shape=partialRectangle;html=1;whiteSpace=wrap;collapsible=0;dropTarget=0;pointerEvents=0;fillColor=none;top=0;left=0;bottom=0;right=0;points=[[0,0.5],[1,0.5]];portConstraint=eastwest;" parent="17" vertex="1">
                    <mxGeometry y="480" width="610" height="80" as="geometry"/>
                </mxCell>
                <mxCell id="305" value="Starts" style="shape=partialRectangle;html=1;whiteSpace=wrap;connectable=0;fillColor=none;top=0;left=0;bottom=0;right=0;overflow=hidden;pointerEvents=1;fontSize=12;" parent="304" vertex="1">
                    <mxGeometry width="90" height="80" as="geometry">
                        <mxRectangle width="90" height="80" as="alternateBounds"/>
                    </mxGeometry>
                </mxCell>
                <mxCell id="306" value="s" style="shape=partialRectangle;html=1;whiteSpace=wrap;connectable=0;fillColor=none;top=0;left=0;bottom=0;right=0;overflow=hidden;pointerEvents=1;" parent="304" vertex="1">
                    <mxGeometry x="90" width="40" height="80" as="geometry">
                        <mxRectangle width="40" height="80" as="alternateBounds"/>
                    </mxGeometry>
                </mxCell>
                <mxCell id="307" style="shape=partialRectangle;html=1;whiteSpace=wrap;connectable=0;fillColor=none;top=0;left=0;bottom=0;right=0;overflow=hidden;pointerEvents=1;" parent="304" vertex="1">
                    <mxGeometry x="130" width="120" height="80" as="geometry">
                        <mxRectangle width="120" height="80" as="alternateBounds"/>
                    </mxGeometry>
                </mxCell>
                <mxCell id="308" style="shape=partialRectangle;html=1;whiteSpace=wrap;connectable=0;fillColor=none;top=0;left=0;bottom=0;right=0;overflow=hidden;pointerEvents=1;" parent="304" vertex="1">
                    <mxGeometry x="250" width="120" height="80" as="geometry">
                        <mxRectangle width="120" height="80" as="alternateBounds"/>
                    </mxGeometry>
                </mxCell>
                <mxCell id="309" style="shape=partialRectangle;html=1;whiteSpace=wrap;connectable=0;fillColor=none;top=0;left=0;bottom=0;right=0;overflow=hidden;pointerEvents=1;" parent="304" vertex="1">
                    <mxGeometry x="370" width="120" height="80" as="geometry">
                        <mxRectangle width="120" height="80" as="alternateBounds"/>
                    </mxGeometry>
                </mxCell>
                <mxCell id="310" style="shape=partialRectangle;html=1;whiteSpace=wrap;connectable=0;fillColor=none;top=0;left=0;bottom=0;right=0;overflow=hidden;pointerEvents=1;" parent="304" vertex="1">
                    <mxGeometry x="490" width="120" height="80" as="geometry">
                        <mxRectangle width="120" height="80" as="alternateBounds"/>
                    </mxGeometry>
                </mxCell>
                <mxCell id="312" style="shape=partialRectangle;html=1;whiteSpace=wrap;collapsible=0;dropTarget=0;pointerEvents=0;fillColor=none;top=0;left=0;bottom=0;right=0;points=[[0,0.5],[1,0.5]];portConstraint=eastwest;" parent="17" vertex="1">
                    <mxGeometry y="560" width="610" height="80" as="geometry"/>
                </mxCell>
                <mxCell id="313" value="IsStartedBy" style="shape=partialRectangle;html=1;whiteSpace=wrap;connectable=0;fillColor=none;top=0;left=0;bottom=0;right=0;overflow=hidden;pointerEvents=1;fontSize=12;" parent="312" vertex="1">
                    <mxGeometry width="90" height="80" as="geometry">
                        <mxRectangle width="90" height="80" as="alternateBounds"/>
                    </mxGeometry>
                </mxCell>
                <mxCell id="314" value="S" style="shape=partialRectangle;html=1;whiteSpace=wrap;connectable=0;fillColor=none;top=0;left=0;bottom=0;right=0;overflow=hidden;pointerEvents=1;" parent="312" vertex="1">
                    <mxGeometry x="90" width="40" height="80" as="geometry">
                        <mxRectangle width="40" height="80" as="alternateBounds"/>
                    </mxGeometry>
                </mxCell>
                <mxCell id="315" style="shape=partialRectangle;html=1;whiteSpace=wrap;connectable=0;fillColor=none;top=0;left=0;bottom=0;right=0;overflow=hidden;pointerEvents=1;" parent="312" vertex="1">
                    <mxGeometry x="130" width="120" height="80" as="geometry">
                        <mxRectangle width="120" height="80" as="alternateBounds"/>
                    </mxGeometry>
                </mxCell>
                <mxCell id="316" style="shape=partialRectangle;html=1;whiteSpace=wrap;connectable=0;fillColor=none;top=0;left=0;bottom=0;right=0;overflow=hidden;pointerEvents=1;" parent="312" vertex="1">
                    <mxGeometry x="250" width="120" height="80" as="geometry">
                        <mxRectangle width="120" height="80" as="alternateBounds"/>
                    </mxGeometry>
                </mxCell>
                <mxCell id="317" style="shape=partialRectangle;html=1;whiteSpace=wrap;connectable=0;fillColor=none;top=0;left=0;bottom=0;right=0;overflow=hidden;pointerEvents=1;" parent="312" vertex="1">
                    <mxGeometry x="370" width="120" height="80" as="geometry">
                        <mxRectangle width="120" height="80" as="alternateBounds"/>
                    </mxGeometry>
                </mxCell>
                <mxCell id="318" style="shape=partialRectangle;html=1;whiteSpace=wrap;connectable=0;fillColor=none;top=0;left=0;bottom=0;right=0;overflow=hidden;pointerEvents=1;" parent="312" vertex="1">
                    <mxGeometry x="490" width="120" height="80" as="geometry">
                        <mxRectangle width="120" height="80" as="alternateBounds"/>
                    </mxGeometry>
                </mxCell>
                <mxCell id="227" style="shape=partialRectangle;html=1;whiteSpace=wrap;collapsible=0;dropTarget=0;pointerEvents=0;fillColor=none;top=0;left=0;bottom=0;right=0;points=[[0,0.5],[1,0.5]];portConstraint=eastwest;" parent="17" vertex="1">
                    <mxGeometry y="640" width="610" height="80" as="geometry"/>
                </mxCell>
                <mxCell id="228" value="During" style="shape=partialRectangle;html=1;whiteSpace=wrap;connectable=0;fillColor=none;top=0;left=0;bottom=0;right=0;overflow=hidden;pointerEvents=1;fontSize=12;" parent="227" vertex="1">
                    <mxGeometry width="90" height="80" as="geometry">
                        <mxRectangle width="90" height="80" as="alternateBounds"/>
                    </mxGeometry>
                </mxCell>
                <mxCell id="229" value="d" style="shape=partialRectangle;html=1;whiteSpace=wrap;connectable=0;fillColor=none;top=0;left=0;bottom=0;right=0;overflow=hidden;pointerEvents=1;" parent="227" vertex="1">
                    <mxGeometry x="90" width="40" height="80" as="geometry">
                        <mxRectangle width="40" height="80" as="alternateBounds"/>
                    </mxGeometry>
                </mxCell>
                <mxCell id="230" style="shape=partialRectangle;html=1;whiteSpace=wrap;connectable=0;fillColor=none;top=0;left=0;bottom=0;right=0;overflow=hidden;pointerEvents=1;" parent="227" vertex="1">
                    <mxGeometry x="130" width="120" height="80" as="geometry">
                        <mxRectangle width="120" height="80" as="alternateBounds"/>
                    </mxGeometry>
                </mxCell>
                <mxCell id="231" style="shape=partialRectangle;html=1;whiteSpace=wrap;connectable=0;fillColor=none;top=0;left=0;bottom=0;right=0;overflow=hidden;pointerEvents=1;" parent="227" vertex="1">
                    <mxGeometry x="250" width="120" height="80" as="geometry">
                        <mxRectangle width="120" height="80" as="alternateBounds"/>
                    </mxGeometry>
                </mxCell>
                <mxCell id="232" style="shape=partialRectangle;html=1;whiteSpace=wrap;connectable=0;fillColor=none;top=0;left=0;bottom=0;right=0;overflow=hidden;pointerEvents=1;" parent="227" vertex="1">
                    <mxGeometry x="370" width="120" height="80" as="geometry">
                        <mxRectangle width="120" height="80" as="alternateBounds"/>
                    </mxGeometry>
                </mxCell>
                <mxCell id="233" style="shape=partialRectangle;html=1;whiteSpace=wrap;connectable=0;fillColor=none;top=0;left=0;bottom=0;right=0;overflow=hidden;pointerEvents=1;" parent="227" vertex="1">
                    <mxGeometry x="490" width="120" height="80" as="geometry">
                        <mxRectangle width="120" height="80" as="alternateBounds"/>
                    </mxGeometry>
                </mxCell>
                <mxCell id="235" style="shape=partialRectangle;html=1;whiteSpace=wrap;collapsible=0;dropTarget=0;pointerEvents=0;fillColor=none;top=0;left=0;bottom=0;right=0;points=[[0,0.5],[1,0.5]];portConstraint=eastwest;" parent="17" vertex="1">
                    <mxGeometry y="720" width="610" height="80" as="geometry"/>
                </mxCell>
                <mxCell id="236" value="Contains" style="shape=partialRectangle;html=1;whiteSpace=wrap;connectable=0;fillColor=none;top=0;left=0;bottom=0;right=0;overflow=hidden;pointerEvents=1;fontSize=12;" parent="235" vertex="1">
                    <mxGeometry width="90" height="80" as="geometry">
                        <mxRectangle width="90" height="80" as="alternateBounds"/>
                    </mxGeometry>
                </mxCell>
                <mxCell id="237" value="D" style="shape=partialRectangle;html=1;whiteSpace=wrap;connectable=0;fillColor=none;top=0;left=0;bottom=0;right=0;overflow=hidden;pointerEvents=1;" parent="235" vertex="1">
                    <mxGeometry x="90" width="40" height="80" as="geometry">
                        <mxRectangle width="40" height="80" as="alternateBounds"/>
                    </mxGeometry>
                </mxCell>
                <mxCell id="238" style="shape=partialRectangle;html=1;whiteSpace=wrap;connectable=0;fillColor=none;top=0;left=0;bottom=0;right=0;overflow=hidden;pointerEvents=1;" parent="235" vertex="1">
                    <mxGeometry x="130" width="120" height="80" as="geometry">
                        <mxRectangle width="120" height="80" as="alternateBounds"/>
                    </mxGeometry>
                </mxCell>
                <mxCell id="239" style="shape=partialRectangle;html=1;whiteSpace=wrap;connectable=0;fillColor=none;top=0;left=0;bottom=0;right=0;overflow=hidden;pointerEvents=1;" parent="235" vertex="1">
                    <mxGeometry x="250" width="120" height="80" as="geometry">
                        <mxRectangle width="120" height="80" as="alternateBounds"/>
                    </mxGeometry>
                </mxCell>
                <mxCell id="240" style="shape=partialRectangle;html=1;whiteSpace=wrap;connectable=0;fillColor=none;top=0;left=0;bottom=0;right=0;overflow=hidden;pointerEvents=1;" parent="235" vertex="1">
                    <mxGeometry x="370" width="120" height="80" as="geometry">
                        <mxRectangle width="120" height="80" as="alternateBounds"/>
                    </mxGeometry>
                </mxCell>
                <mxCell id="241" style="shape=partialRectangle;html=1;whiteSpace=wrap;connectable=0;fillColor=none;top=0;left=0;bottom=0;right=0;overflow=hidden;pointerEvents=1;" parent="235" vertex="1">
                    <mxGeometry x="490" width="120" height="80" as="geometry">
                        <mxRectangle width="120" height="80" as="alternateBounds"/>
                    </mxGeometry>
                </mxCell>
                <mxCell id="76ibLKwCJiMoYFnVsPmj-357" style="shape=partialRectangle;html=1;whiteSpace=wrap;collapsible=0;dropTarget=0;pointerEvents=0;fillColor=none;top=0;left=0;bottom=0;right=0;points=[[0,0.5],[1,0.5]];portConstraint=eastwest;" parent="17" vertex="1">
                    <mxGeometry y="800" width="610" height="80" as="geometry"/>
                </mxCell>
                <mxCell id="76ibLKwCJiMoYFnVsPmj-358" value="Finishes" style="shape=partialRectangle;html=1;whiteSpace=wrap;connectable=0;fillColor=none;top=0;left=0;bottom=0;right=0;overflow=hidden;pointerEvents=1;fontSize=12;" parent="76ibLKwCJiMoYFnVsPmj-357" vertex="1">
                    <mxGeometry width="90" height="80" as="geometry">
                        <mxRectangle width="90" height="80" as="alternateBounds"/>
                    </mxGeometry>
                </mxCell>
                <mxCell id="76ibLKwCJiMoYFnVsPmj-359" value="f" style="shape=partialRectangle;html=1;whiteSpace=wrap;connectable=0;fillColor=none;top=0;left=0;bottom=0;right=0;overflow=hidden;pointerEvents=1;" parent="76ibLKwCJiMoYFnVsPmj-357" vertex="1">
                    <mxGeometry x="90" width="40" height="80" as="geometry">
                        <mxRectangle width="40" height="80" as="alternateBounds"/>
                    </mxGeometry>
                </mxCell>
                <mxCell id="76ibLKwCJiMoYFnVsPmj-360" style="shape=partialRectangle;html=1;whiteSpace=wrap;connectable=0;fillColor=none;top=0;left=0;bottom=0;right=0;overflow=hidden;pointerEvents=1;" parent="76ibLKwCJiMoYFnVsPmj-357" vertex="1">
                    <mxGeometry x="130" width="120" height="80" as="geometry">
                        <mxRectangle width="120" height="80" as="alternateBounds"/>
                    </mxGeometry>
                </mxCell>
                <mxCell id="76ibLKwCJiMoYFnVsPmj-361" style="shape=partialRectangle;html=1;whiteSpace=wrap;connectable=0;fillColor=none;top=0;left=0;bottom=0;right=0;overflow=hidden;pointerEvents=1;" parent="76ibLKwCJiMoYFnVsPmj-357" vertex="1">
                    <mxGeometry x="250" width="120" height="80" as="geometry">
                        <mxRectangle width="120" height="80" as="alternateBounds"/>
                    </mxGeometry>
                </mxCell>
                <mxCell id="76ibLKwCJiMoYFnVsPmj-362" style="shape=partialRectangle;html=1;whiteSpace=wrap;connectable=0;fillColor=none;top=0;left=0;bottom=0;right=0;overflow=hidden;pointerEvents=1;" parent="76ibLKwCJiMoYFnVsPmj-357" vertex="1">
                    <mxGeometry x="370" width="120" height="80" as="geometry">
                        <mxRectangle width="120" height="80" as="alternateBounds"/>
                    </mxGeometry>
                </mxCell>
                <mxCell id="76ibLKwCJiMoYFnVsPmj-363" style="shape=partialRectangle;html=1;whiteSpace=wrap;connectable=0;fillColor=none;top=0;left=0;bottom=0;right=0;overflow=hidden;pointerEvents=1;" parent="76ibLKwCJiMoYFnVsPmj-357" vertex="1">
                    <mxGeometry x="490" width="120" height="80" as="geometry">
                        <mxRectangle width="120" height="80" as="alternateBounds"/>
                    </mxGeometry>
                </mxCell>
                <mxCell id="76ibLKwCJiMoYFnVsPmj-365" style="shape=partialRectangle;html=1;whiteSpace=wrap;collapsible=0;dropTarget=0;pointerEvents=0;fillColor=none;top=0;left=0;bottom=0;right=0;points=[[0,0.5],[1,0.5]];portConstraint=eastwest;" parent="17" vertex="1">
                    <mxGeometry y="880" width="610" height="80" as="geometry"/>
                </mxCell>
                <mxCell id="76ibLKwCJiMoYFnVsPmj-366" value="IsFinishedBy" style="shape=partialRectangle;html=1;whiteSpace=wrap;connectable=0;fillColor=none;top=0;left=0;bottom=0;right=0;overflow=hidden;pointerEvents=1;fontSize=12;" parent="76ibLKwCJiMoYFnVsPmj-365" vertex="1">
                    <mxGeometry width="90" height="80" as="geometry">
                        <mxRectangle width="90" height="80" as="alternateBounds"/>
                    </mxGeometry>
                </mxCell>
                <mxCell id="76ibLKwCJiMoYFnVsPmj-367" value="F" style="shape=partialRectangle;html=1;whiteSpace=wrap;connectable=0;fillColor=none;top=0;left=0;bottom=0;right=0;overflow=hidden;pointerEvents=1;" parent="76ibLKwCJiMoYFnVsPmj-365" vertex="1">
                    <mxGeometry x="90" width="40" height="80" as="geometry">
                        <mxRectangle width="40" height="80" as="alternateBounds"/>
                    </mxGeometry>
                </mxCell>
                <mxCell id="76ibLKwCJiMoYFnVsPmj-368" style="shape=partialRectangle;html=1;whiteSpace=wrap;connectable=0;fillColor=none;top=0;left=0;bottom=0;right=0;overflow=hidden;pointerEvents=1;" parent="76ibLKwCJiMoYFnVsPmj-365" vertex="1">
                    <mxGeometry x="130" width="120" height="80" as="geometry">
                        <mxRectangle width="120" height="80" as="alternateBounds"/>
                    </mxGeometry>
                </mxCell>
                <mxCell id="76ibLKwCJiMoYFnVsPmj-369" style="shape=partialRectangle;html=1;whiteSpace=wrap;connectable=0;fillColor=none;top=0;left=0;bottom=0;right=0;overflow=hidden;pointerEvents=1;" parent="76ibLKwCJiMoYFnVsPmj-365" vertex="1">
                    <mxGeometry x="250" width="120" height="80" as="geometry">
                        <mxRectangle width="120" height="80" as="alternateBounds"/>
                    </mxGeometry>
                </mxCell>
                <mxCell id="76ibLKwCJiMoYFnVsPmj-370" style="shape=partialRectangle;html=1;whiteSpace=wrap;connectable=0;fillColor=none;top=0;left=0;bottom=0;right=0;overflow=hidden;pointerEvents=1;" parent="76ibLKwCJiMoYFnVsPmj-365" vertex="1">
                    <mxGeometry x="370" width="120" height="80" as="geometry">
                        <mxRectangle width="120" height="80" as="alternateBounds"/>
                    </mxGeometry>
                </mxCell>
                <mxCell id="76ibLKwCJiMoYFnVsPmj-371" style="shape=partialRectangle;html=1;whiteSpace=wrap;connectable=0;fillColor=none;top=0;left=0;bottom=0;right=0;overflow=hidden;pointerEvents=1;" parent="76ibLKwCJiMoYFnVsPmj-365" vertex="1">
                    <mxGeometry x="490" width="120" height="80" as="geometry">
                        <mxRectangle width="120" height="80" as="alternateBounds"/>
                    </mxGeometry>
                </mxCell>
                <mxCell id="76ibLKwCJiMoYFnVsPmj-401" style="shape=partialRectangle;html=1;whiteSpace=wrap;collapsible=0;dropTarget=0;pointerEvents=0;fillColor=none;top=0;left=0;bottom=0;right=0;points=[[0,0.5],[1,0.5]];portConstraint=eastwest;" parent="17" vertex="1">
                    <mxGeometry y="960" width="610" height="80" as="geometry"/>
                </mxCell>
                <mxCell id="76ibLKwCJiMoYFnVsPmj-402" value="EqualsTo" style="shape=partialRectangle;html=1;whiteSpace=wrap;connectable=0;fillColor=none;top=0;left=0;bottom=0;right=0;overflow=hidden;pointerEvents=1;fontSize=12;" parent="76ibLKwCJiMoYFnVsPmj-401" vertex="1">
                    <mxGeometry width="90" height="80" as="geometry">
                        <mxRectangle width="90" height="80" as="alternateBounds"/>
                    </mxGeometry>
                </mxCell>
                <mxCell id="76ibLKwCJiMoYFnVsPmj-403" value="e" style="shape=partialRectangle;html=1;whiteSpace=wrap;connectable=0;fillColor=none;top=0;left=0;bottom=0;right=0;overflow=hidden;pointerEvents=1;" parent="76ibLKwCJiMoYFnVsPmj-401" vertex="1">
                    <mxGeometry x="90" width="40" height="80" as="geometry">
                        <mxRectangle width="40" height="80" as="alternateBounds"/>
                    </mxGeometry>
                </mxCell>
                <mxCell id="76ibLKwCJiMoYFnVsPmj-404" style="shape=partialRectangle;html=1;whiteSpace=wrap;connectable=0;fillColor=none;top=0;left=0;bottom=0;right=0;overflow=hidden;pointerEvents=1;" parent="76ibLKwCJiMoYFnVsPmj-401" vertex="1">
                    <mxGeometry x="130" width="120" height="80" as="geometry">
                        <mxRectangle width="120" height="80" as="alternateBounds"/>
                    </mxGeometry>
                </mxCell>
                <mxCell id="76ibLKwCJiMoYFnVsPmj-405" style="shape=partialRectangle;html=1;whiteSpace=wrap;connectable=0;fillColor=none;top=0;left=0;bottom=0;right=0;overflow=hidden;pointerEvents=1;" parent="76ibLKwCJiMoYFnVsPmj-401" vertex="1">
                    <mxGeometry x="250" width="120" height="80" as="geometry">
                        <mxRectangle width="120" height="80" as="alternateBounds"/>
                    </mxGeometry>
                </mxCell>
                <mxCell id="76ibLKwCJiMoYFnVsPmj-406" style="shape=partialRectangle;html=1;whiteSpace=wrap;connectable=0;fillColor=none;top=0;left=0;bottom=0;right=0;overflow=hidden;pointerEvents=1;" parent="76ibLKwCJiMoYFnVsPmj-401" vertex="1">
                    <mxGeometry x="370" width="120" height="80" as="geometry">
                        <mxRectangle width="120" height="80" as="alternateBounds"/>
                    </mxGeometry>
                </mxCell>
                <mxCell id="76ibLKwCJiMoYFnVsPmj-407" style="shape=partialRectangle;html=1;whiteSpace=wrap;connectable=0;fillColor=none;top=0;left=0;bottom=0;right=0;overflow=hidden;pointerEvents=1;" parent="76ibLKwCJiMoYFnVsPmj-401" vertex="1">
                    <mxGeometry x="490" width="120" height="80" as="geometry">
                        <mxRectangle width="120" height="80" as="alternateBounds"/>
                    </mxGeometry>
                </mxCell>
                <mxCell id="81" value="" style="group" parent="1" vertex="1" connectable="0">
                    <mxGeometry x="160" y="60" width="120" height="40" as="geometry"/>
                </mxCell>
                <mxCell id="73" value="" style="group" parent="81" vertex="1" connectable="0">
                    <mxGeometry width="60" height="20" as="geometry"/>
                </mxCell>
                <object label="" first="a-" last="a+" id="74">
                    <mxCell style="shape=crossbar;whiteSpace=wrap;html=1;rounded=1;strokeWidth=2;" parent="73" vertex="1">
                        <mxGeometry x="10" width="40" height="10" as="geometry"/>
                    </mxCell>
                </object>
                <mxCell id="75" value="a-" style="text;strokeColor=none;fillColor=none;html=1;fontSize=12;fontStyle=1;verticalAlign=middle;align=center;" parent="73" vertex="1">
                    <mxGeometry y="10" width="20" height="10" as="geometry"/>
                </mxCell>
                <mxCell id="76" value="a+" style="text;strokeColor=none;fillColor=none;html=1;fontSize=12;fontStyle=1;verticalAlign=middle;align=center;" parent="73" vertex="1">
                    <mxGeometry x="40" y="10" width="20" height="10" as="geometry"/>
                </mxCell>
                <mxCell id="77" value="" style="group" parent="81" vertex="1" connectable="0">
                    <mxGeometry x="60" y="20" width="60" height="20" as="geometry"/>
                </mxCell>
                <object label="" first="a-" last="a+" id="78">
                    <mxCell style="shape=crossbar;whiteSpace=wrap;html=1;rounded=1;strokeWidth=2;" parent="77" vertex="1">
                        <mxGeometry x="10" width="40" height="10" as="geometry"/>
                    </mxCell>
                </object>
                <mxCell id="79" value="b-" style="text;strokeColor=none;fillColor=none;html=1;fontSize=12;fontStyle=1;verticalAlign=middle;align=center;" parent="77" vertex="1">
                    <mxGeometry y="10" width="20" height="10" as="geometry"/>
                </mxCell>
                <mxCell id="80" value="b+" style="text;strokeColor=none;fillColor=none;html=1;fontSize=12;fontStyle=1;verticalAlign=middle;align=center;" parent="77" vertex="1">
                    <mxGeometry x="40" y="10" width="20" height="10" as="geometry"/>
                </mxCell>
                <mxCell id="97" value="" style="group" parent="1" vertex="1" connectable="0">
                    <mxGeometry x="160" y="140" width="120" height="40" as="geometry"/>
                </mxCell>
                <mxCell id="89" value="" style="group" parent="97" vertex="1" connectable="0">
                    <mxGeometry x="60" width="60" height="20" as="geometry"/>
                </mxCell>
                <object label="" first="a-" last="a+" id="90">
                    <mxCell style="shape=crossbar;whiteSpace=wrap;html=1;rounded=1;strokeWidth=2;" parent="89" vertex="1">
                        <mxGeometry x="10" width="40" height="10" as="geometry"/>
                    </mxCell>
                </object>
                <mxCell id="91" value="a-" style="text;strokeColor=none;fillColor=none;html=1;fontSize=12;fontStyle=1;verticalAlign=middle;align=center;" parent="89" vertex="1">
                    <mxGeometry y="10" width="20" height="10" as="geometry"/>
                </mxCell>
                <mxCell id="92" value="a+" style="text;strokeColor=none;fillColor=none;html=1;fontSize=12;fontStyle=1;verticalAlign=middle;align=center;" parent="89" vertex="1">
                    <mxGeometry x="40" y="10" width="20" height="10" as="geometry"/>
                </mxCell>
                <mxCell id="93" value="" style="group" parent="97" vertex="1" connectable="0">
                    <mxGeometry y="20" width="60" height="20" as="geometry"/>
                </mxCell>
                <object label="" first="a-" last="a+" id="94">
                    <mxCell style="shape=crossbar;whiteSpace=wrap;html=1;rounded=1;strokeWidth=2;" parent="93" vertex="1">
                        <mxGeometry x="10" width="40" height="10" as="geometry"/>
                    </mxCell>
                </object>
                <mxCell id="95" value="b-" style="text;strokeColor=none;fillColor=none;html=1;fontSize=12;fontStyle=1;verticalAlign=middle;align=center;" parent="93" vertex="1">
                    <mxGeometry y="10" width="20" height="10" as="geometry"/>
                </mxCell>
                <mxCell id="96" value="b+" style="text;strokeColor=none;fillColor=none;html=1;fontSize=12;fontStyle=1;verticalAlign=middle;align=center;" parent="93" vertex="1">
                    <mxGeometry x="40" y="10" width="20" height="10" as="geometry"/>
                </mxCell>
                <mxCell id="105" value="" style="group" parent="1" vertex="1" connectable="0">
                    <mxGeometry x="290" y="60" width="90" height="40" as="geometry"/>
                </mxCell>
                <mxCell id="98" value="" style="group" parent="105" vertex="1" connectable="0">
                    <mxGeometry width="60" height="20" as="geometry"/>
                </mxCell>
                <object label="" first="a-" last="a+" id="99">
                    <mxCell style="shape=crossbar;whiteSpace=wrap;html=1;rounded=1;strokeWidth=2;" parent="98" vertex="1">
                        <mxGeometry x="10" width="40" height="10" as="geometry"/>
                    </mxCell>
                </object>
                <mxCell id="100" value="a-" style="text;strokeColor=none;fillColor=none;html=1;fontSize=12;fontStyle=1;verticalAlign=middle;align=center;" parent="98" vertex="1">
                    <mxGeometry y="10" width="20" height="10" as="geometry"/>
                </mxCell>
                <mxCell id="101" value="a+" style="text;strokeColor=none;fillColor=none;html=1;fontSize=12;fontStyle=1;verticalAlign=middle;align=center;" parent="98" vertex="1">
                    <mxGeometry x="40" y="10" width="20" height="10" as="geometry"/>
                </mxCell>
                <mxCell id="102" value="" style="group" parent="105" vertex="1" connectable="0">
                    <mxGeometry x="50" width="40" height="40" as="geometry"/>
                </mxCell>
                <mxCell id="103" value="" style="shape=waypoint;sketch=0;fillStyle=solid;size=6;pointerEvents=1;points=[];fillColor=none;resizable=0;rotatable=0;perimeter=centerPerimeter;snapToPoint=1;fontSize=12;strokeColor=#000000;strokeWidth=1;" parent="102" vertex="1">
                    <mxGeometry width="40" height="40" as="geometry"/>
                </mxCell>
                <mxCell id="104" value="p" style="text;strokeColor=none;fillColor=none;html=1;fontSize=12;fontStyle=1;verticalAlign=middle;align=center;" parent="102" vertex="1">
                    <mxGeometry x="10" y="30" width="20" height="10" as="geometry"/>
                </mxCell>
                <mxCell id="116" value="" style="group" parent="1" vertex="1" connectable="0">
                    <mxGeometry x="290" y="140" width="90" height="40" as="geometry"/>
                </mxCell>
                <mxCell id="107" value="" style="group" parent="116" vertex="1" connectable="0">
                    <mxGeometry width="40" height="40" as="geometry"/>
                </mxCell>
                <mxCell id="108" value="" style="shape=waypoint;sketch=0;fillStyle=solid;size=6;pointerEvents=1;points=[];fillColor=none;resizable=0;rotatable=0;perimeter=centerPerimeter;snapToPoint=1;fontSize=12;strokeColor=#000000;strokeWidth=1;" parent="107" vertex="1">
                    <mxGeometry width="40" height="40" as="geometry"/>
                </mxCell>
                <mxCell id="109" value="p" style="text;strokeColor=none;fillColor=none;html=1;fontSize=12;fontStyle=1;verticalAlign=middle;align=center;" parent="107" vertex="1">
                    <mxGeometry x="10" y="30" width="20" height="10" as="geometry"/>
                </mxCell>
                <mxCell id="110" value="" style="group" parent="116" vertex="1" connectable="0">
                    <mxGeometry x="30" width="60" height="20" as="geometry"/>
                </mxCell>
                <object label="" first="a-" last="a+" id="111">
                    <mxCell style="shape=crossbar;whiteSpace=wrap;html=1;rounded=1;strokeWidth=2;" parent="110" vertex="1">
                        <mxGeometry x="10" width="40" height="10" as="geometry"/>
                    </mxCell>
                </object>
                <mxCell id="112" value="a-" style="text;strokeColor=none;fillColor=none;html=1;fontSize=12;fontStyle=1;verticalAlign=middle;align=center;" parent="110" vertex="1">
                    <mxGeometry y="10" width="20" height="10" as="geometry"/>
                </mxCell>
                <mxCell id="113" value="a+" style="text;strokeColor=none;fillColor=none;html=1;fontSize=12;fontStyle=1;verticalAlign=middle;align=center;" parent="110" vertex="1">
                    <mxGeometry x="40" y="10" width="20" height="10" as="geometry"/>
                </mxCell>
                <mxCell id="127" value="" style="group" parent="1" vertex="1" connectable="0">
                    <mxGeometry x="410" y="60" width="90" height="40" as="geometry"/>
                </mxCell>
                <mxCell id="118" value="" style="shape=waypoint;sketch=0;fillStyle=solid;size=6;pointerEvents=1;points=[];fillColor=none;resizable=0;rotatable=0;perimeter=centerPerimeter;snapToPoint=1;fontSize=12;strokeColor=#000000;strokeWidth=1;container=0;" parent="127" vertex="1">
                    <mxGeometry width="40" height="40" as="geometry"/>
                </mxCell>
                <mxCell id="119" value="p" style="text;strokeColor=none;fillColor=none;html=1;fontSize=12;fontStyle=1;verticalAlign=middle;align=center;container=0;" parent="127" vertex="1">
                    <mxGeometry x="10" y="30" width="20" height="10" as="geometry"/>
                </mxCell>
                <object label="" first="a-" last="a+" id="121">
                    <mxCell style="shape=crossbar;whiteSpace=wrap;html=1;rounded=1;strokeWidth=2;container=0;" parent="127" vertex="1">
                        <mxGeometry x="40" width="40" height="10" as="geometry"/>
                    </mxCell>
                </object>
                <mxCell id="122" value="b-" style="text;strokeColor=none;fillColor=none;html=1;fontSize=12;fontStyle=1;verticalAlign=middle;align=center;container=0;" parent="127" vertex="1">
                    <mxGeometry x="30" y="10" width="20" height="10" as="geometry"/>
                </mxCell>
                <mxCell id="123" value="b+" style="text;strokeColor=none;fillColor=none;html=1;fontSize=12;fontStyle=1;verticalAlign=middle;align=center;container=0;" parent="127" vertex="1">
                    <mxGeometry x="70" y="10" width="20" height="10" as="geometry"/>
                </mxCell>
                <mxCell id="140" value="" style="group" parent="1" vertex="1" connectable="0">
                    <mxGeometry x="410" y="140" width="90" height="40" as="geometry"/>
                </mxCell>
                <mxCell id="135" value="" style="shape=waypoint;sketch=0;fillStyle=solid;size=6;pointerEvents=1;points=[];fillColor=none;resizable=0;rotatable=0;perimeter=centerPerimeter;snapToPoint=1;fontSize=12;strokeColor=#000000;strokeWidth=1;container=0;" parent="140" vertex="1">
                    <mxGeometry x="50" width="40" height="40" as="geometry"/>
                </mxCell>
                <mxCell id="136" value="p" style="text;strokeColor=none;fillColor=none;html=1;fontSize=12;fontStyle=1;verticalAlign=middle;align=center;container=0;" parent="140" vertex="1">
                    <mxGeometry x="60" y="30" width="20" height="10" as="geometry"/>
                </mxCell>
                <object label="" first="a-" last="a+" id="137">
                    <mxCell style="shape=crossbar;whiteSpace=wrap;html=1;rounded=1;strokeWidth=2;container=0;" parent="140" vertex="1">
                        <mxGeometry x="10" width="40" height="10" as="geometry"/>
                    </mxCell>
                </object>
                <mxCell id="138" value="b-" style="text;strokeColor=none;fillColor=none;html=1;fontSize=12;fontStyle=1;verticalAlign=middle;align=center;container=0;" parent="140" vertex="1">
                    <mxGeometry y="10" width="20" height="10" as="geometry"/>
                </mxCell>
                <mxCell id="139" value="b+" style="text;strokeColor=none;fillColor=none;html=1;fontSize=12;fontStyle=1;verticalAlign=middle;align=center;container=0;" parent="140" vertex="1">
                    <mxGeometry x="40" y="10" width="20" height="10" as="geometry"/>
                </mxCell>
                <mxCell id="148" value="" style="group" parent="1" vertex="1" connectable="0">
                    <mxGeometry x="540" y="50" width="70" height="50" as="geometry"/>
                </mxCell>
                <mxCell id="149" value="" style="group" parent="148" vertex="1" connectable="0">
                    <mxGeometry width="40" height="40" as="geometry"/>
                </mxCell>
                <mxCell id="150" value="" style="shape=waypoint;sketch=0;fillStyle=solid;size=6;pointerEvents=1;points=[];fillColor=none;resizable=0;rotatable=0;perimeter=centerPerimeter;snapToPoint=1;fontSize=12;strokeColor=#000000;strokeWidth=1;" parent="149" vertex="1">
                    <mxGeometry width="40" height="40" as="geometry"/>
                </mxCell>
                <mxCell id="151" value="p" style="text;strokeColor=none;fillColor=none;html=1;fontSize=12;fontStyle=1;verticalAlign=middle;align=center;" parent="149" vertex="1">
                    <mxGeometry x="10" y="30" width="20" height="10" as="geometry"/>
                </mxCell>
                <mxCell id="152" value="" style="group" parent="148" vertex="1" connectable="0">
                    <mxGeometry x="30" y="10" width="40" height="40" as="geometry"/>
                </mxCell>
                <mxCell id="153" value="" style="shape=waypoint;sketch=0;fillStyle=solid;size=6;pointerEvents=1;points=[];fillColor=none;resizable=0;rotatable=0;perimeter=centerPerimeter;snapToPoint=1;fontSize=12;strokeColor=#000000;strokeWidth=1;" parent="152" vertex="1">
                    <mxGeometry width="40" height="40" as="geometry"/>
                </mxCell>
                <mxCell id="154" value="q" style="text;strokeColor=none;fillColor=none;html=1;fontSize=12;fontStyle=1;verticalAlign=middle;align=center;" parent="152" vertex="1">
                    <mxGeometry x="10" y="30" width="20" height="10" as="geometry"/>
                </mxCell>
                <mxCell id="155" value="" style="group" parent="1" vertex="1" connectable="0">
                    <mxGeometry x="540" y="130" width="70" height="50" as="geometry"/>
                </mxCell>
                <mxCell id="142" value="" style="shape=waypoint;sketch=0;fillStyle=solid;size=6;pointerEvents=1;points=[];fillColor=none;resizable=0;rotatable=0;perimeter=centerPerimeter;snapToPoint=1;fontSize=12;strokeColor=#000000;strokeWidth=1;container=0;" parent="155" vertex="1">
                    <mxGeometry x="30" width="40" height="40" as="geometry"/>
                </mxCell>
                <mxCell id="143" value="p" style="text;strokeColor=none;fillColor=none;html=1;fontSize=12;fontStyle=1;verticalAlign=middle;align=center;container=0;" parent="155" vertex="1">
                    <mxGeometry x="40" y="30" width="20" height="10" as="geometry"/>
                </mxCell>
                <mxCell id="145" value="" style="shape=waypoint;sketch=0;fillStyle=solid;size=6;pointerEvents=1;points=[];fillColor=none;resizable=0;rotatable=0;perimeter=centerPerimeter;snapToPoint=1;fontSize=12;strokeColor=#000000;strokeWidth=1;container=0;" parent="155" vertex="1">
                    <mxGeometry y="10" width="40" height="40" as="geometry"/>
                </mxCell>
                <mxCell id="146" value="q" style="text;strokeColor=none;fillColor=none;html=1;fontSize=12;fontStyle=1;verticalAlign=middle;align=center;container=0;" parent="155" vertex="1">
                    <mxGeometry x="10" y="40" width="20" height="10" as="geometry"/>
                </mxCell>
                <mxCell id="182" value="" style="group" parent="1" vertex="1" connectable="0">
                    <mxGeometry x="160" y="220" width="100" height="50" as="geometry"/>
                </mxCell>
                <mxCell id="183" value="" style="group" parent="182" vertex="1" connectable="0">
                    <mxGeometry width="60" height="20" as="geometry"/>
                </mxCell>
                <object label="" first="a-" last="a+" id="184">
                    <mxCell style="shape=crossbar;whiteSpace=wrap;html=1;rounded=1;strokeWidth=2;" parent="183" vertex="1">
                        <mxGeometry x="10" width="40" height="10" as="geometry"/>
                    </mxCell>
                </object>
                <mxCell id="185" value="a-" style="text;strokeColor=none;fillColor=none;html=1;fontSize=12;fontStyle=1;verticalAlign=middle;align=center;" parent="183" vertex="1">
                    <mxGeometry y="10" width="20" height="10" as="geometry"/>
                </mxCell>
                <mxCell id="186" value="a+" style="text;strokeColor=none;fillColor=none;html=1;fontSize=12;fontStyle=1;verticalAlign=middle;align=center;" parent="183" vertex="1">
                    <mxGeometry x="40" y="10" width="20" height="10" as="geometry"/>
                </mxCell>
                <mxCell id="187" value="" style="group" parent="182" vertex="1" connectable="0">
                    <mxGeometry x="40" y="30" width="60" height="20" as="geometry"/>
                </mxCell>
                <object label="" first="a-" last="a+" id="188">
                    <mxCell style="shape=crossbar;whiteSpace=wrap;html=1;rounded=1;strokeWidth=2;" parent="187" vertex="1">
                        <mxGeometry x="10" width="40" height="10" as="geometry"/>
                    </mxCell>
                </object>
                <mxCell id="189" value="b-" style="text;strokeColor=none;fillColor=none;html=1;fontSize=12;fontStyle=1;verticalAlign=middle;align=center;" parent="187" vertex="1">
                    <mxGeometry y="10" width="20" height="10" as="geometry"/>
                </mxCell>
                <mxCell id="190" value="b+" style="text;strokeColor=none;fillColor=none;html=1;fontSize=12;fontStyle=1;verticalAlign=middle;align=center;" parent="187" vertex="1">
                    <mxGeometry x="40" y="10" width="20" height="10" as="geometry"/>
                </mxCell>
                <mxCell id="191" value="" style="group" parent="1" vertex="1" connectable="0">
                    <mxGeometry x="160" y="300" width="100" height="50" as="geometry"/>
                </mxCell>
                <mxCell id="173" value="" style="group" parent="191" vertex="1" connectable="0">
                    <mxGeometry x="40" width="60" height="20" as="geometry"/>
                </mxCell>
                <object label="" first="a-" last="a+" id="174">
                    <mxCell style="shape=crossbar;whiteSpace=wrap;html=1;rounded=1;strokeWidth=2;" parent="173" vertex="1">
                        <mxGeometry x="10" width="40" height="10" as="geometry"/>
                    </mxCell>
                </object>
                <mxCell id="175" value="a-" style="text;strokeColor=none;fillColor=none;html=1;fontSize=12;fontStyle=1;verticalAlign=middle;align=center;" parent="173" vertex="1">
                    <mxGeometry y="10" width="20" height="10" as="geometry"/>
                </mxCell>
                <mxCell id="176" value="a+" style="text;strokeColor=none;fillColor=none;html=1;fontSize=12;fontStyle=1;verticalAlign=middle;align=center;" parent="173" vertex="1">
                    <mxGeometry x="40" y="10" width="20" height="10" as="geometry"/>
                </mxCell>
                <mxCell id="177" value="" style="group" parent="191" vertex="1" connectable="0">
                    <mxGeometry y="30" width="60" height="20" as="geometry"/>
                </mxCell>
                <object label="" first="a-" last="a+" id="178">
                    <mxCell style="shape=crossbar;whiteSpace=wrap;html=1;rounded=1;strokeWidth=2;" parent="177" vertex="1">
                        <mxGeometry x="10" width="40" height="10" as="geometry"/>
                    </mxCell>
                </object>
                <mxCell id="179" value="b-" style="text;strokeColor=none;fillColor=none;html=1;fontSize=12;fontStyle=1;verticalAlign=middle;align=center;" parent="177" vertex="1">
                    <mxGeometry y="10" width="20" height="10" as="geometry"/>
                </mxCell>
                <mxCell id="180" value="b+" style="text;strokeColor=none;fillColor=none;html=1;fontSize=12;fontStyle=1;verticalAlign=middle;align=center;" parent="177" vertex="1">
                    <mxGeometry x="40" y="10" width="20" height="10" as="geometry"/>
                </mxCell>
                <mxCell id="216" value="" style="group" parent="1" vertex="1" connectable="0">
                    <mxGeometry x="180" y="380" width="80" height="40" as="geometry"/>
                </mxCell>
                <mxCell id="208" value="" style="group" parent="216" vertex="1" connectable="0">
                    <mxGeometry width="60" height="20" as="geometry"/>
                </mxCell>
                <object label="" first="a-" last="a+" id="209">
                    <mxCell style="shape=crossbar;whiteSpace=wrap;html=1;rounded=1;strokeWidth=2;" parent="208" vertex="1">
                        <mxGeometry x="10" width="40" height="10" as="geometry"/>
                    </mxCell>
                </object>
                <mxCell id="210" value="a-" style="text;strokeColor=none;fillColor=none;html=1;fontSize=12;fontStyle=1;verticalAlign=middle;align=center;" parent="208" vertex="1">
                    <mxGeometry y="10" width="20" height="10" as="geometry"/>
                </mxCell>
                <mxCell id="211" value="a+" style="text;strokeColor=none;fillColor=none;html=1;fontSize=12;fontStyle=1;verticalAlign=middle;align=center;" parent="208" vertex="1">
                    <mxGeometry x="40" y="10" width="20" height="10" as="geometry"/>
                </mxCell>
                <mxCell id="212" value="" style="group" parent="216" vertex="1" connectable="0">
                    <mxGeometry x="20" y="20" width="60" height="20" as="geometry"/>
                </mxCell>
                <object label="" first="a-" last="a+" id="213">
                    <mxCell style="shape=crossbar;whiteSpace=wrap;html=1;rounded=1;strokeWidth=2;" parent="212" vertex="1">
                        <mxGeometry x="10" width="40" height="10" as="geometry"/>
                    </mxCell>
                </object>
                <mxCell id="214" value="b-" style="text;strokeColor=none;fillColor=none;html=1;fontSize=12;fontStyle=1;verticalAlign=middle;align=center;" parent="212" vertex="1">
                    <mxGeometry y="10" width="20" height="10" as="geometry"/>
                </mxCell>
                <mxCell id="215" value="b+" style="text;strokeColor=none;fillColor=none;html=1;fontSize=12;fontStyle=1;verticalAlign=middle;align=center;" parent="212" vertex="1">
                    <mxGeometry x="40" y="10" width="20" height="10" as="geometry"/>
                </mxCell>
                <mxCell id="226" value="" style="group" parent="1" vertex="1" connectable="0">
                    <mxGeometry x="180" y="460" width="80" height="40" as="geometry"/>
                </mxCell>
                <object label="" first="a-" last="a+" id="219">
                    <mxCell style="shape=crossbar;whiteSpace=wrap;html=1;rounded=1;strokeWidth=2;container=0;" parent="226" vertex="1">
                        <mxGeometry x="30" width="40" height="10" as="geometry"/>
                    </mxCell>
                </object>
                <mxCell id="220" value="a-" style="text;strokeColor=none;fillColor=none;html=1;fontSize=12;fontStyle=1;verticalAlign=middle;align=center;container=0;" parent="226" vertex="1">
                    <mxGeometry x="20" y="10" width="20" height="10" as="geometry"/>
                </mxCell>
                <mxCell id="221" value="a+" style="text;strokeColor=none;fillColor=none;html=1;fontSize=12;fontStyle=1;verticalAlign=middle;align=center;container=0;" parent="226" vertex="1">
                    <mxGeometry x="60" y="10" width="20" height="10" as="geometry"/>
                </mxCell>
                <object label="" first="a-" last="a+" id="223">
                    <mxCell style="shape=crossbar;whiteSpace=wrap;html=1;rounded=1;strokeWidth=2;container=0;" parent="226" vertex="1">
                        <mxGeometry x="10" y="20" width="40" height="10" as="geometry"/>
                    </mxCell>
                </object>
                <mxCell id="224" value="b-" style="text;strokeColor=none;fillColor=none;html=1;fontSize=12;fontStyle=1;verticalAlign=middle;align=center;container=0;" parent="226" vertex="1">
                    <mxGeometry y="30" width="20" height="10" as="geometry"/>
                </mxCell>
                <mxCell id="225" value="b+" style="text;strokeColor=none;fillColor=none;html=1;fontSize=12;fontStyle=1;verticalAlign=middle;align=center;container=0;" parent="226" vertex="1">
                    <mxGeometry x="40" y="30" width="20" height="10" as="geometry"/>
                </mxCell>
                <mxCell id="76ibLKwCJiMoYFnVsPmj-379" value="" style="group" parent="1" vertex="1" connectable="0">
                    <mxGeometry x="170" y="860" width="100" height="50" as="geometry"/>
                </mxCell>
                <object label="" first="a-" last="a+" id="76ibLKwCJiMoYFnVsPmj-373">
                    <mxCell style="shape=crossbar;whiteSpace=wrap;html=1;rounded=1;strokeWidth=2;" parent="76ibLKwCJiMoYFnVsPmj-379" vertex="1">
                        <mxGeometry x="10" y="30" width="80" height="10" as="geometry"/>
                    </mxCell>
                </object>
                <mxCell id="76ibLKwCJiMoYFnVsPmj-374" value="b-" style="text;strokeColor=none;fillColor=none;html=1;fontSize=12;fontStyle=1;verticalAlign=middle;align=center;" parent="76ibLKwCJiMoYFnVsPmj-379" vertex="1">
                    <mxGeometry y="40" width="20" height="10" as="geometry"/>
                </mxCell>
                <mxCell id="76ibLKwCJiMoYFnVsPmj-375" value="b+" style="text;strokeColor=none;fillColor=none;html=1;fontSize=12;fontStyle=1;verticalAlign=middle;align=center;" parent="76ibLKwCJiMoYFnVsPmj-379" vertex="1">
                    <mxGeometry x="80" y="40" width="20" height="10" as="geometry"/>
                </mxCell>
                <object label="" first="a-" last="a+" id="76ibLKwCJiMoYFnVsPmj-376">
                    <mxCell style="shape=crossbar;whiteSpace=wrap;html=1;rounded=1;strokeWidth=2;container=0;" parent="76ibLKwCJiMoYFnVsPmj-379" vertex="1">
                        <mxGeometry x="50" width="40" height="10" as="geometry"/>
                    </mxCell>
                </object>
                <mxCell id="76ibLKwCJiMoYFnVsPmj-377" value="a-" style="text;strokeColor=none;fillColor=none;html=1;fontSize=12;fontStyle=1;verticalAlign=middle;align=center;container=0;" parent="76ibLKwCJiMoYFnVsPmj-379" vertex="1">
                    <mxGeometry x="40" y="10" width="20" height="10" as="geometry"/>
                </mxCell>
                <mxCell id="76ibLKwCJiMoYFnVsPmj-378" value="a+" style="text;strokeColor=none;fillColor=none;html=1;fontSize=12;fontStyle=1;verticalAlign=middle;align=center;container=0;" parent="76ibLKwCJiMoYFnVsPmj-379" vertex="1">
                    <mxGeometry x="80" y="10" width="20" height="10" as="geometry"/>
                </mxCell>
                <mxCell id="76ibLKwCJiMoYFnVsPmj-386" value="" style="group" parent="1" vertex="1" connectable="0">
                    <mxGeometry x="290" y="840" width="110" height="70" as="geometry"/>
                </mxCell>
                <object label="" first="a-" last="a+" id="76ibLKwCJiMoYFnVsPmj-380">
                    <mxCell style="shape=crossbar;whiteSpace=wrap;html=1;rounded=1;strokeWidth=2;" parent="76ibLKwCJiMoYFnVsPmj-386" vertex="1">
                        <mxGeometry x="10" y="50" width="80" height="10" as="geometry"/>
                    </mxCell>
                </object>
                <mxCell id="76ibLKwCJiMoYFnVsPmj-381" value="b-" style="text;strokeColor=none;fillColor=none;html=1;fontSize=12;fontStyle=1;verticalAlign=middle;align=center;" parent="76ibLKwCJiMoYFnVsPmj-386" vertex="1">
                    <mxGeometry y="60" width="20" height="10" as="geometry"/>
                </mxCell>
                <mxCell id="76ibLKwCJiMoYFnVsPmj-382" value="b+" style="text;strokeColor=none;fillColor=none;html=1;fontSize=12;fontStyle=1;verticalAlign=middle;align=center;" parent="76ibLKwCJiMoYFnVsPmj-386" vertex="1">
                    <mxGeometry x="80" y="60" width="20" height="10" as="geometry"/>
                </mxCell>
                <mxCell id="76ibLKwCJiMoYFnVsPmj-383" value="" style="group" parent="76ibLKwCJiMoYFnVsPmj-386" vertex="1" connectable="0">
                    <mxGeometry x="70" width="40" height="40" as="geometry"/>
                </mxCell>
                <mxCell id="76ibLKwCJiMoYFnVsPmj-384" value="" style="shape=waypoint;sketch=0;fillStyle=solid;size=6;pointerEvents=1;points=[];fillColor=none;resizable=0;rotatable=0;perimeter=centerPerimeter;snapToPoint=1;fontSize=12;strokeColor=#000000;strokeWidth=1;" parent="76ibLKwCJiMoYFnVsPmj-383" vertex="1">
                    <mxGeometry width="40" height="40" as="geometry"/>
                </mxCell>
                <mxCell id="76ibLKwCJiMoYFnVsPmj-385" value="p" style="text;strokeColor=none;fillColor=none;html=1;fontSize=12;fontStyle=1;verticalAlign=middle;align=center;" parent="76ibLKwCJiMoYFnVsPmj-383" vertex="1">
                    <mxGeometry x="10" y="30" width="20" height="10" as="geometry"/>
                </mxCell>
                <mxCell id="76ibLKwCJiMoYFnVsPmj-393" value="" style="group" parent="1" vertex="1" connectable="0">
                    <mxGeometry x="170" y="940" width="100" height="50" as="geometry"/>
                </mxCell>
                <object label="" first="a-" last="a+" id="76ibLKwCJiMoYFnVsPmj-387">
                    <mxCell style="shape=crossbar;whiteSpace=wrap;html=1;rounded=1;strokeWidth=2;container=0;" parent="76ibLKwCJiMoYFnVsPmj-393" vertex="1">
                        <mxGeometry x="10" width="80" height="10" as="geometry"/>
                    </mxCell>
                </object>
                <mxCell id="76ibLKwCJiMoYFnVsPmj-388" value="a-" style="text;strokeColor=none;fillColor=none;html=1;fontSize=12;fontStyle=1;verticalAlign=middle;align=center;container=0;" parent="76ibLKwCJiMoYFnVsPmj-393" vertex="1">
                    <mxGeometry y="10" width="20" height="10" as="geometry"/>
                </mxCell>
                <mxCell id="76ibLKwCJiMoYFnVsPmj-389" value="a+" style="text;strokeColor=none;fillColor=none;html=1;fontSize=12;fontStyle=1;verticalAlign=middle;align=center;container=0;" parent="76ibLKwCJiMoYFnVsPmj-393" vertex="1">
                    <mxGeometry x="80" y="10" width="20" height="10" as="geometry"/>
                </mxCell>
                <object label="" first="a-" last="a+" id="76ibLKwCJiMoYFnVsPmj-390">
                    <mxCell style="shape=crossbar;whiteSpace=wrap;html=1;rounded=1;strokeWidth=2;container=0;" parent="76ibLKwCJiMoYFnVsPmj-393" vertex="1">
                        <mxGeometry x="50" y="30" width="40" height="10" as="geometry"/>
                    </mxCell>
                </object>
                <mxCell id="76ibLKwCJiMoYFnVsPmj-391" value="b-" style="text;strokeColor=none;fillColor=none;html=1;fontSize=12;fontStyle=1;verticalAlign=middle;align=center;container=0;" parent="76ibLKwCJiMoYFnVsPmj-393" vertex="1">
                    <mxGeometry x="40" y="40" width="20" height="10" as="geometry"/>
                </mxCell>
                <mxCell id="76ibLKwCJiMoYFnVsPmj-392" value="b+" style="text;strokeColor=none;fillColor=none;html=1;fontSize=12;fontStyle=1;verticalAlign=middle;align=center;container=0;" parent="76ibLKwCJiMoYFnVsPmj-393" vertex="1">
                    <mxGeometry x="80" y="40" width="20" height="10" as="geometry"/>
                </mxCell>
                <mxCell id="76ibLKwCJiMoYFnVsPmj-400" value="" style="group" parent="1" vertex="1" connectable="0">
                    <mxGeometry x="290" y="940" width="110" height="50" as="geometry"/>
                </mxCell>
                <object label="" first="a-" last="a+" id="76ibLKwCJiMoYFnVsPmj-394">
                    <mxCell style="shape=crossbar;whiteSpace=wrap;html=1;rounded=1;strokeWidth=2;container=0;" parent="76ibLKwCJiMoYFnVsPmj-400" vertex="1">
                        <mxGeometry x="10" width="80" height="10" as="geometry"/>
                    </mxCell>
                </object>
                <mxCell id="76ibLKwCJiMoYFnVsPmj-395" value="a-" style="text;strokeColor=none;fillColor=none;html=1;fontSize=12;fontStyle=1;verticalAlign=middle;align=center;container=0;" parent="76ibLKwCJiMoYFnVsPmj-400" vertex="1">
                    <mxGeometry y="10" width="20" height="10" as="geometry"/>
                </mxCell>
                <mxCell id="76ibLKwCJiMoYFnVsPmj-396" value="a+" style="text;strokeColor=none;fillColor=none;html=1;fontSize=12;fontStyle=1;verticalAlign=middle;align=center;container=0;" parent="76ibLKwCJiMoYFnVsPmj-400" vertex="1">
                    <mxGeometry x="80" y="10" width="20" height="10" as="geometry"/>
                </mxCell>
                <mxCell id="76ibLKwCJiMoYFnVsPmj-397" value="" style="group" parent="76ibLKwCJiMoYFnVsPmj-400" vertex="1" connectable="0">
                    <mxGeometry x="70" y="10" width="40" height="40" as="geometry"/>
                </mxCell>
                <mxCell id="76ibLKwCJiMoYFnVsPmj-398" value="" style="shape=waypoint;sketch=0;fillStyle=solid;size=6;pointerEvents=1;points=[];fillColor=none;resizable=0;rotatable=0;perimeter=centerPerimeter;snapToPoint=1;fontSize=12;strokeColor=#000000;strokeWidth=1;" parent="76ibLKwCJiMoYFnVsPmj-397" vertex="1">
                    <mxGeometry width="40" height="40" as="geometry"/>
                </mxCell>
                <mxCell id="76ibLKwCJiMoYFnVsPmj-399" value="p" style="text;strokeColor=none;fillColor=none;html=1;fontSize=12;fontStyle=1;verticalAlign=middle;align=center;" parent="76ibLKwCJiMoYFnVsPmj-397" vertex="1">
                    <mxGeometry x="10" y="30" width="20" height="10" as="geometry"/>
                </mxCell>
                <mxCell id="76ibLKwCJiMoYFnVsPmj-415" value="" style="group" parent="1" vertex="1" connectable="0">
                    <mxGeometry x="170" y="1020" width="100" height="50" as="geometry"/>
                </mxCell>
                <object label="" first="a-" last="a+" id="76ibLKwCJiMoYFnVsPmj-409">
                    <mxCell style="shape=crossbar;whiteSpace=wrap;html=1;rounded=1;strokeWidth=2;" parent="76ibLKwCJiMoYFnVsPmj-415" vertex="1">
                        <mxGeometry x="10" y="30" width="80" height="10" as="geometry"/>
                    </mxCell>
                </object>
                <mxCell id="76ibLKwCJiMoYFnVsPmj-410" value="b-" style="text;strokeColor=none;fillColor=none;html=1;fontSize=12;fontStyle=1;verticalAlign=middle;align=center;" parent="76ibLKwCJiMoYFnVsPmj-415" vertex="1">
                    <mxGeometry y="40" width="20" height="10" as="geometry"/>
                </mxCell>
                <mxCell id="76ibLKwCJiMoYFnVsPmj-411" value="b+" style="text;strokeColor=none;fillColor=none;html=1;fontSize=12;fontStyle=1;verticalAlign=middle;align=center;" parent="76ibLKwCJiMoYFnVsPmj-415" vertex="1">
                    <mxGeometry x="80" y="40" width="20" height="10" as="geometry"/>
                </mxCell>
                <object label="" first="a-" last="a+" id="76ibLKwCJiMoYFnVsPmj-412">
                    <mxCell style="shape=crossbar;whiteSpace=wrap;html=1;rounded=1;strokeWidth=2;container=0;" parent="76ibLKwCJiMoYFnVsPmj-415" vertex="1">
                        <mxGeometry x="10" width="80" height="10" as="geometry"/>
                    </mxCell>
                </object>
                <mxCell id="76ibLKwCJiMoYFnVsPmj-413" value="a-" style="text;strokeColor=none;fillColor=none;html=1;fontSize=12;fontStyle=1;verticalAlign=middle;align=center;container=0;" parent="76ibLKwCJiMoYFnVsPmj-415" vertex="1">
                    <mxGeometry y="10" width="20" height="10" as="geometry"/>
                </mxCell>
                <mxCell id="76ibLKwCJiMoYFnVsPmj-414" value="a+" style="text;strokeColor=none;fillColor=none;html=1;fontSize=12;fontStyle=1;verticalAlign=middle;align=center;container=0;" parent="76ibLKwCJiMoYFnVsPmj-415" vertex="1">
                    <mxGeometry x="80" y="10" width="20" height="10" as="geometry"/>
                </mxCell>
                <mxCell id="76ibLKwCJiMoYFnVsPmj-422" value="" style="group" parent="1" vertex="1" connectable="0">
                    <mxGeometry x="320" y="1000" width="40" height="70" as="geometry"/>
                </mxCell>
                <mxCell id="76ibLKwCJiMoYFnVsPmj-417" value="" style="shape=waypoint;sketch=0;fillStyle=solid;size=6;pointerEvents=1;points=[];fillColor=none;resizable=0;rotatable=0;perimeter=centerPerimeter;snapToPoint=1;fontSize=12;strokeColor=#000000;strokeWidth=1;container=0;" parent="76ibLKwCJiMoYFnVsPmj-422" vertex="1">
                    <mxGeometry width="40" height="40" as="geometry"/>
                </mxCell>
                <mxCell id="76ibLKwCJiMoYFnVsPmj-418" value="p" style="text;strokeColor=none;fillColor=none;html=1;fontSize=12;fontStyle=1;verticalAlign=middle;align=center;container=0;" parent="76ibLKwCJiMoYFnVsPmj-422" vertex="1">
                    <mxGeometry x="10" y="30" width="20" height="10" as="geometry"/>
                </mxCell>
                <mxCell id="76ibLKwCJiMoYFnVsPmj-420" value="" style="shape=waypoint;sketch=0;fillStyle=solid;size=6;pointerEvents=1;points=[];fillColor=none;resizable=0;rotatable=0;perimeter=centerPerimeter;snapToPoint=1;fontSize=12;strokeColor=#000000;strokeWidth=1;container=0;" parent="76ibLKwCJiMoYFnVsPmj-422" vertex="1">
                    <mxGeometry y="30" width="40" height="40" as="geometry"/>
                </mxCell>
                <mxCell id="76ibLKwCJiMoYFnVsPmj-421" value="q" style="text;strokeColor=none;fillColor=none;html=1;fontSize=12;fontStyle=1;verticalAlign=middle;align=center;container=0;" parent="76ibLKwCJiMoYFnVsPmj-422" vertex="1">
                    <mxGeometry x="10" y="60" width="20" height="10" as="geometry"/>
                </mxCell>
                <mxCell id="_Gr2ZK6ik_HQx7IE69sF-331" value="" style="group" vertex="1" connectable="0" parent="1">
                    <mxGeometry x="170" y="540" width="100" height="50" as="geometry"/>
                </mxCell>
                <object label="" first="a-" last="a+" id="_Gr2ZK6ik_HQx7IE69sF-332">
                    <mxCell style="shape=crossbar;whiteSpace=wrap;html=1;rounded=1;strokeWidth=2;" vertex="1" parent="_Gr2ZK6ik_HQx7IE69sF-331">
                        <mxGeometry x="10" y="30" width="80" height="10" as="geometry"/>
                    </mxCell>
                </object>
                <mxCell id="_Gr2ZK6ik_HQx7IE69sF-333" value="b-" style="text;strokeColor=none;fillColor=none;html=1;fontSize=12;fontStyle=1;verticalAlign=middle;align=center;" vertex="1" parent="_Gr2ZK6ik_HQx7IE69sF-331">
                    <mxGeometry y="40" width="20" height="10" as="geometry"/>
                </mxCell>
                <mxCell id="_Gr2ZK6ik_HQx7IE69sF-334" value="b+" style="text;strokeColor=none;fillColor=none;html=1;fontSize=12;fontStyle=1;verticalAlign=middle;align=center;" vertex="1" parent="_Gr2ZK6ik_HQx7IE69sF-331">
                    <mxGeometry x="80" y="40" width="20" height="10" as="geometry"/>
                </mxCell>
                <object label="" first="a-" last="a+" id="_Gr2ZK6ik_HQx7IE69sF-335">
                    <mxCell style="shape=crossbar;whiteSpace=wrap;html=1;rounded=1;strokeWidth=2;container=0;" vertex="1" parent="_Gr2ZK6ik_HQx7IE69sF-331">
                        <mxGeometry x="10" width="40" height="10" as="geometry"/>
                    </mxCell>
                </object>
                <mxCell id="_Gr2ZK6ik_HQx7IE69sF-336" value="a-" style="text;strokeColor=none;fillColor=none;html=1;fontSize=12;fontStyle=1;verticalAlign=middle;align=center;container=0;" vertex="1" parent="_Gr2ZK6ik_HQx7IE69sF-331">
                    <mxGeometry y="10" width="20" height="10" as="geometry"/>
                </mxCell>
                <mxCell id="_Gr2ZK6ik_HQx7IE69sF-337" value="a+" style="text;strokeColor=none;fillColor=none;html=1;fontSize=12;fontStyle=1;verticalAlign=middle;align=center;container=0;" vertex="1" parent="_Gr2ZK6ik_HQx7IE69sF-331">
                    <mxGeometry x="40" y="10" width="20" height="10" as="geometry"/>
                </mxCell>
                <mxCell id="_Gr2ZK6ik_HQx7IE69sF-338" value="" style="group" vertex="1" connectable="0" parent="1">
                    <mxGeometry x="170" y="620" width="100" height="50" as="geometry"/>
                </mxCell>
                <object label="" first="a-" last="a+" id="_Gr2ZK6ik_HQx7IE69sF-339">
                    <mxCell style="shape=crossbar;whiteSpace=wrap;html=1;rounded=1;strokeWidth=2;container=0;" vertex="1" parent="_Gr2ZK6ik_HQx7IE69sF-338">
                        <mxGeometry x="10" width="80" height="10" as="geometry"/>
                    </mxCell>
                </object>
                <mxCell id="_Gr2ZK6ik_HQx7IE69sF-340" value="a-" style="text;strokeColor=none;fillColor=none;html=1;fontSize=12;fontStyle=1;verticalAlign=middle;align=center;container=0;" vertex="1" parent="_Gr2ZK6ik_HQx7IE69sF-338">
                    <mxGeometry y="10" width="20" height="10" as="geometry"/>
                </mxCell>
                <mxCell id="_Gr2ZK6ik_HQx7IE69sF-341" value="a+" style="text;strokeColor=none;fillColor=none;html=1;fontSize=12;fontStyle=1;verticalAlign=middle;align=center;container=0;" vertex="1" parent="_Gr2ZK6ik_HQx7IE69sF-338">
                    <mxGeometry x="80" y="10" width="20" height="10" as="geometry"/>
                </mxCell>
                <object label="" first="a-" last="a+" id="_Gr2ZK6ik_HQx7IE69sF-342">
                    <mxCell style="shape=crossbar;whiteSpace=wrap;html=1;rounded=1;strokeWidth=2;container=0;" vertex="1" parent="_Gr2ZK6ik_HQx7IE69sF-338">
                        <mxGeometry x="10" y="30" width="40" height="10" as="geometry"/>
                    </mxCell>
                </object>
                <mxCell id="_Gr2ZK6ik_HQx7IE69sF-343" value="b-" style="text;strokeColor=none;fillColor=none;html=1;fontSize=12;fontStyle=1;verticalAlign=middle;align=center;container=0;" vertex="1" parent="_Gr2ZK6ik_HQx7IE69sF-338">
                    <mxGeometry y="40" width="20" height="10" as="geometry"/>
                </mxCell>
                <mxCell id="_Gr2ZK6ik_HQx7IE69sF-344" value="b+" style="text;strokeColor=none;fillColor=none;html=1;fontSize=12;fontStyle=1;verticalAlign=middle;align=center;container=0;" vertex="1" parent="_Gr2ZK6ik_HQx7IE69sF-338">
                    <mxGeometry x="40" y="40" width="20" height="10" as="geometry"/>
                </mxCell>
                <mxCell id="_Gr2ZK6ik_HQx7IE69sF-349" value="" style="group" vertex="1" connectable="0" parent="1">
                    <mxGeometry x="285" y="620" width="110" height="50" as="geometry"/>
                </mxCell>
                <object label="" first="a-" last="a+" id="_Gr2ZK6ik_HQx7IE69sF-350">
                    <mxCell style="shape=crossbar;whiteSpace=wrap;html=1;rounded=1;strokeWidth=2;container=0;" vertex="1" parent="_Gr2ZK6ik_HQx7IE69sF-349">
                        <mxGeometry x="20" width="80" height="10" as="geometry"/>
                    </mxCell>
                </object>
                <mxCell id="_Gr2ZK6ik_HQx7IE69sF-351" value="a-" style="text;strokeColor=none;fillColor=none;html=1;fontSize=12;fontStyle=1;verticalAlign=middle;align=center;container=0;" vertex="1" parent="_Gr2ZK6ik_HQx7IE69sF-349">
                    <mxGeometry x="10" y="10" width="20" height="10" as="geometry"/>
                </mxCell>
                <mxCell id="_Gr2ZK6ik_HQx7IE69sF-352" value="a+" style="text;strokeColor=none;fillColor=none;html=1;fontSize=12;fontStyle=1;verticalAlign=middle;align=center;container=0;" vertex="1" parent="_Gr2ZK6ik_HQx7IE69sF-349">
                    <mxGeometry x="90" y="10" width="20" height="10" as="geometry"/>
                </mxCell>
                <mxCell id="_Gr2ZK6ik_HQx7IE69sF-353" value="p" style="text;strokeColor=none;fillColor=none;html=1;fontSize=12;fontStyle=1;verticalAlign=middle;align=center;container=0;" vertex="1" parent="_Gr2ZK6ik_HQx7IE69sF-349">
                    <mxGeometry x="10" y="40" width="20" height="10" as="geometry"/>
                </mxCell>
                <mxCell id="_Gr2ZK6ik_HQx7IE69sF-354" value="" style="shape=waypoint;sketch=0;fillStyle=solid;size=6;pointerEvents=1;points=[];fillColor=none;resizable=0;rotatable=0;perimeter=centerPerimeter;snapToPoint=1;fontSize=12;strokeColor=#000000;strokeWidth=1;container=0;" vertex="1" parent="_Gr2ZK6ik_HQx7IE69sF-349">
                    <mxGeometry y="10" width="40" height="40" as="geometry"/>
                </mxCell>
                <mxCell id="fd7NdQDQKJ-Un9b1Asfz-318" value="" style="group" vertex="1" connectable="0" parent="1">
                    <mxGeometry x="170" y="700" width="100" height="50" as="geometry"/>
                </mxCell>
                <object label="" first="a-" last="a+" id="fd7NdQDQKJ-Un9b1Asfz-319">
                    <mxCell style="shape=crossbar;whiteSpace=wrap;html=1;rounded=1;strokeWidth=2;" vertex="1" parent="fd7NdQDQKJ-Un9b1Asfz-318">
                        <mxGeometry x="10" y="30" width="80" height="10" as="geometry"/>
                    </mxCell>
                </object>
                <mxCell id="fd7NdQDQKJ-Un9b1Asfz-320" value="b-" style="text;strokeColor=none;fillColor=none;html=1;fontSize=12;fontStyle=1;verticalAlign=middle;align=center;" vertex="1" parent="fd7NdQDQKJ-Un9b1Asfz-318">
                    <mxGeometry y="40" width="20" height="10" as="geometry"/>
                </mxCell>
                <mxCell id="fd7NdQDQKJ-Un9b1Asfz-321" value="b+" style="text;strokeColor=none;fillColor=none;html=1;fontSize=12;fontStyle=1;verticalAlign=middle;align=center;" vertex="1" parent="fd7NdQDQKJ-Un9b1Asfz-318">
                    <mxGeometry x="80" y="40" width="20" height="10" as="geometry"/>
                </mxCell>
                <object label="" first="a-" last="a+" id="fd7NdQDQKJ-Un9b1Asfz-322">
                    <mxCell style="shape=crossbar;whiteSpace=wrap;html=1;rounded=1;strokeWidth=2;container=0;" vertex="1" parent="fd7NdQDQKJ-Un9b1Asfz-318">
                        <mxGeometry x="30" width="40" height="10" as="geometry"/>
                    </mxCell>
                </object>
                <mxCell id="fd7NdQDQKJ-Un9b1Asfz-323" value="a-" style="text;strokeColor=none;fillColor=none;html=1;fontSize=12;fontStyle=1;verticalAlign=middle;align=center;container=0;" vertex="1" parent="fd7NdQDQKJ-Un9b1Asfz-318">
                    <mxGeometry x="20" y="10" width="20" height="10" as="geometry"/>
                </mxCell>
                <mxCell id="fd7NdQDQKJ-Un9b1Asfz-324" value="a+" style="text;strokeColor=none;fillColor=none;html=1;fontSize=12;fontStyle=1;verticalAlign=middle;align=center;container=0;" vertex="1" parent="fd7NdQDQKJ-Un9b1Asfz-318">
                    <mxGeometry x="60" y="10" width="20" height="10" as="geometry"/>
                </mxCell>
                <mxCell id="fd7NdQDQKJ-Un9b1Asfz-325" value="" style="group" vertex="1" connectable="0" parent="1">
                    <mxGeometry x="170" y="780" width="100" height="40" as="geometry"/>
                </mxCell>
                <object label="" first="a-" last="a+" id="fd7NdQDQKJ-Un9b1Asfz-326">
                    <mxCell style="shape=crossbar;whiteSpace=wrap;html=1;rounded=1;strokeWidth=2;container=0;" vertex="1" parent="fd7NdQDQKJ-Un9b1Asfz-325">
                        <mxGeometry x="10" width="80" height="10" as="geometry"/>
                    </mxCell>
                </object>
                <mxCell id="fd7NdQDQKJ-Un9b1Asfz-327" value="a-" style="text;strokeColor=none;fillColor=none;html=1;fontSize=12;fontStyle=1;verticalAlign=middle;align=center;container=0;" vertex="1" parent="fd7NdQDQKJ-Un9b1Asfz-325">
                    <mxGeometry y="10" width="20" height="10" as="geometry"/>
                </mxCell>
                <mxCell id="fd7NdQDQKJ-Un9b1Asfz-328" value="a+" style="text;strokeColor=none;fillColor=none;html=1;fontSize=12;fontStyle=1;verticalAlign=middle;align=center;container=0;" vertex="1" parent="fd7NdQDQKJ-Un9b1Asfz-325">
                    <mxGeometry x="80" y="10" width="20" height="10" as="geometry"/>
                </mxCell>
                <object label="" first="a-" last="a+" id="fd7NdQDQKJ-Un9b1Asfz-329">
                    <mxCell style="shape=crossbar;whiteSpace=wrap;html=1;rounded=1;strokeWidth=2;container=0;" vertex="1" parent="fd7NdQDQKJ-Un9b1Asfz-325">
                        <mxGeometry x="30" y="20" width="40" height="10" as="geometry"/>
                    </mxCell>
                </object>
                <mxCell id="fd7NdQDQKJ-Un9b1Asfz-330" value="b-" style="text;strokeColor=none;fillColor=none;html=1;fontSize=12;fontStyle=1;verticalAlign=middle;align=center;container=0;" vertex="1" parent="fd7NdQDQKJ-Un9b1Asfz-325">
                    <mxGeometry x="20" y="30" width="20" height="10" as="geometry"/>
                </mxCell>
                <mxCell id="fd7NdQDQKJ-Un9b1Asfz-331" value="b+" style="text;strokeColor=none;fillColor=none;html=1;fontSize=12;fontStyle=1;verticalAlign=middle;align=center;container=0;" vertex="1" parent="fd7NdQDQKJ-Un9b1Asfz-325">
                    <mxGeometry x="60" y="30" width="20" height="10" as="geometry"/>
                </mxCell>
                <mxCell id="fd7NdQDQKJ-Un9b1Asfz-332" value="" style="group" vertex="1" connectable="0" parent="1">
                    <mxGeometry x="290" y="690" width="100" height="60" as="geometry"/>
                </mxCell>
                <object label="" first="a-" last="a+" id="fd7NdQDQKJ-Un9b1Asfz-333">
                    <mxCell style="shape=crossbar;whiteSpace=wrap;html=1;rounded=1;strokeWidth=2;" vertex="1" parent="fd7NdQDQKJ-Un9b1Asfz-332">
                        <mxGeometry x="10" y="40" width="80" height="10" as="geometry"/>
                    </mxCell>
                </object>
                <mxCell id="fd7NdQDQKJ-Un9b1Asfz-334" value="b-" style="text;strokeColor=none;fillColor=none;html=1;fontSize=12;fontStyle=1;verticalAlign=middle;align=center;" vertex="1" parent="fd7NdQDQKJ-Un9b1Asfz-332">
                    <mxGeometry y="50" width="20" height="10" as="geometry"/>
                </mxCell>
                <mxCell id="fd7NdQDQKJ-Un9b1Asfz-335" value="b+" style="text;strokeColor=none;fillColor=none;html=1;fontSize=12;fontStyle=1;verticalAlign=middle;align=center;" vertex="1" parent="fd7NdQDQKJ-Un9b1Asfz-332">
                    <mxGeometry x="80" y="50" width="20" height="10" as="geometry"/>
                </mxCell>
                <mxCell id="fd7NdQDQKJ-Un9b1Asfz-336" value="" style="group" vertex="1" connectable="0" parent="fd7NdQDQKJ-Un9b1Asfz-332">
                    <mxGeometry x="30" width="40" height="40" as="geometry"/>
                </mxCell>
                <mxCell id="fd7NdQDQKJ-Un9b1Asfz-337" value="" style="shape=waypoint;sketch=0;fillStyle=solid;size=6;pointerEvents=1;points=[];fillColor=none;resizable=0;rotatable=0;perimeter=centerPerimeter;snapToPoint=1;fontSize=12;strokeColor=#000000;strokeWidth=1;" vertex="1" parent="fd7NdQDQKJ-Un9b1Asfz-336">
                    <mxGeometry width="40" height="40" as="geometry"/>
                </mxCell>
                <mxCell id="fd7NdQDQKJ-Un9b1Asfz-338" value="p" style="text;strokeColor=none;fillColor=none;html=1;fontSize=12;fontStyle=1;verticalAlign=middle;align=center;" vertex="1" parent="fd7NdQDQKJ-Un9b1Asfz-336">
                    <mxGeometry x="10" y="30" width="20" height="10" as="geometry"/>
                </mxCell>
                <mxCell id="fd7NdQDQKJ-Un9b1Asfz-339" value="" style="group" vertex="1" connectable="0" parent="1">
                    <mxGeometry x="290" y="780" width="100" height="40" as="geometry"/>
                </mxCell>
                <object label="" first="a-" last="a+" id="fd7NdQDQKJ-Un9b1Asfz-340">
                    <mxCell style="shape=crossbar;whiteSpace=wrap;html=1;rounded=1;strokeWidth=2;container=0;" vertex="1" parent="fd7NdQDQKJ-Un9b1Asfz-339">
                        <mxGeometry x="10" width="80" height="10" as="geometry"/>
                    </mxCell>
                </object>
                <mxCell id="fd7NdQDQKJ-Un9b1Asfz-341" value="a-" style="text;strokeColor=none;fillColor=none;html=1;fontSize=12;fontStyle=1;verticalAlign=middle;align=center;container=0;" vertex="1" parent="fd7NdQDQKJ-Un9b1Asfz-339">
                    <mxGeometry y="10" width="20" height="10" as="geometry"/>
                </mxCell>
                <mxCell id="fd7NdQDQKJ-Un9b1Asfz-342" value="a+" style="text;strokeColor=none;fillColor=none;html=1;fontSize=12;fontStyle=1;verticalAlign=middle;align=center;container=0;" vertex="1" parent="fd7NdQDQKJ-Un9b1Asfz-339">
                    <mxGeometry x="80" y="10" width="20" height="10" as="geometry"/>
                </mxCell>
                <mxCell id="fd7NdQDQKJ-Un9b1Asfz-343" value="" style="group" vertex="1" connectable="0" parent="fd7NdQDQKJ-Un9b1Asfz-339">
                    <mxGeometry x="30" width="40" height="40" as="geometry"/>
                </mxCell>
                <mxCell id="fd7NdQDQKJ-Un9b1Asfz-344" value="" style="shape=waypoint;sketch=0;fillStyle=solid;size=6;pointerEvents=1;points=[];fillColor=none;resizable=0;rotatable=0;perimeter=centerPerimeter;snapToPoint=1;fontSize=12;strokeColor=#000000;strokeWidth=1;" vertex="1" parent="fd7NdQDQKJ-Un9b1Asfz-343">
                    <mxGeometry width="40" height="40" as="geometry"/>
                </mxCell>
                <mxCell id="fd7NdQDQKJ-Un9b1Asfz-345" value="p" style="text;strokeColor=none;fillColor=none;html=1;fontSize=12;fontStyle=1;verticalAlign=middle;align=center;" vertex="1" parent="fd7NdQDQKJ-Un9b1Asfz-343">
                    <mxGeometry x="10" y="30" width="20" height="10" as="geometry"/>
                </mxCell>
                <mxCell id="ka40SdOVnnkEY85QAeus-328" value="" style="group" vertex="1" connectable="0" parent="1">
                    <mxGeometry x="285" y="526" width="110" height="64" as="geometry"/>
                </mxCell>
                <object label="" first="a-" last="a+" id="_Gr2ZK6ik_HQx7IE69sF-345">
                    <mxCell style="shape=crossbar;whiteSpace=wrap;html=1;rounded=1;strokeWidth=2;" vertex="1" parent="ka40SdOVnnkEY85QAeus-328">
                        <mxGeometry x="20" y="44" width="80" height="10" as="geometry"/>
                    </mxCell>
                </object>
                <mxCell id="_Gr2ZK6ik_HQx7IE69sF-346" value="b-" style="text;strokeColor=none;fillColor=none;html=1;fontSize=12;fontStyle=1;verticalAlign=middle;align=center;" vertex="1" parent="ka40SdOVnnkEY85QAeus-328">
                    <mxGeometry x="10" y="54" width="20" height="10" as="geometry"/>
                </mxCell>
                <mxCell id="_Gr2ZK6ik_HQx7IE69sF-347" value="b+" style="text;strokeColor=none;fillColor=none;html=1;fontSize=12;fontStyle=1;verticalAlign=middle;align=center;" vertex="1" parent="ka40SdOVnnkEY85QAeus-328">
                    <mxGeometry x="90" y="54" width="20" height="10" as="geometry"/>
                </mxCell>
                <mxCell id="ka40SdOVnnkEY85QAeus-321" value="" style="group" vertex="1" connectable="0" parent="ka40SdOVnnkEY85QAeus-328">
                    <mxGeometry width="40" height="40" as="geometry"/>
                </mxCell>
                <mxCell id="ka40SdOVnnkEY85QAeus-322" value="" style="shape=waypoint;sketch=0;fillStyle=solid;size=6;pointerEvents=1;points=[];fillColor=none;resizable=0;rotatable=0;perimeter=centerPerimeter;snapToPoint=1;fontSize=12;strokeColor=#000000;strokeWidth=1;" vertex="1" parent="ka40SdOVnnkEY85QAeus-321">
                    <mxGeometry width="40" height="40" as="geometry"/>
                </mxCell>
                <mxCell id="ka40SdOVnnkEY85QAeus-323" value="p" style="text;strokeColor=none;fillColor=none;html=1;fontSize=12;fontStyle=1;verticalAlign=middle;align=center;" vertex="1" parent="ka40SdOVnnkEY85QAeus-321">
                    <mxGeometry x="10" y="30" width="20" height="10" as="geometry"/>
                </mxCell>
            </root>
        </mxGraphModel>
    </diagram>
    <diagram id="gSsOPO-88hWy3ZzzvFtR" name="Relations-Src">
        <mxGraphModel dx="864" dy="-331" grid="1" gridSize="10" guides="1" tooltips="1" connect="1" arrows="1" fold="1" page="1" pageScale="1" pageWidth="850" pageHeight="1100" math="0" shadow="0">
            <root>
                <mxCell id="XYDd2NbNxL7BAlXsk03d-0"/>
                <mxCell id="XYDd2NbNxL7BAlXsk03d-1" parent="XYDd2NbNxL7BAlXsk03d-0"/>
                <mxCell id="s-LUj2WgameV44iw2tAZ-0" value="" style="group" parent="XYDd2NbNxL7BAlXsk03d-1" vertex="1" connectable="0">
                    <mxGeometry x="210" y="1120" width="40" height="40" as="geometry"/>
                </mxCell>
                <mxCell id="s-LUj2WgameV44iw2tAZ-1" value="" style="shape=waypoint;sketch=0;fillStyle=solid;size=6;pointerEvents=1;points=[];fillColor=none;resizable=0;rotatable=0;perimeter=centerPerimeter;snapToPoint=1;fontSize=12;strokeColor=#000000;strokeWidth=1;" parent="s-LUj2WgameV44iw2tAZ-0" vertex="1">
                    <mxGeometry width="40" height="40" as="geometry"/>
                </mxCell>
                <mxCell id="s-LUj2WgameV44iw2tAZ-2" value="p" style="text;strokeColor=none;fillColor=none;html=1;fontSize=12;fontStyle=1;verticalAlign=middle;align=center;" parent="s-LUj2WgameV44iw2tAZ-0" vertex="1">
                    <mxGeometry x="10" y="30" width="20" height="10" as="geometry"/>
                </mxCell>
                <mxCell id="s-LUj2WgameV44iw2tAZ-3" value="" style="group" parent="XYDd2NbNxL7BAlXsk03d-1" vertex="1" connectable="0">
                    <mxGeometry x="290" y="1120" width="40" height="40" as="geometry"/>
                </mxCell>
                <mxCell id="s-LUj2WgameV44iw2tAZ-4" value="" style="shape=waypoint;sketch=0;fillStyle=solid;size=6;pointerEvents=1;points=[];fillColor=none;resizable=0;rotatable=0;perimeter=centerPerimeter;snapToPoint=1;fontSize=12;strokeColor=#000000;strokeWidth=1;" parent="s-LUj2WgameV44iw2tAZ-3" vertex="1">
                    <mxGeometry width="40" height="40" as="geometry"/>
                </mxCell>
                <mxCell id="s-LUj2WgameV44iw2tAZ-5" value="q" style="text;strokeColor=none;fillColor=none;html=1;fontSize=12;fontStyle=1;verticalAlign=middle;align=center;" parent="s-LUj2WgameV44iw2tAZ-3" vertex="1">
                    <mxGeometry x="10" y="30" width="20" height="10" as="geometry"/>
                </mxCell>
                <object label="" first="a-" last="a+" id="s-LUj2WgameV44iw2tAZ-6">
                    <mxCell style="shape=crossbar;whiteSpace=wrap;html=1;rounded=1;strokeWidth=2;" parent="XYDd2NbNxL7BAlXsk03d-1" vertex="1">
                        <mxGeometry x="50" y="1230" width="80" height="10" as="geometry"/>
                    </mxCell>
                </object>
                <mxCell id="s-LUj2WgameV44iw2tAZ-7" value="b-" style="text;strokeColor=none;fillColor=none;html=1;fontSize=12;fontStyle=1;verticalAlign=middle;align=center;" parent="XYDd2NbNxL7BAlXsk03d-1" vertex="1">
                    <mxGeometry x="40" y="1240" width="20" height="10" as="geometry"/>
                </mxCell>
                <mxCell id="s-LUj2WgameV44iw2tAZ-8" value="b+" style="text;strokeColor=none;fillColor=none;html=1;fontSize=12;fontStyle=1;verticalAlign=middle;align=center;" parent="XYDd2NbNxL7BAlXsk03d-1" vertex="1">
                    <mxGeometry x="120" y="1240" width="20" height="10" as="geometry"/>
                </mxCell>
                <object label="" first="a-" last="a+" id="s-LUj2WgameV44iw2tAZ-9">
                    <mxCell style="shape=crossbar;whiteSpace=wrap;html=1;rounded=1;strokeWidth=2;container=0;" parent="XYDd2NbNxL7BAlXsk03d-1" vertex="1">
                        <mxGeometry x="50" y="1150" width="40" height="10" as="geometry"/>
                    </mxCell>
                </object>
                <mxCell id="s-LUj2WgameV44iw2tAZ-10" value="a-" style="text;strokeColor=none;fillColor=none;html=1;fontSize=12;fontStyle=1;verticalAlign=middle;align=center;container=0;" parent="XYDd2NbNxL7BAlXsk03d-1" vertex="1">
                    <mxGeometry x="40" y="1160" width="20" height="10" as="geometry"/>
                </mxCell>
                <mxCell id="s-LUj2WgameV44iw2tAZ-11" value="a+" style="text;strokeColor=none;fillColor=none;html=1;fontSize=12;fontStyle=1;verticalAlign=middle;align=center;container=0;" parent="XYDd2NbNxL7BAlXsk03d-1" vertex="1">
                    <mxGeometry x="80" y="1160" width="20" height="10" as="geometry"/>
                </mxCell>
                <object label="" first="a-" last="a+" id="s-LUj2WgameV44iw2tAZ-12">
                    <mxCell style="shape=crossbar;whiteSpace=wrap;html=1;rounded=1;strokeWidth=2;container=0;" parent="XYDd2NbNxL7BAlXsk03d-1" vertex="1">
                        <mxGeometry x="110" y="1170" width="40" height="10" as="geometry"/>
                    </mxCell>
                </object>
                <mxCell id="s-LUj2WgameV44iw2tAZ-13" value="b-" style="text;strokeColor=none;fillColor=none;html=1;fontSize=12;fontStyle=1;verticalAlign=middle;align=center;container=0;" parent="XYDd2NbNxL7BAlXsk03d-1" vertex="1">
                    <mxGeometry x="100" y="1180" width="20" height="10" as="geometry"/>
                </mxCell>
                <mxCell id="s-LUj2WgameV44iw2tAZ-14" value="b+" style="text;strokeColor=none;fillColor=none;html=1;fontSize=12;fontStyle=1;verticalAlign=middle;align=center;container=0;" parent="XYDd2NbNxL7BAlXsk03d-1" vertex="1">
                    <mxGeometry x="140" y="1180" width="20" height="10" as="geometry"/>
                </mxCell>
                <object label="" first="a-" last="a+" id="s-LUj2WgameV44iw2tAZ-15">
                    <mxCell style="shape=crossbar;whiteSpace=wrap;html=1;rounded=1;strokeWidth=2;container=0;" parent="XYDd2NbNxL7BAlXsk03d-1" vertex="1">
                        <mxGeometry x="50" y="1270" width="80" height="10" as="geometry"/>
                    </mxCell>
                </object>
                <mxCell id="s-LUj2WgameV44iw2tAZ-16" value="a-" style="text;strokeColor=none;fillColor=none;html=1;fontSize=12;fontStyle=1;verticalAlign=middle;align=center;container=0;" parent="XYDd2NbNxL7BAlXsk03d-1" vertex="1">
                    <mxGeometry x="40" y="1280" width="20" height="10" as="geometry"/>
                </mxCell>
                <mxCell id="s-LUj2WgameV44iw2tAZ-17" value="a+" style="text;strokeColor=none;fillColor=none;html=1;fontSize=12;fontStyle=1;verticalAlign=middle;align=center;container=0;" parent="XYDd2NbNxL7BAlXsk03d-1" vertex="1">
                    <mxGeometry x="120" y="1280" width="20" height="10" as="geometry"/>
                </mxCell>
                <mxCell id="YivHuGFthZbpz1Ygchjr-20" value="" style="endArrow=none;dashed=1;html=1;strokeWidth=1;fontSize=11;fillColor=#f5f5f5;strokeColor=#666666;" edge="1" parent="XYDd2NbNxL7BAlXsk03d-1">
                    <mxGeometry width="50" height="50" relative="1" as="geometry">
                        <mxPoint x="600" y="1300" as="sourcePoint"/>
                        <mxPoint x="600" y="1220" as="targetPoint"/>
                    </mxGeometry>
                </mxCell>
                <mxCell id="8_DqEglCtocaWKGsO3iQ-8" value="" style="endArrow=block;html=1;fontSize=12;strokeWidth=1;fillColor=#f5f5f5;strokeColor=#666666;endFill=1;dashed=1;" edge="1" parent="XYDd2NbNxL7BAlXsk03d-1">
                    <mxGeometry width="50" height="50" relative="1" as="geometry">
                        <mxPoint x="360" y="1180" as="sourcePoint"/>
                        <mxPoint x="800" y="1180" as="targetPoint"/>
                    </mxGeometry>
                </mxCell>
                <mxCell id="FBlt1kYhn6BSbzYnq00G-19" value="" style="group" vertex="1" connectable="0" parent="XYDd2NbNxL7BAlXsk03d-1">
                    <mxGeometry x="600" y="1180" width="120" height="20" as="geometry"/>
                </mxCell>
                <mxCell id="8_DqEglCtocaWKGsO3iQ-5" value="" style="rounded=0;whiteSpace=wrap;html=1;fontSize=12;strokeWidth=1;fillColor=#dae8fc;strokeColor=#6c8ebf;" vertex="1" parent="FBlt1kYhn6BSbzYnq00G-19">
                    <mxGeometry width="120" height="20" as="geometry"/>
                </mxCell>
                <mxCell id="8_DqEglCtocaWKGsO3iQ-6" value="b-" style="text;html=1;strokeColor=none;fillColor=none;align=center;verticalAlign=middle;rounded=0;fontSize=11;" vertex="1" parent="FBlt1kYhn6BSbzYnq00G-19">
                    <mxGeometry width="20" height="20" as="geometry"/>
                </mxCell>
                <mxCell id="8_DqEglCtocaWKGsO3iQ-7" value="b+" style="text;strokeColor=none;fillColor=none;align=center;verticalAlign=middle;rounded=0;fontSize=11;html=1;spacing=2;" vertex="1" parent="FBlt1kYhn6BSbzYnq00G-19">
                    <mxGeometry x="100" width="20" height="20" as="geometry"/>
                </mxCell>
                <mxCell id="FBlt1kYhn6BSbzYnq00G-17" value="" style="endArrow=none;dashed=1;html=1;strokeWidth=1;fontSize=11;fillColor=#dae8fc;strokeColor=#6c8ebf;" edge="1" parent="FBlt1kYhn6BSbzYnq00G-19">
                    <mxGeometry width="50" height="50" relative="1" as="geometry">
                        <mxPoint x="100" y="20" as="sourcePoint"/>
                        <mxPoint x="100" as="targetPoint"/>
                    </mxGeometry>
                </mxCell>
                <mxCell id="FBlt1kYhn6BSbzYnq00G-18" value="" style="endArrow=none;dashed=1;html=1;strokeWidth=1;fontSize=11;fillColor=#dae8fc;strokeColor=#6c8ebf;" edge="1" parent="FBlt1kYhn6BSbzYnq00G-19">
                    <mxGeometry width="50" height="50" relative="1" as="geometry">
                        <mxPoint x="20" y="20" as="sourcePoint"/>
                        <mxPoint x="20" as="targetPoint"/>
                    </mxGeometry>
                </mxCell>
                <mxCell id="FBlt1kYhn6BSbzYnq00G-26" value="" style="group" vertex="1" connectable="0" parent="XYDd2NbNxL7BAlXsk03d-1">
                    <mxGeometry x="540" y="1340" width="120" height="20" as="geometry"/>
                </mxCell>
                <mxCell id="FBlt1kYhn6BSbzYnq00G-27" value="" style="rounded=0;whiteSpace=wrap;html=1;fontSize=12;strokeWidth=1;fillColor=#dae8fc;strokeColor=#6c8ebf;" vertex="1" parent="FBlt1kYhn6BSbzYnq00G-26">
                    <mxGeometry width="120" height="20" as="geometry"/>
                </mxCell>
                <mxCell id="FBlt1kYhn6BSbzYnq00G-28" value="b-" style="text;html=1;strokeColor=none;fillColor=none;align=center;verticalAlign=middle;rounded=0;fontSize=11;" vertex="1" parent="FBlt1kYhn6BSbzYnq00G-26">
                    <mxGeometry width="20" height="20" as="geometry"/>
                </mxCell>
                <mxCell id="FBlt1kYhn6BSbzYnq00G-29" value="b+" style="text;strokeColor=none;fillColor=none;align=center;verticalAlign=middle;rounded=0;fontSize=11;html=1;spacing=2;" vertex="1" parent="FBlt1kYhn6BSbzYnq00G-26">
                    <mxGeometry x="100" width="20" height="20" as="geometry"/>
                </mxCell>
                <mxCell id="FBlt1kYhn6BSbzYnq00G-30" value="" style="endArrow=none;dashed=1;html=1;strokeWidth=1;fontSize=11;fillColor=#dae8fc;strokeColor=#6c8ebf;" edge="1" parent="FBlt1kYhn6BSbzYnq00G-26">
                    <mxGeometry width="50" height="50" relative="1" as="geometry">
                        <mxPoint x="100" y="20" as="sourcePoint"/>
                        <mxPoint x="100" as="targetPoint"/>
                    </mxGeometry>
                </mxCell>
                <mxCell id="FBlt1kYhn6BSbzYnq00G-31" value="" style="endArrow=none;dashed=1;html=1;strokeWidth=1;fontSize=11;fillColor=#dae8fc;strokeColor=#6c8ebf;" edge="1" parent="FBlt1kYhn6BSbzYnq00G-26">
                    <mxGeometry width="50" height="50" relative="1" as="geometry">
                        <mxPoint x="20" y="20" as="sourcePoint"/>
                        <mxPoint x="20" as="targetPoint"/>
                    </mxGeometry>
                </mxCell>
                <mxCell id="FBlt1kYhn6BSbzYnq00G-20" value="" style="group" vertex="1" connectable="0" parent="XYDd2NbNxL7BAlXsk03d-1">
                    <mxGeometry x="580" y="1260" width="120" height="20" as="geometry"/>
                </mxCell>
                <mxCell id="FBlt1kYhn6BSbzYnq00G-21" value="" style="rounded=0;whiteSpace=wrap;html=1;fontSize=12;strokeWidth=1;fillColor=#dae8fc;strokeColor=#6c8ebf;" vertex="1" parent="FBlt1kYhn6BSbzYnq00G-20">
                    <mxGeometry width="120" height="20" as="geometry"/>
                </mxCell>
                <mxCell id="FBlt1kYhn6BSbzYnq00G-22" value="b-" style="text;html=1;strokeColor=none;fillColor=none;align=center;verticalAlign=middle;rounded=0;fontSize=11;" vertex="1" parent="FBlt1kYhn6BSbzYnq00G-20">
                    <mxGeometry width="20" height="20" as="geometry"/>
                </mxCell>
                <mxCell id="FBlt1kYhn6BSbzYnq00G-23" value="b+" style="text;strokeColor=none;fillColor=none;align=center;verticalAlign=middle;rounded=0;fontSize=11;html=1;spacing=2;" vertex="1" parent="FBlt1kYhn6BSbzYnq00G-20">
                    <mxGeometry x="100" width="20" height="20" as="geometry"/>
                </mxCell>
                <mxCell id="FBlt1kYhn6BSbzYnq00G-24" value="" style="endArrow=none;dashed=1;html=1;strokeWidth=1;fontSize=11;fillColor=#dae8fc;strokeColor=#6c8ebf;" edge="1" parent="FBlt1kYhn6BSbzYnq00G-20">
                    <mxGeometry width="50" height="50" relative="1" as="geometry">
                        <mxPoint x="100" y="20" as="sourcePoint"/>
                        <mxPoint x="100" as="targetPoint"/>
                    </mxGeometry>
                </mxCell>
                <mxCell id="FBlt1kYhn6BSbzYnq00G-25" value="" style="endArrow=none;dashed=1;html=1;strokeWidth=1;fontSize=11;fillColor=#dae8fc;strokeColor=#6c8ebf;" edge="1" parent="FBlt1kYhn6BSbzYnq00G-20">
                    <mxGeometry width="50" height="50" relative="1" as="geometry">
                        <mxPoint x="20" y="20" as="sourcePoint"/>
                        <mxPoint x="20" as="targetPoint"/>
                    </mxGeometry>
                </mxCell>
                <mxCell id="YivHuGFthZbpz1Ygchjr-21" value="" style="endArrow=none;dashed=1;html=1;strokeWidth=1;fontSize=11;fillColor=#f5f5f5;strokeColor=#666666;" edge="1" parent="XYDd2NbNxL7BAlXsk03d-1">
                    <mxGeometry width="50" height="50" relative="1" as="geometry">
                        <mxPoint x="580" y="1300" as="sourcePoint"/>
                        <mxPoint x="580" y="1220" as="targetPoint"/>
                    </mxGeometry>
                </mxCell>
                <mxCell id="FBlt1kYhn6BSbzYnq00G-32" value="" style="group" vertex="1" connectable="0" parent="XYDd2NbNxL7BAlXsk03d-1">
                    <mxGeometry x="480" y="1320" width="120" height="20" as="geometry"/>
                </mxCell>
                <mxCell id="FBlt1kYhn6BSbzYnq00G-1" value="" style="rounded=0;whiteSpace=wrap;html=1;fontSize=12;strokeWidth=1;fillColor=#f8cecc;strokeColor=#b85450;" vertex="1" parent="FBlt1kYhn6BSbzYnq00G-32">
                    <mxGeometry width="120" height="20" as="geometry"/>
                </mxCell>
                <mxCell id="FBlt1kYhn6BSbzYnq00G-2" value="&lt;p style=&quot;line-height: 1.2&quot;&gt;a-&lt;/p&gt;" style="text;html=1;strokeColor=none;fillColor=none;align=center;verticalAlign=middle;rounded=0;fontSize=11;labelPosition=center;verticalLabelPosition=middle;horizontal=1;" vertex="1" parent="FBlt1kYhn6BSbzYnq00G-32">
                    <mxGeometry width="20" height="20" as="geometry"/>
                </mxCell>
                <mxCell id="FBlt1kYhn6BSbzYnq00G-3" value="a+" style="text;html=1;strokeColor=none;fillColor=none;align=center;verticalAlign=middle;rounded=0;fontSize=11;spacing=2;" vertex="1" parent="FBlt1kYhn6BSbzYnq00G-32">
                    <mxGeometry x="100" width="20" height="20" as="geometry"/>
                </mxCell>
                <mxCell id="FBlt1kYhn6BSbzYnq00G-4" value="" style="endArrow=none;dashed=1;html=1;strokeWidth=1;fontSize=11;fillColor=#f8cecc;strokeColor=#b85450;" edge="1" parent="FBlt1kYhn6BSbzYnq00G-32">
                    <mxGeometry width="50" height="50" relative="1" as="geometry">
                        <mxPoint x="100" y="20" as="sourcePoint"/>
                        <mxPoint x="100" as="targetPoint"/>
                    </mxGeometry>
                </mxCell>
                <mxCell id="FBlt1kYhn6BSbzYnq00G-5" value="" style="endArrow=none;dashed=1;html=1;strokeWidth=1;fontSize=11;fillColor=#f8cecc;strokeColor=#b85450;" edge="1" parent="FBlt1kYhn6BSbzYnq00G-32">
                    <mxGeometry width="50" height="50" relative="1" as="geometry">
                        <mxPoint x="20" y="20" as="sourcePoint"/>
                        <mxPoint x="20" as="targetPoint"/>
                    </mxGeometry>
                </mxCell>
                <mxCell id="FBlt1kYhn6BSbzYnq00G-12" value="" style="endArrow=none;dashed=1;html=1;strokeWidth=1;fontSize=11;fillColor=#f5f5f5;strokeColor=#666666;" edge="1" parent="XYDd2NbNxL7BAlXsk03d-1">
                    <mxGeometry width="50" height="50" relative="1" as="geometry">
                        <mxPoint x="600.4200000000001" y="1380" as="sourcePoint"/>
                        <mxPoint x="600" y="1320" as="targetPoint"/>
                    </mxGeometry>
                </mxCell>
                <mxCell id="FBlt1kYhn6BSbzYnq00G-13" value="" style="endArrow=none;dashed=1;html=1;strokeWidth=1;fontSize=11;fillColor=#f5f5f5;strokeColor=#666666;" edge="1" parent="XYDd2NbNxL7BAlXsk03d-1">
                    <mxGeometry width="50" height="50" relative="1" as="geometry">
                        <mxPoint x="540.21" y="1360" as="sourcePoint"/>
                        <mxPoint x="539.79" y="1300" as="targetPoint"/>
                    </mxGeometry>
                </mxCell>
                <mxCell id="FBlt1kYhn6BSbzYnq00G-33" value="" style="group" vertex="1" connectable="0" parent="XYDd2NbNxL7BAlXsk03d-1">
                    <mxGeometry x="480" y="1240" width="120" height="20" as="geometry"/>
                </mxCell>
                <mxCell id="FBlt1kYhn6BSbzYnq00G-34" value="" style="rounded=0;whiteSpace=wrap;html=1;fontSize=12;strokeWidth=1;fillColor=#f8cecc;strokeColor=#b85450;" vertex="1" parent="FBlt1kYhn6BSbzYnq00G-33">
                    <mxGeometry width="120" height="20" as="geometry"/>
                </mxCell>
                <mxCell id="FBlt1kYhn6BSbzYnq00G-35" value="&lt;p style=&quot;line-height: 1.2&quot;&gt;a-&lt;/p&gt;" style="text;html=1;strokeColor=none;fillColor=none;align=center;verticalAlign=middle;rounded=0;fontSize=11;labelPosition=center;verticalLabelPosition=middle;horizontal=1;" vertex="1" parent="FBlt1kYhn6BSbzYnq00G-33">
                    <mxGeometry width="20" height="20" as="geometry"/>
                </mxCell>
                <mxCell id="FBlt1kYhn6BSbzYnq00G-36" value="a+" style="text;html=1;strokeColor=none;fillColor=none;align=center;verticalAlign=middle;rounded=0;fontSize=11;spacing=2;" vertex="1" parent="FBlt1kYhn6BSbzYnq00G-33">
                    <mxGeometry x="100" width="20" height="20" as="geometry"/>
                </mxCell>
                <mxCell id="FBlt1kYhn6BSbzYnq00G-37" value="" style="endArrow=none;dashed=1;html=1;strokeWidth=1;fontSize=11;fillColor=#f8cecc;strokeColor=#b85450;" edge="1" parent="FBlt1kYhn6BSbzYnq00G-33">
                    <mxGeometry width="50" height="50" relative="1" as="geometry">
                        <mxPoint x="100" y="20" as="sourcePoint"/>
                        <mxPoint x="100" as="targetPoint"/>
                    </mxGeometry>
                </mxCell>
                <mxCell id="FBlt1kYhn6BSbzYnq00G-38" value="" style="endArrow=none;dashed=1;html=1;strokeWidth=1;fontSize=11;fillColor=#f8cecc;strokeColor=#b85450;" edge="1" parent="FBlt1kYhn6BSbzYnq00G-33">
                    <mxGeometry width="50" height="50" relative="1" as="geometry">
                        <mxPoint x="20" y="20" as="sourcePoint"/>
                        <mxPoint x="20" as="targetPoint"/>
                    </mxGeometry>
                </mxCell>
                <mxCell id="FBlt1kYhn6BSbzYnq00G-39" value="" style="group" vertex="1" connectable="0" parent="XYDd2NbNxL7BAlXsk03d-1">
                    <mxGeometry x="440" y="1160" width="120" height="20" as="geometry"/>
                </mxCell>
                <mxCell id="FBlt1kYhn6BSbzYnq00G-40" value="" style="rounded=0;whiteSpace=wrap;html=1;fontSize=12;strokeWidth=1;fillColor=#f8cecc;strokeColor=#b85450;" vertex="1" parent="FBlt1kYhn6BSbzYnq00G-39">
                    <mxGeometry width="120" height="20" as="geometry"/>
                </mxCell>
                <mxCell id="FBlt1kYhn6BSbzYnq00G-41" value="&lt;p style=&quot;line-height: 1.2&quot;&gt;a-&lt;/p&gt;" style="text;html=1;strokeColor=none;fillColor=none;align=center;verticalAlign=middle;rounded=0;fontSize=11;labelPosition=center;verticalLabelPosition=middle;horizontal=1;" vertex="1" parent="FBlt1kYhn6BSbzYnq00G-39">
                    <mxGeometry width="20" height="20" as="geometry"/>
                </mxCell>
                <mxCell id="FBlt1kYhn6BSbzYnq00G-42" value="a+" style="text;html=1;strokeColor=none;fillColor=none;align=center;verticalAlign=middle;rounded=0;fontSize=11;spacing=2;" vertex="1" parent="FBlt1kYhn6BSbzYnq00G-39">
                    <mxGeometry x="100" width="20" height="20" as="geometry"/>
                </mxCell>
                <mxCell id="FBlt1kYhn6BSbzYnq00G-43" value="" style="endArrow=none;dashed=1;html=1;strokeWidth=1;fontSize=11;fillColor=#f8cecc;strokeColor=#b85450;" edge="1" parent="FBlt1kYhn6BSbzYnq00G-39">
                    <mxGeometry width="50" height="50" relative="1" as="geometry">
                        <mxPoint x="100" y="20" as="sourcePoint"/>
                        <mxPoint x="100" as="targetPoint"/>
                    </mxGeometry>
                </mxCell>
                <mxCell id="FBlt1kYhn6BSbzYnq00G-44" value="" style="endArrow=none;dashed=1;html=1;strokeWidth=1;fontSize=11;fillColor=#f8cecc;strokeColor=#b85450;" edge="1" parent="FBlt1kYhn6BSbzYnq00G-39">
                    <mxGeometry width="50" height="50" relative="1" as="geometry">
                        <mxPoint x="20" y="20" as="sourcePoint"/>
                        <mxPoint x="20" as="targetPoint"/>
                    </mxGeometry>
                </mxCell>
                <mxCell id="FBlt1kYhn6BSbzYnq00G-45" value="" style="endArrow=block;html=1;fontSize=12;strokeWidth=1;fillColor=#f5f5f5;strokeColor=#666666;endFill=1;dashed=1;" edge="1" parent="XYDd2NbNxL7BAlXsk03d-1">
                    <mxGeometry width="50" height="50" relative="1" as="geometry">
                        <mxPoint x="360" y="1260" as="sourcePoint"/>
                        <mxPoint x="800" y="1260" as="targetPoint"/>
                    </mxGeometry>
                </mxCell>
                <mxCell id="FBlt1kYhn6BSbzYnq00G-46" value="" style="endArrow=block;html=1;fontSize=12;strokeWidth=1;fillColor=#f5f5f5;strokeColor=#666666;endFill=1;dashed=1;" edge="1" parent="XYDd2NbNxL7BAlXsk03d-1">
                    <mxGeometry width="50" height="50" relative="1" as="geometry">
                        <mxPoint x="360" y="1340" as="sourcePoint"/>
                        <mxPoint x="800" y="1340" as="targetPoint"/>
                    </mxGeometry>
                </mxCell>
                <mxCell id="vpoRn80c5bq_7TBHmYM5-0" value="" style="endArrow=block;html=1;fontSize=12;strokeWidth=1;fillColor=#f5f5f5;strokeColor=#666666;endFill=1;dashed=1;" edge="1" parent="XYDd2NbNxL7BAlXsk03d-1">
                    <mxGeometry width="50" height="50" relative="1" as="geometry">
                        <mxPoint x="360" y="1420" as="sourcePoint"/>
                        <mxPoint x="800" y="1420" as="targetPoint"/>
                    </mxGeometry>
                </mxCell>
                <mxCell id="vpoRn80c5bq_7TBHmYM5-1" value="" style="group" vertex="1" connectable="0" parent="XYDd2NbNxL7BAlXsk03d-1">
                    <mxGeometry x="540" y="1420" width="120" height="20" as="geometry"/>
                </mxCell>
                <mxCell id="vpoRn80c5bq_7TBHmYM5-2" value="" style="rounded=0;whiteSpace=wrap;html=1;fontSize=12;strokeWidth=1;fillColor=#dae8fc;strokeColor=#6c8ebf;" vertex="1" parent="vpoRn80c5bq_7TBHmYM5-1">
                    <mxGeometry width="120" height="20" as="geometry"/>
                </mxCell>
                <mxCell id="vpoRn80c5bq_7TBHmYM5-3" value="b-" style="text;html=1;strokeColor=none;fillColor=none;align=center;verticalAlign=middle;rounded=0;fontSize=11;" vertex="1" parent="vpoRn80c5bq_7TBHmYM5-1">
                    <mxGeometry width="20" height="20" as="geometry"/>
                </mxCell>
                <mxCell id="vpoRn80c5bq_7TBHmYM5-4" value="b+" style="text;strokeColor=none;fillColor=none;align=center;verticalAlign=middle;rounded=0;fontSize=11;html=1;spacing=2;" vertex="1" parent="vpoRn80c5bq_7TBHmYM5-1">
                    <mxGeometry x="100" width="20" height="20" as="geometry"/>
                </mxCell>
                <mxCell id="vpoRn80c5bq_7TBHmYM5-5" value="" style="endArrow=none;dashed=1;html=1;strokeWidth=1;fontSize=11;fillColor=#dae8fc;strokeColor=#6c8ebf;" edge="1" parent="vpoRn80c5bq_7TBHmYM5-1">
                    <mxGeometry width="50" height="50" relative="1" as="geometry">
                        <mxPoint x="100" y="20" as="sourcePoint"/>
                        <mxPoint x="100" as="targetPoint"/>
                    </mxGeometry>
                </mxCell>
                <mxCell id="vpoRn80c5bq_7TBHmYM5-6" value="" style="endArrow=none;dashed=1;html=1;strokeWidth=1;fontSize=11;fillColor=#dae8fc;strokeColor=#6c8ebf;" edge="1" parent="vpoRn80c5bq_7TBHmYM5-1">
                    <mxGeometry width="50" height="50" relative="1" as="geometry">
                        <mxPoint x="20" y="20" as="sourcePoint"/>
                        <mxPoint x="20" as="targetPoint"/>
                    </mxGeometry>
                </mxCell>
                <mxCell id="QcpTGeXif97IzdRSjaOj-0" value="" style="endArrow=none;dashed=1;html=1;strokeWidth=1;fontSize=11;fillColor=#f5f5f5;strokeColor=#666666;" edge="1" parent="XYDd2NbNxL7BAlXsk03d-1">
                    <mxGeometry width="50" height="50" relative="1" as="geometry">
                        <mxPoint x="539.77" y="1460" as="sourcePoint"/>
                        <mxPoint x="539.77" y="1380" as="targetPoint"/>
                    </mxGeometry>
                </mxCell>
                <mxCell id="I-vbU2NrTMf3zgkFfxq1-13" value="" style="endArrow=block;html=1;fontSize=12;strokeWidth=1;fillColor=#f5f5f5;strokeColor=#666666;endFill=1;dashed=1;" edge="1" parent="XYDd2NbNxL7BAlXsk03d-1">
                    <mxGeometry width="50" height="50" relative="1" as="geometry">
                        <mxPoint x="360" y="1500" as="sourcePoint"/>
                        <mxPoint x="800" y="1500" as="targetPoint"/>
                    </mxGeometry>
                </mxCell>
                <mxCell id="I-vbU2NrTMf3zgkFfxq1-14" value="" style="group" vertex="1" connectable="0" parent="XYDd2NbNxL7BAlXsk03d-1">
                    <mxGeometry x="540" y="1500" width="120" height="20" as="geometry"/>
                </mxCell>
                <mxCell id="I-vbU2NrTMf3zgkFfxq1-15" value="" style="rounded=0;whiteSpace=wrap;html=1;fontSize=12;strokeWidth=1;fillColor=#dae8fc;strokeColor=#6c8ebf;" vertex="1" parent="I-vbU2NrTMf3zgkFfxq1-14">
                    <mxGeometry width="120" height="20" as="geometry"/>
                </mxCell>
                <mxCell id="I-vbU2NrTMf3zgkFfxq1-16" value="b-" style="text;html=1;strokeColor=none;fillColor=none;align=center;verticalAlign=middle;rounded=0;fontSize=11;" vertex="1" parent="I-vbU2NrTMf3zgkFfxq1-14">
                    <mxGeometry width="20" height="20" as="geometry"/>
                </mxCell>
                <mxCell id="I-vbU2NrTMf3zgkFfxq1-17" value="b+" style="text;strokeColor=none;fillColor=none;align=center;verticalAlign=middle;rounded=0;fontSize=11;html=1;spacing=2;" vertex="1" parent="I-vbU2NrTMf3zgkFfxq1-14">
                    <mxGeometry x="100" width="20" height="20" as="geometry"/>
                </mxCell>
                <mxCell id="I-vbU2NrTMf3zgkFfxq1-18" value="" style="endArrow=none;dashed=1;html=1;strokeWidth=1;fontSize=11;fillColor=#dae8fc;strokeColor=#6c8ebf;" edge="1" parent="I-vbU2NrTMf3zgkFfxq1-14">
                    <mxGeometry width="50" height="50" relative="1" as="geometry">
                        <mxPoint x="100" y="20" as="sourcePoint"/>
                        <mxPoint x="100" as="targetPoint"/>
                    </mxGeometry>
                </mxCell>
                <mxCell id="I-vbU2NrTMf3zgkFfxq1-19" value="" style="endArrow=none;dashed=1;html=1;strokeWidth=1;fontSize=11;fillColor=#dae8fc;strokeColor=#6c8ebf;" edge="1" parent="I-vbU2NrTMf3zgkFfxq1-14">
                    <mxGeometry width="50" height="50" relative="1" as="geometry">
                        <mxPoint x="20" y="20" as="sourcePoint"/>
                        <mxPoint x="20" as="targetPoint"/>
                    </mxGeometry>
                </mxCell>
                <mxCell id="I-vbU2NrTMf3zgkFfxq1-25" value="" style="group" vertex="1" connectable="0" parent="XYDd2NbNxL7BAlXsk03d-1">
                    <mxGeometry x="540" y="1400" width="80" height="20" as="geometry"/>
                </mxCell>
                <mxCell id="vpoRn80c5bq_7TBHmYM5-8" value="" style="rounded=0;whiteSpace=wrap;html=1;fontSize=12;strokeWidth=1;fillColor=#f8cecc;strokeColor=#b85450;" vertex="1" parent="I-vbU2NrTMf3zgkFfxq1-25">
                    <mxGeometry width="80" height="20" as="geometry"/>
                </mxCell>
                <mxCell id="vpoRn80c5bq_7TBHmYM5-9" value="&lt;p style=&quot;line-height: 1.2&quot;&gt;a-&lt;/p&gt;" style="text;html=1;strokeColor=none;fillColor=none;align=center;verticalAlign=middle;rounded=0;fontSize=11;labelPosition=center;verticalLabelPosition=middle;horizontal=1;" vertex="1" parent="I-vbU2NrTMf3zgkFfxq1-25">
                    <mxGeometry width="20" height="20" as="geometry"/>
                </mxCell>
                <mxCell id="vpoRn80c5bq_7TBHmYM5-10" value="a+" style="text;html=1;strokeColor=none;fillColor=none;align=center;verticalAlign=middle;rounded=0;fontSize=11;spacing=2;" vertex="1" parent="I-vbU2NrTMf3zgkFfxq1-25">
                    <mxGeometry x="60" width="20" height="20" as="geometry"/>
                </mxCell>
                <mxCell id="vpoRn80c5bq_7TBHmYM5-11" value="" style="endArrow=none;dashed=1;html=1;strokeWidth=1;fontSize=11;fillColor=#f8cecc;strokeColor=#b85450;" edge="1" parent="I-vbU2NrTMf3zgkFfxq1-25">
                    <mxGeometry width="50" height="50" relative="1" as="geometry">
                        <mxPoint x="60" y="20" as="sourcePoint"/>
                        <mxPoint x="60" as="targetPoint"/>
                    </mxGeometry>
                </mxCell>
                <mxCell id="vpoRn80c5bq_7TBHmYM5-12" value="" style="endArrow=none;dashed=1;html=1;strokeWidth=1;fontSize=11;fillColor=#f8cecc;strokeColor=#b85450;" edge="1" parent="I-vbU2NrTMf3zgkFfxq1-25">
                    <mxGeometry width="50" height="50" relative="1" as="geometry">
                        <mxPoint x="20" y="20" as="sourcePoint"/>
                        <mxPoint x="20" as="targetPoint"/>
                    </mxGeometry>
                </mxCell>
                <mxCell id="I-vbU2NrTMf3zgkFfxq1-27" value="" style="group" vertex="1" connectable="0" parent="XYDd2NbNxL7BAlXsk03d-1">
                    <mxGeometry x="560" y="1480" width="80" height="20" as="geometry"/>
                </mxCell>
                <mxCell id="I-vbU2NrTMf3zgkFfxq1-28" value="" style="rounded=0;whiteSpace=wrap;html=1;fontSize=12;strokeWidth=1;fillColor=#f8cecc;strokeColor=#b85450;" vertex="1" parent="I-vbU2NrTMf3zgkFfxq1-27">
                    <mxGeometry width="80" height="20" as="geometry"/>
                </mxCell>
                <mxCell id="I-vbU2NrTMf3zgkFfxq1-29" value="&lt;p style=&quot;line-height: 1.2&quot;&gt;a-&lt;/p&gt;" style="text;html=1;strokeColor=none;fillColor=none;align=center;verticalAlign=middle;rounded=0;fontSize=11;labelPosition=center;verticalLabelPosition=middle;horizontal=1;" vertex="1" parent="I-vbU2NrTMf3zgkFfxq1-27">
                    <mxGeometry width="20" height="20" as="geometry"/>
                </mxCell>
                <mxCell id="I-vbU2NrTMf3zgkFfxq1-30" value="a+" style="text;html=1;strokeColor=none;fillColor=none;align=center;verticalAlign=middle;rounded=0;fontSize=11;spacing=2;" vertex="1" parent="I-vbU2NrTMf3zgkFfxq1-27">
                    <mxGeometry x="60" width="20" height="20" as="geometry"/>
                </mxCell>
                <mxCell id="I-vbU2NrTMf3zgkFfxq1-31" value="" style="endArrow=none;dashed=1;html=1;strokeWidth=1;fontSize=11;fillColor=#f8cecc;strokeColor=#b85450;" edge="1" parent="I-vbU2NrTMf3zgkFfxq1-27">
                    <mxGeometry width="50" height="50" relative="1" as="geometry">
                        <mxPoint x="60" y="20" as="sourcePoint"/>
                        <mxPoint x="60" as="targetPoint"/>
                    </mxGeometry>
                </mxCell>
                <mxCell id="I-vbU2NrTMf3zgkFfxq1-32" value="" style="endArrow=none;dashed=1;html=1;strokeWidth=1;fontSize=11;fillColor=#f8cecc;strokeColor=#b85450;" edge="1" parent="I-vbU2NrTMf3zgkFfxq1-27">
                    <mxGeometry width="50" height="50" relative="1" as="geometry">
                        <mxPoint x="20" y="20" as="sourcePoint"/>
                        <mxPoint x="20" as="targetPoint"/>
                    </mxGeometry>
                </mxCell>
                <mxCell id="y1E2kO1sPPJT3jSSbAgf-0" value="" style="endArrow=block;html=1;fontSize=12;strokeWidth=1;fillColor=#f5f5f5;strokeColor=#666666;endFill=1;dashed=1;" edge="1" parent="XYDd2NbNxL7BAlXsk03d-1">
                    <mxGeometry width="50" height="50" relative="1" as="geometry">
                        <mxPoint x="360" y="1580" as="sourcePoint"/>
                        <mxPoint x="800" y="1580" as="targetPoint"/>
                    </mxGeometry>
                </mxCell>
                <mxCell id="y1E2kO1sPPJT3jSSbAgf-1" value="" style="group" vertex="1" connectable="0" parent="XYDd2NbNxL7BAlXsk03d-1">
                    <mxGeometry x="540" y="1580" width="120" height="20" as="geometry"/>
                </mxCell>
                <mxCell id="y1E2kO1sPPJT3jSSbAgf-2" value="" style="rounded=0;whiteSpace=wrap;html=1;fontSize=12;strokeWidth=1;fillColor=#dae8fc;strokeColor=#6c8ebf;" vertex="1" parent="y1E2kO1sPPJT3jSSbAgf-1">
                    <mxGeometry width="120" height="20" as="geometry"/>
                </mxCell>
                <mxCell id="y1E2kO1sPPJT3jSSbAgf-3" value="b-" style="text;html=1;strokeColor=none;fillColor=none;align=center;verticalAlign=middle;rounded=0;fontSize=11;" vertex="1" parent="y1E2kO1sPPJT3jSSbAgf-1">
                    <mxGeometry width="20" height="20" as="geometry"/>
                </mxCell>
                <mxCell id="y1E2kO1sPPJT3jSSbAgf-4" value="b+" style="text;strokeColor=none;fillColor=none;align=center;verticalAlign=middle;rounded=0;fontSize=11;html=1;spacing=2;" vertex="1" parent="y1E2kO1sPPJT3jSSbAgf-1">
                    <mxGeometry x="100" width="20" height="20" as="geometry"/>
                </mxCell>
                <mxCell id="y1E2kO1sPPJT3jSSbAgf-5" value="" style="endArrow=none;dashed=1;html=1;strokeWidth=1;fontSize=11;fillColor=#dae8fc;strokeColor=#6c8ebf;" edge="1" parent="y1E2kO1sPPJT3jSSbAgf-1">
                    <mxGeometry width="50" height="50" relative="1" as="geometry">
                        <mxPoint x="100" y="20" as="sourcePoint"/>
                        <mxPoint x="100" as="targetPoint"/>
                    </mxGeometry>
                </mxCell>
                <mxCell id="y1E2kO1sPPJT3jSSbAgf-6" value="" style="endArrow=none;dashed=1;html=1;strokeWidth=1;fontSize=11;fillColor=#dae8fc;strokeColor=#6c8ebf;" edge="1" parent="y1E2kO1sPPJT3jSSbAgf-1">
                    <mxGeometry width="50" height="50" relative="1" as="geometry">
                        <mxPoint x="20" y="20" as="sourcePoint"/>
                        <mxPoint x="20" as="targetPoint"/>
                    </mxGeometry>
                </mxCell>
                <mxCell id="y1E2kO1sPPJT3jSSbAgf-7" value="" style="group" vertex="1" connectable="0" parent="XYDd2NbNxL7BAlXsk03d-1">
                    <mxGeometry x="580" y="1560" width="80" height="20" as="geometry"/>
                </mxCell>
                <mxCell id="y1E2kO1sPPJT3jSSbAgf-8" value="" style="rounded=0;whiteSpace=wrap;html=1;fontSize=12;strokeWidth=1;fillColor=#f8cecc;strokeColor=#b85450;" vertex="1" parent="y1E2kO1sPPJT3jSSbAgf-7">
                    <mxGeometry width="80" height="20" as="geometry"/>
                </mxCell>
                <mxCell id="y1E2kO1sPPJT3jSSbAgf-9" value="&lt;p style=&quot;line-height: 1.2&quot;&gt;a-&lt;/p&gt;" style="text;html=1;strokeColor=none;fillColor=none;align=center;verticalAlign=middle;rounded=0;fontSize=11;labelPosition=center;verticalLabelPosition=middle;horizontal=1;" vertex="1" parent="y1E2kO1sPPJT3jSSbAgf-7">
                    <mxGeometry width="20" height="20" as="geometry"/>
                </mxCell>
                <mxCell id="y1E2kO1sPPJT3jSSbAgf-10" value="a+" style="text;html=1;strokeColor=none;fillColor=none;align=center;verticalAlign=middle;rounded=0;fontSize=11;spacing=2;" vertex="1" parent="y1E2kO1sPPJT3jSSbAgf-7">
                    <mxGeometry x="60" width="20" height="20" as="geometry"/>
                </mxCell>
                <mxCell id="y1E2kO1sPPJT3jSSbAgf-11" value="" style="endArrow=none;dashed=1;html=1;strokeWidth=1;fontSize=11;fillColor=#f8cecc;strokeColor=#b85450;" edge="1" parent="y1E2kO1sPPJT3jSSbAgf-7">
                    <mxGeometry width="50" height="50" relative="1" as="geometry">
                        <mxPoint x="60" y="20" as="sourcePoint"/>
                        <mxPoint x="60" as="targetPoint"/>
                    </mxGeometry>
                </mxCell>
                <mxCell id="y1E2kO1sPPJT3jSSbAgf-12" value="" style="endArrow=none;dashed=1;html=1;strokeWidth=1;fontSize=11;fillColor=#f8cecc;strokeColor=#b85450;" edge="1" parent="y1E2kO1sPPJT3jSSbAgf-7">
                    <mxGeometry width="50" height="50" relative="1" as="geometry">
                        <mxPoint x="20" y="20" as="sourcePoint"/>
                        <mxPoint x="20" as="targetPoint"/>
                    </mxGeometry>
                </mxCell>
                <mxCell id="y1E2kO1sPPJT3jSSbAgf-13" value="" style="endArrow=none;dashed=1;html=1;strokeWidth=1;fontSize=11;fillColor=#f5f5f5;strokeColor=#666666;" edge="1" parent="XYDd2NbNxL7BAlXsk03d-1">
                    <mxGeometry width="50" height="50" relative="1" as="geometry">
                        <mxPoint x="660" y="1620" as="sourcePoint"/>
                        <mxPoint x="660" y="1540" as="targetPoint"/>
                    </mxGeometry>
                </mxCell>
                <mxCell id="Xh5zhuOq5iZVTDe1RV8S-0" value="" style="endArrow=block;html=1;fontSize=12;strokeWidth=1;fillColor=#f5f5f5;strokeColor=#666666;endFill=1;dashed=1;" edge="1" parent="XYDd2NbNxL7BAlXsk03d-1">
                    <mxGeometry width="50" height="50" relative="1" as="geometry">
                        <mxPoint x="360" y="1660" as="sourcePoint"/>
                        <mxPoint x="800" y="1660" as="targetPoint"/>
                    </mxGeometry>
                </mxCell>
                <mxCell id="Xh5zhuOq5iZVTDe1RV8S-1" value="" style="group" vertex="1" connectable="0" parent="XYDd2NbNxL7BAlXsk03d-1">
                    <mxGeometry x="540" y="1660" width="120" height="20" as="geometry"/>
                </mxCell>
                <mxCell id="Xh5zhuOq5iZVTDe1RV8S-2" value="" style="rounded=0;whiteSpace=wrap;html=1;fontSize=12;strokeWidth=1;fillColor=#dae8fc;strokeColor=#6c8ebf;" vertex="1" parent="Xh5zhuOq5iZVTDe1RV8S-1">
                    <mxGeometry width="120" height="20" as="geometry"/>
                </mxCell>
                <mxCell id="Xh5zhuOq5iZVTDe1RV8S-3" value="b-" style="text;html=1;strokeColor=none;fillColor=none;align=center;verticalAlign=middle;rounded=0;fontSize=11;" vertex="1" parent="Xh5zhuOq5iZVTDe1RV8S-1">
                    <mxGeometry width="20" height="20" as="geometry"/>
                </mxCell>
                <mxCell id="Xh5zhuOq5iZVTDe1RV8S-4" value="b+" style="text;strokeColor=none;fillColor=none;align=center;verticalAlign=middle;rounded=0;fontSize=11;html=1;spacing=2;" vertex="1" parent="Xh5zhuOq5iZVTDe1RV8S-1">
                    <mxGeometry x="100" width="20" height="20" as="geometry"/>
                </mxCell>
                <mxCell id="Xh5zhuOq5iZVTDe1RV8S-5" value="" style="endArrow=none;dashed=1;html=1;strokeWidth=1;fontSize=11;fillColor=#dae8fc;strokeColor=#6c8ebf;" edge="1" parent="Xh5zhuOq5iZVTDe1RV8S-1">
                    <mxGeometry width="50" height="50" relative="1" as="geometry">
                        <mxPoint x="100" y="20" as="sourcePoint"/>
                        <mxPoint x="100" as="targetPoint"/>
                    </mxGeometry>
                </mxCell>
                <mxCell id="Xh5zhuOq5iZVTDe1RV8S-6" value="" style="endArrow=none;dashed=1;html=1;strokeWidth=1;fontSize=11;fillColor=#dae8fc;strokeColor=#6c8ebf;" edge="1" parent="Xh5zhuOq5iZVTDe1RV8S-1">
                    <mxGeometry width="50" height="50" relative="1" as="geometry">
                        <mxPoint x="20" y="20" as="sourcePoint"/>
                        <mxPoint x="20" as="targetPoint"/>
                    </mxGeometry>
                </mxCell>
                <mxCell id="Xh5zhuOq5iZVTDe1RV8S-7" value="" style="group" vertex="1" connectable="0" parent="XYDd2NbNxL7BAlXsk03d-1">
                    <mxGeometry x="540" y="1640" width="120" height="20" as="geometry"/>
                </mxCell>
                <mxCell id="Xh5zhuOq5iZVTDe1RV8S-8" value="" style="rounded=0;whiteSpace=wrap;html=1;fontSize=12;strokeWidth=1;fillColor=#f8cecc;strokeColor=#b85450;" vertex="1" parent="Xh5zhuOq5iZVTDe1RV8S-7">
                    <mxGeometry width="120" height="20" as="geometry"/>
                </mxCell>
                <mxCell id="Xh5zhuOq5iZVTDe1RV8S-9" value="&lt;p style=&quot;line-height: 1.2&quot;&gt;a-&lt;/p&gt;" style="text;html=1;strokeColor=none;fillColor=none;align=center;verticalAlign=middle;rounded=0;fontSize=11;labelPosition=center;verticalLabelPosition=middle;horizontal=1;" vertex="1" parent="Xh5zhuOq5iZVTDe1RV8S-7">
                    <mxGeometry width="20" height="20" as="geometry"/>
                </mxCell>
                <mxCell id="Xh5zhuOq5iZVTDe1RV8S-10" value="a+" style="text;html=1;strokeColor=none;fillColor=none;align=center;verticalAlign=middle;rounded=0;fontSize=11;spacing=2;" vertex="1" parent="Xh5zhuOq5iZVTDe1RV8S-7">
                    <mxGeometry x="100" width="20" height="20" as="geometry"/>
                </mxCell>
                <mxCell id="Xh5zhuOq5iZVTDe1RV8S-11" value="" style="endArrow=none;dashed=1;html=1;strokeWidth=1;fontSize=11;fillColor=#f8cecc;strokeColor=#b85450;" edge="1" parent="Xh5zhuOq5iZVTDe1RV8S-7">
                    <mxGeometry width="50" height="50" relative="1" as="geometry">
                        <mxPoint x="100" y="20" as="sourcePoint"/>
                        <mxPoint x="100" as="targetPoint"/>
                    </mxGeometry>
                </mxCell>
                <mxCell id="Xh5zhuOq5iZVTDe1RV8S-12" value="" style="endArrow=none;dashed=1;html=1;strokeWidth=1;fontSize=11;fillColor=#f8cecc;strokeColor=#b85450;" edge="1" parent="Xh5zhuOq5iZVTDe1RV8S-7">
                    <mxGeometry width="50" height="50" relative="1" as="geometry">
                        <mxPoint x="20" y="20" as="sourcePoint"/>
                        <mxPoint x="20" as="targetPoint"/>
                    </mxGeometry>
                </mxCell>
                <mxCell id="jW35Ju3QsrA0i5eTZ7e2-1" value="" style="endArrow=block;html=1;fontSize=12;strokeWidth=1;fillColor=#f5f5f5;strokeColor=#666666;endFill=1;dashed=1;" edge="1" parent="XYDd2NbNxL7BAlXsk03d-1">
                    <mxGeometry width="50" height="50" relative="1" as="geometry">
                        <mxPoint x="360" y="1740" as="sourcePoint"/>
                        <mxPoint x="800" y="1740" as="targetPoint"/>
                    </mxGeometry>
                </mxCell>
                <mxCell id="jW35Ju3QsrA0i5eTZ7e2-2" value="" style="group" vertex="1" connectable="0" parent="XYDd2NbNxL7BAlXsk03d-1">
                    <mxGeometry x="540" y="1740" width="120" height="20" as="geometry"/>
                </mxCell>
                <mxCell id="jW35Ju3QsrA0i5eTZ7e2-3" value="" style="rounded=0;whiteSpace=wrap;html=1;fontSize=12;strokeWidth=1;fillColor=#dae8fc;strokeColor=#6c8ebf;" vertex="1" parent="jW35Ju3QsrA0i5eTZ7e2-2">
                    <mxGeometry width="120" height="20" as="geometry"/>
                </mxCell>
                <mxCell id="jW35Ju3QsrA0i5eTZ7e2-4" value="b-" style="text;html=1;strokeColor=none;fillColor=none;align=center;verticalAlign=middle;rounded=0;fontSize=11;" vertex="1" parent="jW35Ju3QsrA0i5eTZ7e2-2">
                    <mxGeometry width="20" height="20" as="geometry"/>
                </mxCell>
                <mxCell id="jW35Ju3QsrA0i5eTZ7e2-5" value="b+" style="text;strokeColor=none;fillColor=none;align=center;verticalAlign=middle;rounded=0;fontSize=11;html=1;spacing=2;" vertex="1" parent="jW35Ju3QsrA0i5eTZ7e2-2">
                    <mxGeometry x="100" width="20" height="20" as="geometry"/>
                </mxCell>
                <mxCell id="jW35Ju3QsrA0i5eTZ7e2-6" value="" style="endArrow=none;dashed=1;html=1;strokeWidth=1;fontSize=11;fillColor=#dae8fc;strokeColor=#6c8ebf;" edge="1" parent="jW35Ju3QsrA0i5eTZ7e2-2">
                    <mxGeometry width="50" height="50" relative="1" as="geometry">
                        <mxPoint x="100" y="20" as="sourcePoint"/>
                        <mxPoint x="100" as="targetPoint"/>
                    </mxGeometry>
                </mxCell>
                <mxCell id="jW35Ju3QsrA0i5eTZ7e2-7" value="" style="endArrow=none;dashed=1;html=1;strokeWidth=1;fontSize=11;fillColor=#dae8fc;strokeColor=#6c8ebf;" edge="1" parent="jW35Ju3QsrA0i5eTZ7e2-2">
                    <mxGeometry width="50" height="50" relative="1" as="geometry">
                        <mxPoint x="20" y="20" as="sourcePoint"/>
                        <mxPoint x="20" as="targetPoint"/>
                    </mxGeometry>
                </mxCell>
                <mxCell id="jW35Ju3QsrA0i5eTZ7e2-14" value="" style="group" vertex="1" connectable="0" parent="XYDd2NbNxL7BAlXsk03d-1">
                    <mxGeometry x="540" y="1720" width="80" height="20" as="geometry"/>
                </mxCell>
                <mxCell id="jW35Ju3QsrA0i5eTZ7e2-15" value="" style="rounded=0;whiteSpace=wrap;html=1;fontSize=12;strokeWidth=1;fillColor=#f8cecc;strokeColor=#b85450;" vertex="1" parent="jW35Ju3QsrA0i5eTZ7e2-14">
                    <mxGeometry width="80" height="20" as="geometry"/>
                </mxCell>
                <mxCell id="jW35Ju3QsrA0i5eTZ7e2-16" value="&lt;p style=&quot;line-height: 1.2&quot;&gt;a-&lt;/p&gt;" style="text;html=1;strokeColor=none;fillColor=none;align=center;verticalAlign=middle;rounded=0;fontSize=11;labelPosition=center;verticalLabelPosition=middle;horizontal=1;" vertex="1" parent="jW35Ju3QsrA0i5eTZ7e2-14">
                    <mxGeometry width="20" height="20" as="geometry"/>
                </mxCell>
                <mxCell id="jW35Ju3QsrA0i5eTZ7e2-17" value="a+" style="text;html=1;strokeColor=none;fillColor=none;align=center;verticalAlign=middle;rounded=0;fontSize=11;spacing=2;" vertex="1" parent="jW35Ju3QsrA0i5eTZ7e2-14">
                    <mxGeometry x="60" width="20" height="20" as="geometry"/>
                </mxCell>
                <mxCell id="jW35Ju3QsrA0i5eTZ7e2-18" value="" style="endArrow=none;dashed=1;html=1;strokeWidth=1;fontSize=11;fillColor=#f8cecc;strokeColor=#b85450;" edge="1" parent="jW35Ju3QsrA0i5eTZ7e2-14">
                    <mxGeometry width="50" height="50" relative="1" as="geometry">
                        <mxPoint x="60" y="20" as="sourcePoint"/>
                        <mxPoint x="60" as="targetPoint"/>
                    </mxGeometry>
                </mxCell>
                <mxCell id="jW35Ju3QsrA0i5eTZ7e2-19" value="" style="endArrow=none;dashed=1;html=1;strokeWidth=1;fontSize=11;fillColor=#f8cecc;strokeColor=#b85450;" edge="1" parent="jW35Ju3QsrA0i5eTZ7e2-14">
                    <mxGeometry width="50" height="50" relative="1" as="geometry">
                        <mxPoint x="20" y="20" as="sourcePoint"/>
                        <mxPoint x="20" as="targetPoint"/>
                    </mxGeometry>
                </mxCell>
                <mxCell id="jW35Ju3QsrA0i5eTZ7e2-20" value="" style="group" vertex="1" connectable="0" parent="XYDd2NbNxL7BAlXsk03d-1">
                    <mxGeometry x="520" y="1760" width="120" height="20" as="geometry"/>
                </mxCell>
                <mxCell id="jW35Ju3QsrA0i5eTZ7e2-21" value="" style="rounded=0;whiteSpace=wrap;html=1;fontSize=12;strokeWidth=1;fillColor=#dae8fc;strokeColor=#6c8ebf;" vertex="1" parent="jW35Ju3QsrA0i5eTZ7e2-20">
                    <mxGeometry width="120" height="20" as="geometry"/>
                </mxCell>
                <mxCell id="jW35Ju3QsrA0i5eTZ7e2-22" value="b-" style="text;html=1;strokeColor=none;fillColor=none;align=center;verticalAlign=middle;rounded=0;fontSize=11;" vertex="1" parent="jW35Ju3QsrA0i5eTZ7e2-20">
                    <mxGeometry width="20" height="20" as="geometry"/>
                </mxCell>
                <mxCell id="jW35Ju3QsrA0i5eTZ7e2-23" value="b+" style="text;strokeColor=none;fillColor=none;align=center;verticalAlign=middle;rounded=0;fontSize=11;html=1;spacing=2;" vertex="1" parent="jW35Ju3QsrA0i5eTZ7e2-20">
                    <mxGeometry x="100" width="20" height="20" as="geometry"/>
                </mxCell>
                <mxCell id="jW35Ju3QsrA0i5eTZ7e2-24" value="" style="endArrow=none;dashed=1;html=1;strokeWidth=1;fontSize=11;fillColor=#dae8fc;strokeColor=#6c8ebf;" edge="1" parent="jW35Ju3QsrA0i5eTZ7e2-20">
                    <mxGeometry width="50" height="50" relative="1" as="geometry">
                        <mxPoint x="100" y="20" as="sourcePoint"/>
                        <mxPoint x="100" as="targetPoint"/>
                    </mxGeometry>
                </mxCell>
                <mxCell id="jW35Ju3QsrA0i5eTZ7e2-25" value="" style="endArrow=none;dashed=1;html=1;strokeWidth=1;fontSize=11;fillColor=#dae8fc;strokeColor=#6c8ebf;" edge="1" parent="jW35Ju3QsrA0i5eTZ7e2-20">
                    <mxGeometry width="50" height="50" relative="1" as="geometry">
                        <mxPoint x="20" y="20" as="sourcePoint"/>
                        <mxPoint x="20" as="targetPoint"/>
                    </mxGeometry>
                </mxCell>
                <mxCell id="jW35Ju3QsrA0i5eTZ7e2-26" value="" style="group" vertex="1" connectable="0" parent="XYDd2NbNxL7BAlXsk03d-1">
                    <mxGeometry x="500" y="1780" width="120" height="20" as="geometry"/>
                </mxCell>
                <mxCell id="jW35Ju3QsrA0i5eTZ7e2-27" value="" style="rounded=0;whiteSpace=wrap;html=1;fontSize=12;strokeWidth=1;fillColor=#dae8fc;strokeColor=#6c8ebf;" vertex="1" parent="jW35Ju3QsrA0i5eTZ7e2-26">
                    <mxGeometry width="120" height="20" as="geometry"/>
                </mxCell>
                <mxCell id="jW35Ju3QsrA0i5eTZ7e2-28" value="b-" style="text;html=1;strokeColor=none;fillColor=none;align=center;verticalAlign=middle;rounded=0;fontSize=11;" vertex="1" parent="jW35Ju3QsrA0i5eTZ7e2-26">
                    <mxGeometry width="20" height="20" as="geometry"/>
                </mxCell>
                <mxCell id="jW35Ju3QsrA0i5eTZ7e2-29" value="b+" style="text;strokeColor=none;fillColor=none;align=center;verticalAlign=middle;rounded=0;fontSize=11;html=1;spacing=2;" vertex="1" parent="jW35Ju3QsrA0i5eTZ7e2-26">
                    <mxGeometry x="100" width="20" height="20" as="geometry"/>
                </mxCell>
                <mxCell id="jW35Ju3QsrA0i5eTZ7e2-30" value="" style="endArrow=none;dashed=1;html=1;strokeWidth=1;fontSize=11;fillColor=#dae8fc;strokeColor=#6c8ebf;" edge="1" parent="jW35Ju3QsrA0i5eTZ7e2-26">
                    <mxGeometry width="50" height="50" relative="1" as="geometry">
                        <mxPoint x="100" y="20" as="sourcePoint"/>
                        <mxPoint x="100" as="targetPoint"/>
                    </mxGeometry>
                </mxCell>
                <mxCell id="jW35Ju3QsrA0i5eTZ7e2-31" value="" style="endArrow=none;dashed=1;html=1;strokeWidth=1;fontSize=11;fillColor=#dae8fc;strokeColor=#6c8ebf;" edge="1" parent="jW35Ju3QsrA0i5eTZ7e2-26">
                    <mxGeometry width="50" height="50" relative="1" as="geometry">
                        <mxPoint x="20" y="20" as="sourcePoint"/>
                        <mxPoint x="20" as="targetPoint"/>
                    </mxGeometry>
                </mxCell>
                <mxCell id="jW35Ju3QsrA0i5eTZ7e2-38" value="" style="group" vertex="1" connectable="0" parent="XYDd2NbNxL7BAlXsk03d-1">
                    <mxGeometry x="540" y="1800" width="80" height="20" as="geometry"/>
                </mxCell>
                <mxCell id="jW35Ju3QsrA0i5eTZ7e2-33" value="" style="rounded=0;whiteSpace=wrap;html=1;fontSize=12;strokeWidth=1;fillColor=#dae8fc;strokeColor=#6c8ebf;" vertex="1" parent="jW35Ju3QsrA0i5eTZ7e2-38">
                    <mxGeometry width="80" height="20" as="geometry"/>
                </mxCell>
                <mxCell id="jW35Ju3QsrA0i5eTZ7e2-34" value="b-" style="text;html=1;strokeColor=none;fillColor=none;align=center;verticalAlign=middle;rounded=0;fontSize=11;" vertex="1" parent="jW35Ju3QsrA0i5eTZ7e2-38">
                    <mxGeometry width="20" height="20" as="geometry"/>
                </mxCell>
                <mxCell id="jW35Ju3QsrA0i5eTZ7e2-35" value="b+" style="text;strokeColor=none;fillColor=none;align=center;verticalAlign=middle;rounded=0;fontSize=11;html=1;spacing=2;" vertex="1" parent="jW35Ju3QsrA0i5eTZ7e2-38">
                    <mxGeometry x="60" width="20" height="20" as="geometry"/>
                </mxCell>
                <mxCell id="jW35Ju3QsrA0i5eTZ7e2-36" value="" style="endArrow=none;dashed=1;html=1;strokeWidth=1;fontSize=11;fillColor=#dae8fc;strokeColor=#6c8ebf;" edge="1" parent="jW35Ju3QsrA0i5eTZ7e2-38">
                    <mxGeometry width="50" height="50" relative="1" as="geometry">
                        <mxPoint x="60" y="20" as="sourcePoint"/>
                        <mxPoint x="60" as="targetPoint"/>
                    </mxGeometry>
                </mxCell>
                <mxCell id="jW35Ju3QsrA0i5eTZ7e2-37" value="" style="endArrow=none;dashed=1;html=1;strokeWidth=1;fontSize=11;fillColor=#dae8fc;strokeColor=#6c8ebf;" edge="1" parent="jW35Ju3QsrA0i5eTZ7e2-38">
                    <mxGeometry width="50" height="50" relative="1" as="geometry">
                        <mxPoint x="19.66999999999996" y="20" as="sourcePoint"/>
                        <mxPoint x="19.66999999999996" as="targetPoint"/>
                    </mxGeometry>
                </mxCell>
                <mxCell id="BtcmMyWxhL9OFidOPRIg-0" value="a.starts(b)" style="text;html=1;strokeColor=none;fillColor=none;align=left;verticalAlign=middle;whiteSpace=wrap;rounded=0;fontSize=11;fontColor=#666666;" vertex="1" parent="XYDd2NbNxL7BAlXsk03d-1">
                    <mxGeometry x="680" y="1740" width="80" height="20" as="geometry"/>
                </mxCell>
                <mxCell id="BtcmMyWxhL9OFidOPRIg-1" value="a.during(b)" style="text;html=1;strokeColor=none;fillColor=none;align=left;verticalAlign=middle;whiteSpace=wrap;rounded=0;fontSize=11;fontColor=#666666;" vertex="1" parent="XYDd2NbNxL7BAlXsk03d-1">
                    <mxGeometry x="680" y="1760" width="80" height="20" as="geometry"/>
                </mxCell>
                <mxCell id="BtcmMyWxhL9OFidOPRIg-2" value="a.finishes(b)" style="text;html=1;strokeColor=none;fillColor=none;align=left;verticalAlign=middle;whiteSpace=wrap;rounded=0;fontSize=11;fontColor=#666666;" vertex="1" parent="XYDd2NbNxL7BAlXsk03d-1">
                    <mxGeometry x="680" y="1780" width="80" height="20" as="geometry"/>
                </mxCell>
                <mxCell id="BtcmMyWxhL9OFidOPRIg-3" value="a.equalsTo(b)" style="text;html=1;strokeColor=none;fillColor=none;align=left;verticalAlign=middle;whiteSpace=wrap;rounded=0;fontSize=11;fontColor=#666666;" vertex="1" parent="XYDd2NbNxL7BAlXsk03d-1">
                    <mxGeometry x="680" y="1800" width="80" height="20" as="geometry"/>
                </mxCell>
                <mxCell id="BtcmMyWxhL9OFidOPRIg-4" value="" style="endArrow=block;html=1;fontSize=12;strokeWidth=1;fillColor=#f5f5f5;strokeColor=#666666;endFill=1;dashed=1;" edge="1" parent="XYDd2NbNxL7BAlXsk03d-1">
                    <mxGeometry width="50" height="50" relative="1" as="geometry">
                        <mxPoint x="360" y="1860" as="sourcePoint"/>
                        <mxPoint x="800" y="1860" as="targetPoint"/>
                    </mxGeometry>
                </mxCell>
                <mxCell id="BtcmMyWxhL9OFidOPRIg-29" value="" style="group" vertex="1" connectable="0" parent="XYDd2NbNxL7BAlXsk03d-1">
                    <mxGeometry x="520" y="1860" width="80" height="20" as="geometry"/>
                </mxCell>
                <mxCell id="BtcmMyWxhL9OFidOPRIg-30" value="" style="rounded=0;whiteSpace=wrap;html=1;fontSize=12;strokeWidth=1;fillColor=#dae8fc;strokeColor=#6c8ebf;" vertex="1" parent="BtcmMyWxhL9OFidOPRIg-29">
                    <mxGeometry width="80" height="20" as="geometry"/>
                </mxCell>
                <mxCell id="BtcmMyWxhL9OFidOPRIg-31" value="b-" style="text;html=1;strokeColor=none;fillColor=none;align=center;verticalAlign=middle;rounded=0;fontSize=11;" vertex="1" parent="BtcmMyWxhL9OFidOPRIg-29">
                    <mxGeometry width="20" height="20" as="geometry"/>
                </mxCell>
                <mxCell id="BtcmMyWxhL9OFidOPRIg-32" value="b+" style="text;strokeColor=none;fillColor=none;align=center;verticalAlign=middle;rounded=0;fontSize=11;html=1;spacing=2;" vertex="1" parent="BtcmMyWxhL9OFidOPRIg-29">
                    <mxGeometry x="60" width="20" height="20" as="geometry"/>
                </mxCell>
                <mxCell id="BtcmMyWxhL9OFidOPRIg-33" value="" style="endArrow=none;dashed=1;html=1;strokeWidth=1;fontSize=11;fillColor=#dae8fc;strokeColor=#6c8ebf;" edge="1" parent="BtcmMyWxhL9OFidOPRIg-29">
                    <mxGeometry width="50" height="50" relative="1" as="geometry">
                        <mxPoint x="60" y="20" as="sourcePoint"/>
                        <mxPoint x="60" as="targetPoint"/>
                    </mxGeometry>
                </mxCell>
                <mxCell id="BtcmMyWxhL9OFidOPRIg-34" value="" style="endArrow=none;dashed=1;html=1;strokeWidth=1;fontSize=11;fillColor=#dae8fc;strokeColor=#6c8ebf;" edge="1" parent="BtcmMyWxhL9OFidOPRIg-29">
                    <mxGeometry width="50" height="50" relative="1" as="geometry">
                        <mxPoint x="19.66999999999996" y="20" as="sourcePoint"/>
                        <mxPoint x="19.66999999999996" as="targetPoint"/>
                    </mxGeometry>
                </mxCell>
                <mxCell id="BtcmMyWxhL9OFidOPRIg-35" value="a.isStartedBy(b)" style="text;html=1;strokeColor=none;fillColor=none;align=left;verticalAlign=middle;whiteSpace=wrap;rounded=0;fontSize=11;fontColor=#666666;" vertex="1" parent="XYDd2NbNxL7BAlXsk03d-1">
                    <mxGeometry x="680" y="1860" width="80" height="20" as="geometry"/>
                </mxCell>
                <mxCell id="BtcmMyWxhL9OFidOPRIg-36" value="a.contains(b)" style="text;html=1;strokeColor=none;fillColor=none;align=left;verticalAlign=middle;whiteSpace=wrap;rounded=0;fontSize=11;fontColor=#666666;" vertex="1" parent="XYDd2NbNxL7BAlXsk03d-1">
                    <mxGeometry x="680" y="1880" width="80" height="20" as="geometry"/>
                </mxCell>
                <mxCell id="BtcmMyWxhL9OFidOPRIg-37" value="a.isFinishedBy(b)" style="text;html=1;strokeColor=none;fillColor=none;align=left;verticalAlign=middle;whiteSpace=wrap;rounded=0;fontSize=11;fontColor=#666666;" vertex="1" parent="XYDd2NbNxL7BAlXsk03d-1">
                    <mxGeometry x="680" y="1900" width="80" height="20" as="geometry"/>
                </mxCell>
                <mxCell id="BtcmMyWxhL9OFidOPRIg-38" value="a.equalsTo(b)" style="text;html=1;strokeColor=none;fillColor=none;align=left;verticalAlign=middle;whiteSpace=wrap;rounded=0;fontSize=11;fontColor=#666666;" vertex="1" parent="XYDd2NbNxL7BAlXsk03d-1">
                    <mxGeometry x="680" y="1920" width="80" height="20" as="geometry"/>
                </mxCell>
                <mxCell id="BtcmMyWxhL9OFidOPRIg-40" value="" style="group" vertex="1" connectable="0" parent="XYDd2NbNxL7BAlXsk03d-1">
                    <mxGeometry x="520" y="1840" width="120" height="20" as="geometry"/>
                </mxCell>
                <mxCell id="BtcmMyWxhL9OFidOPRIg-41" value="" style="rounded=0;whiteSpace=wrap;html=1;fontSize=12;strokeWidth=1;fillColor=#f8cecc;strokeColor=#b85450;" vertex="1" parent="BtcmMyWxhL9OFidOPRIg-40">
                    <mxGeometry width="120" height="20" as="geometry"/>
                </mxCell>
                <mxCell id="BtcmMyWxhL9OFidOPRIg-42" value="&lt;p style=&quot;line-height: 1.2&quot;&gt;a-&lt;/p&gt;" style="text;html=1;strokeColor=none;fillColor=none;align=center;verticalAlign=middle;rounded=0;fontSize=11;labelPosition=center;verticalLabelPosition=middle;horizontal=1;" vertex="1" parent="BtcmMyWxhL9OFidOPRIg-40">
                    <mxGeometry width="20" height="20" as="geometry"/>
                </mxCell>
                <mxCell id="BtcmMyWxhL9OFidOPRIg-43" value="a+" style="text;html=1;strokeColor=none;fillColor=none;align=center;verticalAlign=middle;rounded=0;fontSize=11;spacing=2;" vertex="1" parent="BtcmMyWxhL9OFidOPRIg-40">
                    <mxGeometry x="100" width="20" height="20" as="geometry"/>
                </mxCell>
                <mxCell id="BtcmMyWxhL9OFidOPRIg-44" value="" style="endArrow=none;dashed=1;html=1;strokeWidth=1;fontSize=11;fillColor=#f8cecc;strokeColor=#b85450;" edge="1" parent="BtcmMyWxhL9OFidOPRIg-40">
                    <mxGeometry width="50" height="50" relative="1" as="geometry">
                        <mxPoint x="100" y="20" as="sourcePoint"/>
                        <mxPoint x="100" as="targetPoint"/>
                    </mxGeometry>
                </mxCell>
                <mxCell id="BtcmMyWxhL9OFidOPRIg-45" value="" style="endArrow=none;dashed=1;html=1;strokeWidth=1;fontSize=11;fillColor=#f8cecc;strokeColor=#b85450;" edge="1" parent="BtcmMyWxhL9OFidOPRIg-40">
                    <mxGeometry width="50" height="50" relative="1" as="geometry">
                        <mxPoint x="20" y="20" as="sourcePoint"/>
                        <mxPoint x="20" as="targetPoint"/>
                    </mxGeometry>
                </mxCell>
                <mxCell id="BtcmMyWxhL9OFidOPRIg-46" value="" style="group" vertex="1" connectable="0" parent="XYDd2NbNxL7BAlXsk03d-1">
                    <mxGeometry x="540" y="1880" width="80" height="20" as="geometry"/>
                </mxCell>
                <mxCell id="BtcmMyWxhL9OFidOPRIg-47" value="" style="rounded=0;whiteSpace=wrap;html=1;fontSize=12;strokeWidth=1;fillColor=#dae8fc;strokeColor=#6c8ebf;" vertex="1" parent="BtcmMyWxhL9OFidOPRIg-46">
                    <mxGeometry width="80" height="20" as="geometry"/>
                </mxCell>
                <mxCell id="BtcmMyWxhL9OFidOPRIg-48" value="b-" style="text;html=1;strokeColor=none;fillColor=none;align=center;verticalAlign=middle;rounded=0;fontSize=11;" vertex="1" parent="BtcmMyWxhL9OFidOPRIg-46">
                    <mxGeometry width="20" height="20" as="geometry"/>
                </mxCell>
                <mxCell id="BtcmMyWxhL9OFidOPRIg-49" value="b+" style="text;strokeColor=none;fillColor=none;align=center;verticalAlign=middle;rounded=0;fontSize=11;html=1;spacing=2;" vertex="1" parent="BtcmMyWxhL9OFidOPRIg-46">
                    <mxGeometry x="60" width="20" height="20" as="geometry"/>
                </mxCell>
                <mxCell id="BtcmMyWxhL9OFidOPRIg-50" value="" style="endArrow=none;dashed=1;html=1;strokeWidth=1;fontSize=11;fillColor=#dae8fc;strokeColor=#6c8ebf;" edge="1" parent="BtcmMyWxhL9OFidOPRIg-46">
                    <mxGeometry width="50" height="50" relative="1" as="geometry">
                        <mxPoint x="60" y="20" as="sourcePoint"/>
                        <mxPoint x="60" as="targetPoint"/>
                    </mxGeometry>
                </mxCell>
                <mxCell id="BtcmMyWxhL9OFidOPRIg-51" value="" style="endArrow=none;dashed=1;html=1;strokeWidth=1;fontSize=11;fillColor=#dae8fc;strokeColor=#6c8ebf;" edge="1" parent="BtcmMyWxhL9OFidOPRIg-46">
                    <mxGeometry width="50" height="50" relative="1" as="geometry">
                        <mxPoint x="19.66999999999996" y="20" as="sourcePoint"/>
                        <mxPoint x="19.66999999999996" as="targetPoint"/>
                    </mxGeometry>
                </mxCell>
                <mxCell id="BtcmMyWxhL9OFidOPRIg-52" value="" style="group" vertex="1" connectable="0" parent="XYDd2NbNxL7BAlXsk03d-1">
                    <mxGeometry x="560" y="1900" width="80" height="20" as="geometry"/>
                </mxCell>
                <mxCell id="BtcmMyWxhL9OFidOPRIg-53" value="" style="rounded=0;whiteSpace=wrap;html=1;fontSize=12;strokeWidth=1;fillColor=#dae8fc;strokeColor=#6c8ebf;" vertex="1" parent="BtcmMyWxhL9OFidOPRIg-52">
                    <mxGeometry width="80" height="20" as="geometry"/>
                </mxCell>
                <mxCell id="BtcmMyWxhL9OFidOPRIg-54" value="b-" style="text;html=1;strokeColor=none;fillColor=none;align=center;verticalAlign=middle;rounded=0;fontSize=11;" vertex="1" parent="BtcmMyWxhL9OFidOPRIg-52">
                    <mxGeometry width="20" height="20" as="geometry"/>
                </mxCell>
                <mxCell id="BtcmMyWxhL9OFidOPRIg-55" value="b+" style="text;strokeColor=none;fillColor=none;align=center;verticalAlign=middle;rounded=0;fontSize=11;html=1;spacing=2;" vertex="1" parent="BtcmMyWxhL9OFidOPRIg-52">
                    <mxGeometry x="60" width="20" height="20" as="geometry"/>
                </mxCell>
                <mxCell id="BtcmMyWxhL9OFidOPRIg-56" value="" style="endArrow=none;dashed=1;html=1;strokeWidth=1;fontSize=11;fillColor=#dae8fc;strokeColor=#6c8ebf;" edge="1" parent="BtcmMyWxhL9OFidOPRIg-52">
                    <mxGeometry width="50" height="50" relative="1" as="geometry">
                        <mxPoint x="60" y="20" as="sourcePoint"/>
                        <mxPoint x="60" as="targetPoint"/>
                    </mxGeometry>
                </mxCell>
                <mxCell id="BtcmMyWxhL9OFidOPRIg-57" value="" style="endArrow=none;dashed=1;html=1;strokeWidth=1;fontSize=11;fillColor=#dae8fc;strokeColor=#6c8ebf;" edge="1" parent="BtcmMyWxhL9OFidOPRIg-52">
                    <mxGeometry width="50" height="50" relative="1" as="geometry">
                        <mxPoint x="19.66999999999996" y="20" as="sourcePoint"/>
                        <mxPoint x="19.66999999999996" as="targetPoint"/>
                    </mxGeometry>
                </mxCell>
                <mxCell id="BtcmMyWxhL9OFidOPRIg-58" value="" style="group" vertex="1" connectable="0" parent="XYDd2NbNxL7BAlXsk03d-1">
                    <mxGeometry x="520" y="1920" width="120" height="20" as="geometry"/>
                </mxCell>
                <mxCell id="BtcmMyWxhL9OFidOPRIg-59" value="" style="rounded=0;whiteSpace=wrap;html=1;fontSize=12;strokeWidth=1;fillColor=#dae8fc;strokeColor=#6c8ebf;" vertex="1" parent="BtcmMyWxhL9OFidOPRIg-58">
                    <mxGeometry width="120" height="20" as="geometry"/>
                </mxCell>
                <mxCell id="BtcmMyWxhL9OFidOPRIg-60" value="b-" style="text;html=1;strokeColor=none;fillColor=none;align=center;verticalAlign=middle;rounded=0;fontSize=11;" vertex="1" parent="BtcmMyWxhL9OFidOPRIg-58">
                    <mxGeometry width="20" height="20" as="geometry"/>
                </mxCell>
                <mxCell id="BtcmMyWxhL9OFidOPRIg-61" value="b+" style="text;strokeColor=none;fillColor=none;align=center;verticalAlign=middle;rounded=0;fontSize=11;html=1;spacing=2;" vertex="1" parent="BtcmMyWxhL9OFidOPRIg-58">
                    <mxGeometry x="100" width="20" height="20" as="geometry"/>
                </mxCell>
                <mxCell id="BtcmMyWxhL9OFidOPRIg-62" value="" style="endArrow=none;dashed=1;html=1;strokeWidth=1;fontSize=11;fillColor=#dae8fc;strokeColor=#6c8ebf;" edge="1" parent="BtcmMyWxhL9OFidOPRIg-58">
                    <mxGeometry width="50" height="50" relative="1" as="geometry">
                        <mxPoint x="100" y="20" as="sourcePoint"/>
                        <mxPoint x="100" as="targetPoint"/>
                    </mxGeometry>
                </mxCell>
                <mxCell id="BtcmMyWxhL9OFidOPRIg-63" value="" style="endArrow=none;dashed=1;html=1;strokeWidth=1;fontSize=11;fillColor=#dae8fc;strokeColor=#6c8ebf;" edge="1" parent="BtcmMyWxhL9OFidOPRIg-58">
                    <mxGeometry width="50" height="50" relative="1" as="geometry">
                        <mxPoint x="20" y="20" as="sourcePoint"/>
                        <mxPoint x="20" as="targetPoint"/>
                    </mxGeometry>
                </mxCell>
                <mxCell id="45jSqk6ikuAySWfFnChL-1" value="" style="endArrow=block;html=1;fontSize=12;strokeWidth=1;fillColor=#f5f5f5;strokeColor=#666666;endFill=1;dashed=1;" edge="1" parent="XYDd2NbNxL7BAlXsk03d-1">
                    <mxGeometry width="50" height="50" relative="1" as="geometry">
                        <mxPoint x="360" y="2000" as="sourcePoint"/>
                        <mxPoint x="800" y="2000" as="targetPoint"/>
                    </mxGeometry>
                </mxCell>
                <mxCell id="45jSqk6ikuAySWfFnChL-14" value="" style="group" vertex="1" connectable="0" parent="XYDd2NbNxL7BAlXsk03d-1">
                    <mxGeometry x="480" y="1980" width="80" height="20" as="geometry"/>
                </mxCell>
                <mxCell id="45jSqk6ikuAySWfFnChL-15" value="" style="rounded=0;whiteSpace=wrap;html=1;fontSize=12;strokeWidth=1;fillColor=#f8cecc;strokeColor=#b85450;" vertex="1" parent="45jSqk6ikuAySWfFnChL-14">
                    <mxGeometry width="80" height="20" as="geometry"/>
                </mxCell>
                <mxCell id="45jSqk6ikuAySWfFnChL-16" value="&lt;p style=&quot;line-height: 1.2&quot;&gt;a-&lt;/p&gt;" style="text;html=1;strokeColor=none;fillColor=none;align=center;verticalAlign=middle;rounded=0;fontSize=11;labelPosition=center;verticalLabelPosition=middle;horizontal=1;" vertex="1" parent="45jSqk6ikuAySWfFnChL-14">
                    <mxGeometry width="20" height="20" as="geometry"/>
                </mxCell>
                <mxCell id="45jSqk6ikuAySWfFnChL-17" value="a+" style="text;html=1;strokeColor=none;fillColor=none;align=center;verticalAlign=middle;rounded=0;fontSize=11;spacing=2;" vertex="1" parent="45jSqk6ikuAySWfFnChL-14">
                    <mxGeometry x="60" width="20" height="20" as="geometry"/>
                </mxCell>
                <mxCell id="45jSqk6ikuAySWfFnChL-18" value="" style="endArrow=none;dashed=1;html=1;strokeWidth=1;fontSize=11;fillColor=#f8cecc;strokeColor=#b85450;" edge="1" parent="45jSqk6ikuAySWfFnChL-14">
                    <mxGeometry width="50" height="50" relative="1" as="geometry">
                        <mxPoint x="60" y="20" as="sourcePoint"/>
                        <mxPoint x="60" as="targetPoint"/>
                    </mxGeometry>
                </mxCell>
                <mxCell id="45jSqk6ikuAySWfFnChL-19" value="" style="endArrow=none;dashed=1;html=1;strokeWidth=1;fontSize=11;fillColor=#f8cecc;strokeColor=#b85450;" edge="1" parent="45jSqk6ikuAySWfFnChL-14">
                    <mxGeometry width="50" height="50" relative="1" as="geometry">
                        <mxPoint x="20" y="20" as="sourcePoint"/>
                        <mxPoint x="20" as="targetPoint"/>
                    </mxGeometry>
                </mxCell>
                <mxCell id="84_ggW8FR4ylhm8E-v8A-0" value="" style="group" vertex="1" connectable="0" parent="XYDd2NbNxL7BAlXsk03d-1">
                    <mxGeometry x="380" y="2020" width="80" height="20" as="geometry"/>
                </mxCell>
                <mxCell id="84_ggW8FR4ylhm8E-v8A-1" value="" style="rounded=0;whiteSpace=wrap;html=1;fontSize=12;strokeWidth=1;fillColor=#dae8fc;strokeColor=#6c8ebf;" vertex="1" parent="84_ggW8FR4ylhm8E-v8A-0">
                    <mxGeometry width="80" height="20" as="geometry"/>
                </mxCell>
                <mxCell id="84_ggW8FR4ylhm8E-v8A-2" value="b-" style="text;html=1;strokeColor=none;fillColor=none;align=center;verticalAlign=middle;rounded=0;fontSize=11;" vertex="1" parent="84_ggW8FR4ylhm8E-v8A-0">
                    <mxGeometry width="20" height="20" as="geometry"/>
                </mxCell>
                <mxCell id="84_ggW8FR4ylhm8E-v8A-3" value="b+" style="text;strokeColor=none;fillColor=none;align=center;verticalAlign=middle;rounded=0;fontSize=11;html=1;spacing=2;" vertex="1" parent="84_ggW8FR4ylhm8E-v8A-0">
                    <mxGeometry x="60" width="20" height="20" as="geometry"/>
                </mxCell>
                <mxCell id="84_ggW8FR4ylhm8E-v8A-4" value="" style="endArrow=none;dashed=1;html=1;strokeWidth=1;fontSize=11;fillColor=#dae8fc;strokeColor=#6c8ebf;" edge="1" parent="84_ggW8FR4ylhm8E-v8A-0">
                    <mxGeometry width="50" height="50" relative="1" as="geometry">
                        <mxPoint x="60" y="20" as="sourcePoint"/>
                        <mxPoint x="60" as="targetPoint"/>
                    </mxGeometry>
                </mxCell>
                <mxCell id="84_ggW8FR4ylhm8E-v8A-5" value="" style="endArrow=none;dashed=1;html=1;strokeWidth=1;fontSize=11;fillColor=#dae8fc;strokeColor=#6c8ebf;" edge="1" parent="84_ggW8FR4ylhm8E-v8A-0">
                    <mxGeometry width="50" height="50" relative="1" as="geometry">
                        <mxPoint x="19.66999999999996" y="20" as="sourcePoint"/>
                        <mxPoint x="19.66999999999996" as="targetPoint"/>
                    </mxGeometry>
                </mxCell>
                <mxCell id="84_ggW8FR4ylhm8E-v8A-6" value="" style="group" vertex="1" connectable="0" parent="XYDd2NbNxL7BAlXsk03d-1">
                    <mxGeometry x="580" y="2000" width="80" height="20" as="geometry"/>
                </mxCell>
                <mxCell id="84_ggW8FR4ylhm8E-v8A-7" value="" style="rounded=0;whiteSpace=wrap;html=1;fontSize=12;strokeWidth=1;fillColor=#dae8fc;strokeColor=#6c8ebf;" vertex="1" parent="84_ggW8FR4ylhm8E-v8A-6">
                    <mxGeometry width="80" height="20" as="geometry"/>
                </mxCell>
                <mxCell id="84_ggW8FR4ylhm8E-v8A-8" value="b-" style="text;html=1;strokeColor=none;fillColor=none;align=center;verticalAlign=middle;rounded=0;fontSize=11;" vertex="1" parent="84_ggW8FR4ylhm8E-v8A-6">
                    <mxGeometry width="20" height="20" as="geometry"/>
                </mxCell>
                <mxCell id="84_ggW8FR4ylhm8E-v8A-9" value="b+" style="text;strokeColor=none;fillColor=none;align=center;verticalAlign=middle;rounded=0;fontSize=11;html=1;spacing=2;" vertex="1" parent="84_ggW8FR4ylhm8E-v8A-6">
                    <mxGeometry x="60" width="20" height="20" as="geometry"/>
                </mxCell>
                <mxCell id="84_ggW8FR4ylhm8E-v8A-10" value="" style="endArrow=none;dashed=1;html=1;strokeWidth=1;fontSize=11;fillColor=#dae8fc;strokeColor=#6c8ebf;" edge="1" parent="84_ggW8FR4ylhm8E-v8A-6">
                    <mxGeometry width="50" height="50" relative="1" as="geometry">
                        <mxPoint x="60" y="20" as="sourcePoint"/>
                        <mxPoint x="60" as="targetPoint"/>
                    </mxGeometry>
                </mxCell>
                <mxCell id="84_ggW8FR4ylhm8E-v8A-11" value="" style="endArrow=none;dashed=1;html=1;strokeWidth=1;fontSize=11;fillColor=#dae8fc;strokeColor=#6c8ebf;" edge="1" parent="84_ggW8FR4ylhm8E-v8A-6">
                    <mxGeometry width="50" height="50" relative="1" as="geometry">
                        <mxPoint x="19.66999999999996" y="20" as="sourcePoint"/>
                        <mxPoint x="19.66999999999996" as="targetPoint"/>
                    </mxGeometry>
                </mxCell>
                <mxCell id="84_ggW8FR4ylhm8E-v8A-13" value="a.before(b)" style="text;html=1;strokeColor=none;fillColor=none;align=left;verticalAlign=middle;whiteSpace=wrap;rounded=0;fontSize=11;fontColor=#666666;" vertex="1" parent="XYDd2NbNxL7BAlXsk03d-1">
                    <mxGeometry x="680" y="2000" width="80" height="20" as="geometry"/>
                </mxCell>
                <mxCell id="84_ggW8FR4ylhm8E-v8A-14" value="a.after(b)" style="text;html=1;strokeColor=none;fillColor=none;align=left;verticalAlign=middle;whiteSpace=wrap;rounded=0;fontSize=11;fontColor=#666666;" vertex="1" parent="XYDd2NbNxL7BAlXsk03d-1">
                    <mxGeometry x="680" y="2020" width="80" height="20" as="geometry"/>
                </mxCell>
                <mxCell id="T4GEc0wp3Ufg_bJJSyWo-1" value="" style="endArrow=block;html=1;fontSize=12;strokeWidth=1;fillColor=#f5f5f5;strokeColor=#666666;endFill=1;dashed=1;" edge="1" parent="XYDd2NbNxL7BAlXsk03d-1">
                    <mxGeometry width="50" height="50" relative="1" as="geometry">
                        <mxPoint x="360" y="2100" as="sourcePoint"/>
                        <mxPoint x="800" y="2100" as="targetPoint"/>
                    </mxGeometry>
                </mxCell>
                <mxCell id="T4GEc0wp3Ufg_bJJSyWo-2" value="" style="group" vertex="1" connectable="0" parent="XYDd2NbNxL7BAlXsk03d-1">
                    <mxGeometry x="480" y="2080" width="80" height="20" as="geometry"/>
                </mxCell>
                <mxCell id="T4GEc0wp3Ufg_bJJSyWo-3" value="" style="rounded=0;whiteSpace=wrap;html=1;fontSize=12;strokeWidth=1;fillColor=#f8cecc;strokeColor=#b85450;" vertex="1" parent="T4GEc0wp3Ufg_bJJSyWo-2">
                    <mxGeometry width="80" height="20" as="geometry"/>
                </mxCell>
                <mxCell id="T4GEc0wp3Ufg_bJJSyWo-4" value="&lt;p style=&quot;line-height: 1.2&quot;&gt;a-&lt;/p&gt;" style="text;html=1;strokeColor=none;fillColor=none;align=center;verticalAlign=middle;rounded=0;fontSize=11;labelPosition=center;verticalLabelPosition=middle;horizontal=1;" vertex="1" parent="T4GEc0wp3Ufg_bJJSyWo-2">
                    <mxGeometry width="20" height="20" as="geometry"/>
                </mxCell>
                <mxCell id="T4GEc0wp3Ufg_bJJSyWo-5" value="a+" style="text;html=1;strokeColor=none;fillColor=none;align=center;verticalAlign=middle;rounded=0;fontSize=11;spacing=2;" vertex="1" parent="T4GEc0wp3Ufg_bJJSyWo-2">
                    <mxGeometry x="60" width="20" height="20" as="geometry"/>
                </mxCell>
                <mxCell id="T4GEc0wp3Ufg_bJJSyWo-6" value="" style="endArrow=none;dashed=1;html=1;strokeWidth=1;fontSize=11;fillColor=#f8cecc;strokeColor=#b85450;" edge="1" parent="T4GEc0wp3Ufg_bJJSyWo-2">
                    <mxGeometry width="50" height="50" relative="1" as="geometry">
                        <mxPoint x="60" y="20" as="sourcePoint"/>
                        <mxPoint x="60" as="targetPoint"/>
                    </mxGeometry>
                </mxCell>
                <mxCell id="T4GEc0wp3Ufg_bJJSyWo-7" value="" style="endArrow=none;dashed=1;html=1;strokeWidth=1;fontSize=11;fillColor=#f8cecc;strokeColor=#b85450;" edge="1" parent="T4GEc0wp3Ufg_bJJSyWo-2">
                    <mxGeometry width="50" height="50" relative="1" as="geometry">
                        <mxPoint x="20" y="20" as="sourcePoint"/>
                        <mxPoint x="20" as="targetPoint"/>
                    </mxGeometry>
                </mxCell>
                <mxCell id="T4GEc0wp3Ufg_bJJSyWo-8" value="" style="group" vertex="1" connectable="0" parent="XYDd2NbNxL7BAlXsk03d-1">
                    <mxGeometry x="400" y="2120" width="80" height="20" as="geometry"/>
                </mxCell>
                <mxCell id="T4GEc0wp3Ufg_bJJSyWo-9" value="" style="rounded=0;whiteSpace=wrap;html=1;fontSize=12;strokeWidth=1;fillColor=#dae8fc;strokeColor=#6c8ebf;" vertex="1" parent="T4GEc0wp3Ufg_bJJSyWo-8">
                    <mxGeometry width="80" height="20" as="geometry"/>
                </mxCell>
                <mxCell id="T4GEc0wp3Ufg_bJJSyWo-10" value="b-" style="text;html=1;strokeColor=none;fillColor=none;align=center;verticalAlign=middle;rounded=0;fontSize=11;" vertex="1" parent="T4GEc0wp3Ufg_bJJSyWo-8">
                    <mxGeometry width="20" height="20" as="geometry"/>
                </mxCell>
                <mxCell id="T4GEc0wp3Ufg_bJJSyWo-11" value="b+" style="text;strokeColor=none;fillColor=none;align=center;verticalAlign=middle;rounded=0;fontSize=11;html=1;spacing=2;" vertex="1" parent="T4GEc0wp3Ufg_bJJSyWo-8">
                    <mxGeometry x="60" width="20" height="20" as="geometry"/>
                </mxCell>
                <mxCell id="T4GEc0wp3Ufg_bJJSyWo-12" value="" style="endArrow=none;dashed=1;html=1;strokeWidth=1;fontSize=11;fillColor=#dae8fc;strokeColor=#6c8ebf;" edge="1" parent="T4GEc0wp3Ufg_bJJSyWo-8">
                    <mxGeometry width="50" height="50" relative="1" as="geometry">
                        <mxPoint x="60" y="20" as="sourcePoint"/>
                        <mxPoint x="60" as="targetPoint"/>
                    </mxGeometry>
                </mxCell>
                <mxCell id="T4GEc0wp3Ufg_bJJSyWo-13" value="" style="endArrow=none;dashed=1;html=1;strokeWidth=1;fontSize=11;fillColor=#dae8fc;strokeColor=#6c8ebf;" edge="1" parent="T4GEc0wp3Ufg_bJJSyWo-8">
                    <mxGeometry width="50" height="50" relative="1" as="geometry">
                        <mxPoint x="19.66999999999996" y="20" as="sourcePoint"/>
                        <mxPoint x="19.66999999999996" as="targetPoint"/>
                    </mxGeometry>
                </mxCell>
                <mxCell id="T4GEc0wp3Ufg_bJJSyWo-14" value="" style="group" vertex="1" connectable="0" parent="XYDd2NbNxL7BAlXsk03d-1">
                    <mxGeometry x="560" y="2100" width="80" height="20" as="geometry"/>
                </mxCell>
                <mxCell id="T4GEc0wp3Ufg_bJJSyWo-15" value="" style="rounded=0;whiteSpace=wrap;html=1;fontSize=12;strokeWidth=1;fillColor=#dae8fc;strokeColor=#6c8ebf;" vertex="1" parent="T4GEc0wp3Ufg_bJJSyWo-14">
                    <mxGeometry width="80" height="20" as="geometry"/>
                </mxCell>
                <mxCell id="T4GEc0wp3Ufg_bJJSyWo-16" value="b-" style="text;html=1;strokeColor=none;fillColor=none;align=center;verticalAlign=middle;rounded=0;fontSize=11;" vertex="1" parent="T4GEc0wp3Ufg_bJJSyWo-14">
                    <mxGeometry width="20" height="20" as="geometry"/>
                </mxCell>
                <mxCell id="T4GEc0wp3Ufg_bJJSyWo-17" value="b+" style="text;strokeColor=none;fillColor=none;align=center;verticalAlign=middle;rounded=0;fontSize=11;html=1;spacing=2;" vertex="1" parent="T4GEc0wp3Ufg_bJJSyWo-14">
                    <mxGeometry x="60" width="20" height="20" as="geometry"/>
                </mxCell>
                <mxCell id="T4GEc0wp3Ufg_bJJSyWo-18" value="" style="endArrow=none;dashed=1;html=1;strokeWidth=1;fontSize=11;fillColor=#dae8fc;strokeColor=#6c8ebf;" edge="1" parent="T4GEc0wp3Ufg_bJJSyWo-14">
                    <mxGeometry width="50" height="50" relative="1" as="geometry">
                        <mxPoint x="60" y="20" as="sourcePoint"/>
                        <mxPoint x="60" as="targetPoint"/>
                    </mxGeometry>
                </mxCell>
                <mxCell id="T4GEc0wp3Ufg_bJJSyWo-19" value="" style="endArrow=none;dashed=1;html=1;strokeWidth=1;fontSize=11;fillColor=#dae8fc;strokeColor=#6c8ebf;" edge="1" parent="T4GEc0wp3Ufg_bJJSyWo-14">
                    <mxGeometry width="50" height="50" relative="1" as="geometry">
                        <mxPoint x="19.66999999999996" y="20" as="sourcePoint"/>
                        <mxPoint x="19.66999999999996" as="targetPoint"/>
                    </mxGeometry>
                </mxCell>
                <mxCell id="T4GEc0wp3Ufg_bJJSyWo-22" value="" style="endArrow=none;dashed=1;html=1;strokeWidth=1;fontSize=11;fillColor=#f5f5f5;strokeColor=#666666;" edge="1" parent="T4GEc0wp3Ufg_bJJSyWo-14">
                    <mxGeometry width="50" height="50" relative="1" as="geometry">
                        <mxPoint y="40" as="sourcePoint"/>
                        <mxPoint y="-40" as="targetPoint"/>
                    </mxGeometry>
                </mxCell>
                <mxCell id="T4GEc0wp3Ufg_bJJSyWo-20" value="succ(a+)=b-" style="text;html=1;strokeColor=none;fillColor=none;align=left;verticalAlign=middle;whiteSpace=wrap;rounded=0;fontSize=11;fontColor=#666666;" vertex="1" parent="XYDd2NbNxL7BAlXsk03d-1">
                    <mxGeometry x="680" y="2100" width="80" height="20" as="geometry"/>
                </mxCell>
                <mxCell id="T4GEc0wp3Ufg_bJJSyWo-21" value="succ(b+)=a-" style="text;html=1;strokeColor=none;fillColor=none;align=left;verticalAlign=middle;whiteSpace=wrap;rounded=0;fontSize=11;fontColor=#666666;" vertex="1" parent="XYDd2NbNxL7BAlXsk03d-1">
                    <mxGeometry x="680" y="2120" width="80" height="20" as="geometry"/>
                </mxCell>
                <mxCell id="T4GEc0wp3Ufg_bJJSyWo-25" value="" style="endArrow=none;dashed=1;html=1;strokeWidth=1;fontSize=11;fillColor=#f5f5f5;strokeColor=#666666;" edge="1" parent="XYDd2NbNxL7BAlXsk03d-1">
                    <mxGeometry width="50" height="50" relative="1" as="geometry">
                        <mxPoint x="480" y="2160" as="sourcePoint"/>
                        <mxPoint x="480" y="2060" as="targetPoint"/>
                    </mxGeometry>
                </mxCell>
            </root>
        </mxGraphModel>
    </diagram>
</mxfile>